ply
format ascii 1.0
comment Exported by Aspose.3D 22.3
element vertex 549
property float x
property float y
property float z
element face 1094
property list uchar int vertex_index
end_header
-38.237629082897 0.0316345701163314 34.4252756724831
-38.8209427689829 -0.887866995928254 36.1762684962114
-37.6202007551925 0.639061103486938 35.428869049683
-39.1317162352585 0.609011588577459 33.8856425736046
-42.9439765667175 -0.777916432377047 35.1111868155034
-42.8522869513984 0.717503750092391 33.89686669401
-38.1145300080875 8.85264130815277 34.50036910783
-39.2288199822136 8.56325097073872 33.8536415303348
-37.5232168539696 8.64359529294332 35.9748454160788
-42.931029223265 8.581090009736 33.9255605089764
-38.3136346001871 -0.0636478743945528 37.2339116198995
-37.6599798276769 0.752967494450218 36.4804976692821
-39.2813380916568 0.688643721241334 37.5222689472846
-43.586042128055 -0.418426872097022 37.1039126240589
-42.9135214205512 0.604262346260043 37.4866201365004
-38.4414311063686 8.40874754570363 37.4169257695537
-43.7988492208638 -0.141095107666981 34.8883950361722
-44.0825983340509 0.894547942336885 36.0202791942954
-43.9943717436455 8.32728184398619 35.2189869844808
-43.6278458593585 8.35408980101632 37.3670373660281
-37.2790632255957 10.4000938797461 33.5937148449031
-36.7896327524343 10.8223273541284 34.6130143691038
-38.275755727958 10.5962023144259 33.0558602971219
-43.6121120228232 9.60436968101114 33.5263774974752
-40.9777548650973 11.6938544370914 33.0326700063557
-37.1960908979711 9.85520041636144 37.2678286619951
-38.0435914493314 9.19894935815577 37.8240647094414
-39.1839783028294 8.98606564832179 38.3057988421811
-44.3228314470539 9.05613353503678 34.4502348763421
-44.8192507597334 8.97246559059026 35.6854220107635
-44.4205941983518 8.98802288565171 38.2230793194103
-38.2655146723335 20.34981416603 33.0590391004825
-36.811132732416 20.3794209146572 34.5818380558113
-37.3243198142958 21.2523201979037 33.6287046168721
-40.7514392184451 21.9324309743934 34.9042080286887
-38.7383130509942 22.0460473634277 37.3866637472745
-40.7869183174438 24.3943068424425 36.4586517277085
-42.0679620977064 22.4529605171186 35.1282698007202
-39.1233343127732 23.4084251167378 38.3999943333771
-39.8191235610981 24.4145791456423 38.7582932594878
-41.231753982217 25.3219753884419 38.5084296090626
-42.4064082651411 24.74066173262 36.3403363665533
-43.3549352381388 23.7903982933822 35.5525668948072
-42.1605488386166 25.6342264112361 37.9402613813388
-44.3263492472544 25.7523825711412 39.3802919476152
-36.8020115810221 20.3448171165175 117.859774818008
-39.2095653040327 8.97144947121691 115.831939250833
-36.7908395556572 10.8199419254517 118.702439611357
-38.0601741961891 9.18977840516357 116.49179438634
-37.2588012718038 21.1834768751991 117.718099856074
-43.0420904791556 25.7566390130622 110.629427737955
-38.5224050950179 21.8836815793185 112.095445735661
-38.8331529295486 22.3269699422388 111.019233363314
-39.1496085149809 23.5008133586024 111.092379729692
-41.0490467966155 25.1983752873721 110.80309956099
-106.389096648009 8.97144826309169 35.3604186903816
-106.979319411597 8.98764847962029 37.3032873145479
-58.9060723509624 25.427990679338 37.558419115115
-60.6405951246188 25.7590371979289 38.8783680687652
-107.080369709833 25.7519920573366 39.3641120343535
-111.925300434142 20.3549696486339 33.053661326251
-59.6670427010671 24.7880787113817 36.446941001151
-111.943941180046 10.846978661087 33.034538315023
-106.371499018063 8.97883091448151 36.5371025110357
-108.015334244443 22.4994913368952 35.1309606522443
-112.831947572686 21.2202656829937 33.5972504384755
-108.472528204665 21.9116094797695 34.8776937593946
-107.980773090938 25.6969344766814 38.5437578369604
-107.618005129385 23.7564362902071 35.5381430523178
-107.688345962218 24.8235628809372 36.495034001782
-111.946441539699 8.98988630800557 116.090811875518
-37.1885600106779 9.85791077002747 116.649738665735
-39.8787422523425 24.4249657735687 110.741763469443
-41.9323171171544 25.5410574906307 111.665578352007
-43.4947718813047 8.9879743382985 116.182886552377
-38.2463496879668 0.100521537920713 116.355517175636
-38.7958762637632 -0.845834998214563 118.043970851813
-37.6199131612688 0.745431883488862 117.389681589811
-39.1391792306619 0.658983447740638 115.787505927793
-38.5876775582747 -0.0558454114723332 119.350400915483
-37.7195351004823 0.827339738737777 118.450025808125
-43.691694336676 -0.417794120348248 116.645039295436
-42.7643935750968 -0.925955642192692 117.960619636256
-42.8914017323518 0.693587145584075 115.806624792925
-37.5139769666835 8.7641895021738 118.031782287885
-42.2628357721903 8.18375751064019 115.736956624756
-43.7286765360862 -0.357280255627643 118.954463264768
-42.8881989474819 0.60447864642515 119.391281684356
-38.4963431810868 8.01126809769238 119.289156890211
-42.7658679284583 7.94691895477649 119.412299699747
-43.9946386161615 -0.0103848630149415 117.430510943171
-44.1051783793681 8.98300465763117 117.678064245035
-44.0044428905912 9.13930549307146 118.873430481245
-37.4184784842273 10.4546003619337 119.790844223609
-39.2135982888261 10.6392035257076 120.210584796408
-38.393697452246 18.6548441021956 120.183389412454
-43.9319938569707 10.7570941507654 120.18587855697
-44.3344060428213 9.75632472404595 119.681972656351
-36.7741714111557 18.9701717541559 118.597053957315
-36.5252875701492 19.6241434209937 120.255400197705
-37.1637187063398 18.6988044178939 119.527971797967
-35.9010640733891 20.595218664502 120.569141004459
-35.459491783638 21.9286180727733 119.89251389638
-35.7733121318281 22.3237007466803 118.727867722921
-37.9114607492858 23.796656297053 118.274129816918
-38.6361165311512 23.9880188655468 120.822244170737
-37.5398708634478 24.1462812944506 120.06492280933
-38.0741866007297 21.7163898104991 117.933827638375
-40.1610757306708 21.8521058403073 115.496308153891
-40.9450494931945 21.8989468379912 114.162427611208
-42.0228814512146 21.9397930475279 114.915619410058
-43.5356997741554 21.8507500974663 114.293941062644
-40.502442342593 24.2349546435846 112.739151721085
-42.5425700575172 24.7278927276163 113.014659554823
-42.4979770547587 23.4880898661661 113.900307768044
-40.9615447868754 23.1001375601941 115.917910634549
-39.219720898124 22.4714222567641 117.825692992924
-41.3042661049268 21.7139241626003 120.175661212355
-39.1125459182306 20.8667295768229 120.950698304345
-40.3515476609035 25.2874887814251 117.466399968861
-38.6769659497161 26.4728818846012 118.649734650085
-38.8349448162028 26.5715869783333 120.198518146149
-40.6465367198058 26.3974981371149 120.896093233817
-42.7543676183575 26.6614959035576 120.174693914801
-37.9752750140405 28.7170851477393 119.44629547338
-37.8023033820952 30.0482576698771 118.71519467191
-39.5081178685153 27.262732487933 118.070860332432
-39.8541564195692 27.8042506304269 120.908904473822
-37.6236948497421 30.5918176231372 120.262237184191
-41.1384309425231 29.2183906719074 117.409140448951
-40.8643087779114 34.6238528302399 120.854606892859
-42.0467226733207 30.2465661533446 115.936495213364
-43.898402609658 23.3073190185569 114.547412749875
-43.690216525674 29.66628465186 114.784956920204
-44.8097228918129 34.0321566290613 114.531379013456
-107.648866530067 25.7476139734957 110.649132521664
-106.228937246957 8.98800523991063 117.765052804573
-107.124370504483 9.7746731150072 119.690422433324
-48.0106836746734 21.8347106107925 114.289837262931
-52.7976225526229 21.8036683590035 114.315524957221
-50.0122610455772 23.1122590220479 114.571214835268
-50.3095938625488 41.3357918980964 114.549447754955
-56.7903732391562 21.7834558394464 114.326502686591
-62.5796688334211 21.7975299556669 114.323729590398
-108.841512020181 25.4680240675757 111.826893457813
-107.410535439723 24.05325015789 113.591462369609
-62.2143642295817 23.3255201117115 114.559989162318
-69.7121457289253 23.306282748051 114.54866817879
-57.595263768718 43.0292300395168 120.178924294462
-67.5174459389768 46.0661040273295 120.182698780701
-107.945536247456 10.7516343784527 120.193761018465
-68.2288958471597 21.797465461679 114.323706664506
-73.8820237851868 21.7974634219396 114.323708054739
-108.826103369591 23.2798873880411 113.955698119624
-77.2899200263229 23.325488945183 114.559992698969
-36.429201722825 34.481195940245 118.618912558414
-36.8312014460008 33.3280903807474 120.202005784912
-35.7182536736421 36.1040016772222 119.115350421289
-37.6323951949814 33.7961380266754 118.035016907566
-36.8546242169536 32.606409710281 119.206969396967
-37.656778208526 34.5790103877073 120.900690266056
-36.1041321829541 36.6080272183389 120.406337350624
-36.3353148417125 36.8780795734074 118.141531527869
-37.7318817714804 37.2782915409371 120.91875236915
-32.9122015752246 42.6274342778219 119.12836716818
-33.3805994319353 42.8077122474973 118.40103435108
-33.1405450220654 42.0048368621101 120.176472066538
-33.2284835525154 41.1731166396053 118.899411482193
-34.184111122889 39.0049475345053 118.940105427979
-34.8765220251943 37.3401773708509 120.252059332164
-35.6612049796094 39.7535983967852 117.973550228287
-35.8401874930136 38.4367291663559 120.88604039441
-33.98926645817 39.932407156551 120.221717676118
-34.4169446795441 41.3889020293793 117.992305764505
-34.5632292153749 41.2979471871251 120.896461788904
-37.8401811941751 43.4634315800492 118.025638119726
-39.3428902986205 44.7306577395519 120.871147823594
-34.8026550129407 47.4887722074463 120.881928005522
-39.765371336243 37.1951895565226 117.891227069056
-41.4087856903948 36.0420772348989 116.033279330628
-38.4625976128564 31.1342201141998 118.028961594514
-38.513695649914 31.6392068351544 120.866114483067
-40.7397541529152 32.2483134926458 117.90372294643
-38.7021484413102 40.1661198556299 117.894831876435
-39.6893060631602 38.7457927171622 120.843578661087
-42.6289957661415 35.5108993828734 120.167783413076
-41.4457781606209 39.5815470878058 120.153347549331
-43.1872059361572 35.3820550707587 114.82227163276
-39.7533861756141 41.7143653260218 115.898746350454
-40.7317473498272 44.8350684535926 116.037955428455
-41.3001389148734 42.9242671445525 114.751439186881
-38.9315339749881 44.372982137684 117.67496384581
-41.2044893411327 44.1975381954317 120.133224001109
-42.7002726768378 42.9807985136534 114.514845092359
-43.5825109398209 44.9785498169001 115.342742444994
-46.5217198856405 43.9232496312227 120.189824041149
-45.9989963309177 44.8724665969638 120.178577314538
-34.9714563758302 47.8531402224884 118.032124952735
-33.5733597574149 47.1924817692968 118.889429578161
-33.5724119704124 46.9292130149988 120.153205252438
-34.585442922037 49.3772664222872 119.400160602193
-39.9668231181673 50.7010634601988 118.012287909336
-36.1982694069576 50.0812101429898 118.809633781853
-37.1454647755614 50.7668498016087 120.056012500387
-39.3330084615541 51.0010626954103 120.685790261647
-41.724769393844 46.6842436761546 117.755491487247
-41.0933998129511 47.6414352432715 118.016360366005
-41.8527098576346 50.8437660094994 120.856441749659
-42.6750835028158 46.1960160909905 120.835372271967
-48.5609030469109 49.0308491406778 120.885503763786
-39.2436739121723 51.5416595128584 118.876976406855
-41.7413399623095 51.5440574993239 118.417916155182
-40.7607043071803 52.3812105500904 118.918324246897
-40.4351067867871 52.0017449907413 120.370527498105
-45.0880154704583 46.7109057951516 117.559450663368
-49.6003362185802 44.1711561757239 115.578613236484
-47.3407935239578 45.878090955119 120.896467949375
-47.1978131226214 50.7492651071319 118.320931603062
-42.6724254219833 51.8612707229008 119.560838826163
-47.6992270608343 49.2909220425207 118.019373360228
-44.636432398846 51.31019156689 120.289640383726
-52.121861502201 42.2745289265671 114.734294745778
-49.9476786937818 43.4660434351701 120.180971993211
-52.3774951419942 45.1264161894588 117.479448447289
-54.6949781546675 43.7037104649569 115.676832007271
-51.123230936313 44.8873424392075 120.888796147634
-54.9611887121609 44.418638967266 116.878290131019
-57.6986337898475 44.822379399823 120.884707561369
-66.2784760896484 43.2040151192782 114.547285288282
-60.3470092315486 42.8141581001431 114.747120472198
-59.3743567132847 44.4561371579325 116.151925000783
-59.5165959419899 45.7514532543185 117.997124042559
-61.2941467833402 43.8228647488994 120.159457215866
-47.7466383602601 46.168619296912 117.522369243131
-49.1916026522478 46.9656035241559 117.987881985824
-48.3229858106601 49.9405786986856 120.567347289006
-47.3766190224333 51.1233566236301 119.529346685256
-49.4741213210189 50.2335988129006 118.90436942194
-55.4258880131144 48.2628313499046 120.874836578534
-55.2195788845449 48.3058115869887 118.003276960378
-53.4736353005938 50.1977783565866 118.25836802984
-53.3467771016706 50.8919951850047 119.813695836974
-54.2031578626256 49.5018445470597 120.789260417902
-53.7120397361482 46.2653409482274 118.000757799364
-55.6364685749552 49.4744363326803 118.672692679853
-55.7863940450929 49.4707969350239 120.041828432505
-61.8285636040274 50.3177939879692 117.977353648194
-61.3364112699007 50.8080174869067 120.876676074333
-58.132889695859 50.1245097038822 118.259281897503
-58.158291304081 50.7347969220879 119.848090145242
-57.2022949093957 49.8893239674194 120.629027673738
-60.51166931171 51.7356622376167 119.865267417139
-60.920746490919 51.7523824417338 118.538528075601
-63.2528106105519 44.5904159838897 115.393755859657
-64.5864188457267 46.9630546540798 117.675033764265
-67.481100379664 45.2924213893125 114.817138215544
-87.6166181776343 41.9778441693645 114.548215252977
-80.1500868479839 45.0063707868021 114.549530048549
-77.7454561868493 47.4576931998098 120.176949494921
-62.3563978976003 46.7207783740139 117.975495256405
-63.4740874567888 45.2686230331469 120.633691652861
-66.0834171161837 47.3232007276904 120.898593770424
-63.3102683720725 50.6942255290007 120.880846153742
-66.8315723604542 48.3995909428561 118.014239744311
-62.3821329869303 51.373358674122 118.478886450901
-62.7103994849246 51.7460028627931 120.11235095895
-64.8822025416209 52.7875201892018 118.005618243948
-63.7412812935596 53.482637383985 118.668974204841
-68.9476331843489 47.8283894643423 116.258109354156
-68.0696874201336 53.4698408655801 120.854532711224
-67.8188061207573 53.1002939094041 118.032991047521
-64.3042924701953 54.7583744273943 119.896018288036
-65.2735427360354 54.1363965627581 120.812159318514
-65.6908680206019 54.8124953621099 118.245755312157
-66.087802857041 55.3259082724165 119.76188259712
-68.3631660792093 54.0350675499264 118.591330136798
-67.064824598152 54.993581384281 118.679211772508
-68.4262219525001 54.3901340169234 119.491808562494
-70.6566297129134 49.589843876398 117.995318959359
-72.6035173277719 46.7804238472311 114.701130942079
-74.0162106602669 48.6310525443355 115.870422613798
-72.1550798834994 49.4500828203717 120.894682945242
-72.0625731447209 47.5792046601831 120.200332881456
-79.3434040971645 46.6888173155651 114.83106070412
-74.883491377267 49.5957074650255 117.438239643019
-77.1598332121766 50.756178160883 117.990398499185
-69.5519014502242 54.5539325299604 120.748226516236
-71.0240180292363 55.8113160330262 118.069542401943
-72.6274333244864 57.5605651963162 120.876895498737
-69.5494213133295 56.2481428010544 118.869075711343
-69.2316523836831 55.8942154129837 120.020490342103
-70.8911130107909 56.7418493734576 120.068503961935
-77.0742794813953 57.9912804916698 120.871848641282
-72.7250360972581 57.628791799121 118.002942030156
-78.6635872847676 55.8089498482744 118.051072632161
-76.341926507505 58.41393566742 118.02186690496
-71.7959000667292 58.1986727747573 118.65775900854
-72.7190067038257 59.3665136046571 120.079747305045
-73.6224312421469 59.7010905084706 118.731100787259
-74.9502941461053 59.1638894850856 120.754950187935
-76.3799031483722 59.7280680765884 118.950538040976
-106.973113928349 10.5314441530282 33.0750260373473
-106.362200259523 9.59710930426687 33.5373479955441
-106.977777975958 9.04911527553893 34.3970292859689
-111.964320531805 8.9981376707726 38.3217043347089
-108.765338931824 25.5176202646212 37.8238473534516
-107.140744379273 0.0813094764562408 34.3226593064732
-107.495709598227 -0.8576553882816 36.0910804207653
-106.364426493327 0.614108551119443 35.3279665074496
-108.028534363919 0.717332712962673 33.8234647371478
-111.547266549888 0.685545541523496 33.894487271577
-112.341477705027 -0.413842567182694 34.7485335212212
-111.477152720643 -0.922769675801431 36.0096671753448
-111.314305874915 8.62312080286809 33.8620513454949
-108.021068842094 8.70298061330018 33.8355607183734
-107.053876639251 -0.0771516698994468 37.2536633127882
-106.335470953179 0.766684847811575 36.5121423035514
-107.968596205211 0.646238144827279 37.5048286503379
-112.224730501202 -0.337995693439495 37.1274563756401
-107.915964752361 8.66615092360982 37.5084141679505
-112.694691641495 0.986651532034443 36.0805171186248
-112.200293677841 8.10016241054035 34.3374278995432
-112.684317300745 8.02764520557423 36.0308056844109
-111.628278619678 0.621291116799114 37.4905121298464
-111.981057546298 8.31901338225133 37.4312825534943
-112.851271613305 10.0538730460942 33.5791093014147
-113.419102273944 11.2518052545128 34.656013456671
-113.345192219132 10.5314348515507 37.8406079824337
-112.852928194253 9.56094328674578 37.9742543057951
-113.33038731441 20.466665128153 34.5634635276425
-113.411357388665 19.4626012636238 35.5176208655253
-112.040661704963 21.627307986716 34.6411810340707
-110.680038398531 21.8340949956026 36.1074606874764
-111.440963063427 21.8137471764388 38.0840694287202
-109.779769875624 24.3447846925593 36.6531094105012
-111.012465270317 23.5462022116358 38.8037890634718
-110.162523783782 24.7046607244033 38.971170278515
-112.853460669813 9.56888325874377 116.658329555758
-113.419872162078 11.7139052247827 117.743089732711
-108.938585291334 25.4620713626679 57.6224250392072
-112.028742588318 21.6184851448577 117.916503606533
-112.860027825262 21.2152705656757 117.712387537213
-111.181802887375 22.9736510797825 110.590895488619
-111.453716809357 21.7793269493363 111.762790627297
-106.67653987989 8.98695485146485 116.70431778616
-111.969663963636 10.6940210351429 120.191583732314
-81.4194853448731 21.7974622143176 114.323708210248
-108.410178572859 24.9682770394472 112.706041217846
-86.7117336362971 23.3254916370838 114.559993009268
-87.0725960764184 21.7974653895114 114.323706485472
-92.7257219124272 21.7974640969814 114.323707957633
-108.000278446115 25.0775822130329 120.182782165622
-96.0821265509448 23.303199259182 114.549995267562
-90.162816611219 43.6684920493607 120.180843453228
-106.094900413915 36.2999689545222 114.549021627439
-106.485183742033 9.11903396495653 118.805505335247
-111.916760828357 18.5872177888589 120.179330937916
-99.7730027445796 21.8246095374872 114.30295132453
-107.475768350323 21.8598070994796 114.36878247641
-106.050372658756 23.3173263260894 114.551249636598
-109.133541197735 20.1312566477294 120.201943646103
-107.230236632206 32.7678700338636 120.175599238193
-113.390011163703 20.3428579576449 117.785433071483
-109.6436044346 25.0962060318609 110.959028572331
-110.757771281332 24.0006630400694 111.501807642419
-113.364018791558 10.5389002753802 118.722475271655
-107.124465408404 0.0671474197670534 116.273395711948
-107.479588650793 -0.8539886192004 118.040226299185
-106.34768637408 0.637694242807129 117.319723436984
-107.991757300343 0.680528602695176 115.746766226915
-107.303119878243 0.0251294849617665 119.346376904592
-106.353363264879 0.783848458853697 118.480123210154
-112.344425472422 -0.426521672751321 116.679787750224
-111.481242753577 -0.921587841269776 117.957564954809
-107.979106100333 8.89987216349681 115.866194329555
-112.214152310922 -0.336462740711283 119.042238689996
-107.20352144558 8.03775235728756 119.315793625131
-111.574635900677 0.704805978891699 115.7992063665
-112.68092500299 0.950519229975271 118.053048294779
-111.045875845879 8.16636221485845 115.738576137703
-112.581805219374 8.00107881889454 116.988106663422
-112.432188589554 7.97777636007254 118.848693109147
-111.576955808412 0.624338198170051 119.393144492525
-111.601108508613 7.95939997786212 119.383206852273
-112.86766407416 10.4274117994336 119.61962712156
-109.534072286981 21.974963416219 114.04530201922
-109.953397400982 21.7179137879699 115.653062909223
-109.578773752892 22.4742827924987 120.74292111981
-113.311699309051 18.8962448335492 119.191468379433
-110.046562423849 23.4710866815964 117.276196643939
-111.552043494577 20.4911161486647 120.978575039924
-113.162583451822 19.8671410392035 120.769455944948
-113.471023213425 22.9237500510324 118.548598250648
-113.498918742411 21.8210813744441 120.748270568218
-106.998610416391 26.0677172845499 114.802488383947
-108.962594136931 23.7886130661813 115.852998699181
-106.90266989776 34.6581902631272 114.841668782067
-107.772386805206 30.034035657024 115.619658689127
-109.064281120192 28.9691308317338 117.37577082956
-109.364018956589 26.3420500154776 120.920165921904
-108.708443813235 34.0518277588207 120.790309873619
-111.320208970758 27.0886337670588 118.517448298639
-111.400593357077 25.8864244214956 118.701124238175
-111.397486334044 23.7878573505766 120.773967824833
-111.136268096205 26.4462371614956 120.123267599575
-112.269984138463 23.5940467889514 118.487547122872
-112.577180127272 23.9379448022803 119.710561934641
-111.158360755555 27.6293165861102 120.591313745629
-111.258644471528 29.1805878499088 118.211198414964
-111.489227070775 31.0010350910409 120.839745341368
-112.346903617728 30.1410103112887 120.002528928573
-114.412550354138 21.4255115919415 118.760430265635
-114.303352402679 20.8420306788303 120.181522373165
-113.957510245096 22.5603053549144 119.88358436857
-84.1603737849755 45.1917067500029 120.185017342548
-81.1675830553117 46.3745762094607 120.19464885178
-84.7635223073057 44.4419153661997 114.834417433854
-86.9990711410719 45.7477187231886 120.900703496151
-91.7788865562222 42.3742870260335 114.753306259964
-86.641270696501 45.0514239948197 115.76011538703
-94.0273054678042 43.6801834595794 115.70293881219
-92.0698107921623 45.1746062936338 117.434578207706
-80.2871844474012 47.6223006656504 115.65427334655
-79.9427519094887 49.2137545632135 117.503270720787
-79.3195929008015 48.7776722109726 120.884191859698
-80.6813485023716 53.0994233624832 118.027926399535
-80.6750809668159 53.0483882081674 120.868747037745
-83.0734340560028 48.2355341906769 117.694802381851
-82.2987027653462 47.5220593360514 120.897066000928
-85.1300400081406 53.2024183395477 118.01359183748
-82.5287229323326 49.7502464823609 118.012398399923
-86.1146659583533 51.0167691530065 120.851800730734
-78.5379252215136 55.8477758882919 120.787563610058
-78.2754232909325 57.6206282465291 118.41093705965
-79.8895313386546 56.0686497614378 120.124052545677
-76.8882363094867 59.3946922779091 120.027838917945
-77.539909196323 58.7520183980332 118.689204245818
-78.929649329589 56.8329376629843 119.751336199597
-80.3305875939824 55.8979512251487 118.365136753885
-81.2406322925477 54.3048129495901 118.750403538831
-81.4763978347277 54.2659943559694 120.122961337497
-82.5582837773783 55.0081734312042 119.864252351841
-83.1021162625619 55.0308278190595 118.688130440517
-85.4038351098769 47.1174133116282 117.553041460543
-87.8776412580879 46.062755947449 117.477683005489
-85.1229932221398 46.7992944461182 120.902243211979
-87.5640245921557 47.5604645134557 117.992969988129
-90.1390805463135 49.9227809756494 120.844035883981
-86.2166871543982 50.6610845752367 118.025190302306
-84.1994031487536 54.2356379398443 120.853014303711
-87.0068092320309 51.8588820379896 118.814704929617
-86.5165696818337 52.5386207160539 120.004231176824
-92.5380394607998 46.1313568450554 117.972144370478
-91.5693109382275 45.4860247083461 120.902382461668
-89.2976684067787 50.0679725855878 118.040818437206
-87.8265687604104 51.754248026086 120.056292144176
-88.7058243017564 51.8934259254695 118.717113934716
-90.2275977340042 50.8342495828118 118.660842731862
-89.931861918896 51.1980530524547 120.067654038399
-85.003961630187 54.815290881265 118.347330902793
-84.3449176743268 55.2741329040402 119.850646834754
-86.0152771775793 53.8644152086541 118.656189043005
-85.7248947488147 54.3379652806721 120.266714780955
-98.3885242968106 43.1439193493706 120.173839416729
-96.7623821060845 44.9258550169961 117.414921041037
-91.4454373137539 44.2619434989043 120.71177065753
-98.2945610532036 44.4987745749631 120.78937512768
-100.7751175982 41.8023487422203 114.552544337668
-99.7565316891908 42.9963534768997 114.948329030823
-98.8520947639545 44.4322178893055 116.240991147344
-109.046549422569 40.153216891408 120.179878418245
-104.782561422716 45.6128482552292 116.088197631757
-104.087878367159 44.5600532223038 120.170299634609
-108.122804891508 42.9121742940478 114.560844650636
-106.876524012503 44.351354173511 114.889652987857
-107.379382288508 44.8552736232978 120.187852243949
-93.5463587128473 48.7248676790286 118.030946638661
-94.5507163654046 48.3881873664255 120.870665950302
-101.944654570812 45.6948136557872 120.893078637108
-92.7387248904793 50.4824090660436 119.839387206474
-94.1071361700512 49.5841569493262 118.683374582777
-94.3975763670405 49.5231413995556 120.189981300879
-99.9924967851223 46.1264693753998 117.996125005883
-101.75603284476 49.6288838687391 120.855941832752
-96.7334184261842 50.275172891838 118.254803314047
-96.4592671784281 50.9039929682465 119.358542244945
-96.2786226168764 50.1241396094113 120.632587117915
-100.856297177895 49.1936109739839 118.006565180276
-104.900113019425 46.8371533090701 117.864946996209
-100.381275820622 50.2349236695047 118.889225263732
-100.269094917334 50.0279118476786 120.230142367077
-110.470042099122 46.489051035791 120.911432727204
-109.455666511257 47.8728433451307 118.015496531454
-102.708088430488 51.1836173962357 119.910506248082
-102.951072557635 50.7959823506763 118.341248453765
-107.174881950517 51.8804493834348 119.460012186688
-107.533809464848 51.4757682855255 118.535512236216
-107.279735443465 51.5243327374493 120.297612483391
-108.657622216455 33.2261187773321 116.407060060546
-109.890942551267 33.9638783363974 117.949407650124
-109.186646486587 36.9801218262639 116.281044651686
-109.817433055097 41.2278377061052 115.480535542556
-110.193616340606 37.0357110003126 117.693357635322
-109.62653222967 36.8510668800097 120.8497085359
-112.282892465105 32.3834356214977 118.182931124101
-112.269455793916 35.2031277406088 120.881664596946
-112.84360842937 30.9205883944284 119.08875734878
-112.67168442284 35.2093678225481 118.035196667503
-113.041184842757 32.6616907483036 119.936159938747
-111.963217799984 39.8492480860568 118.022775460759
-110.76457676398 39.7666184142804 120.898991603557
-113.247518699465 33.814476886798 120.4648644784
-109.499857020393 44.2616689414848 115.598924122385
-109.081113067904 43.7254238287171 120.191055863279
-111.404634701955 41.3026885799748 117.461612464536
-111.366501726899 43.7927703118368 117.555970211333
-110.359175123141 45.9536905604176 117.766339619106
-112.420987401977 45.7823996837742 118.002229628109
-115.462993782112 46.434879292957 120.861328286445
-113.743947848329 33.9383840661981 119.080444905894
-114.02657051672 35.8570901425685 118.863941156714
-114.995292572573 37.7640879770785 118.416784300744
-114.082217866436 37.0167747799956 120.670064950039
-115.152240863112 37.236093635186 119.894228894563
-115.645778181389 41.1059765873083 118.023417865533
-115.712559940158 41.4207143290338 120.865715189296
-116.235523644332 40.2585125049069 118.633983119641
-116.236438230043 39.743582976304 119.925897516704
-117.092709216355 41.9660676489635 118.901477423734
-115.424789631291 47.0743966117359 118.066437503187
-116.771538950449 42.1883703954597 120.206352394372
-116.26859955608 47.0240436704365 118.564558554474
-116.900285705922 43.5316845020224 119.523700462313
-108.324850225958 46.6185968566753 117.511816889662
-109.282906185399 51.0328322250356 120.834619273368
-112.464029594625 48.9506906428982 118.001679687021
-108.476293080047 45.2707937911413 120.794532006907
-112.367949369162 49.8468745641584 120.843487053043
-109.845664983842 51.0375140586389 118.096538806667
-109.174789098602 52.295560149577 118.595602760543
-108.866790128886 52.3048024574635 119.945264042319
-112.412986882407 50.7125109151733 118.346734885751
-110.741347678646 51.5394024319066 119.833339126186
-113.379406450813 49.9599958071812 118.499882076941
-113.349830239215 50.3300033146739 119.866959444241
-114.791068845606 48.8021634397289 120.567705105615
-114.86795084551 48.963977225834 118.331681760177
-116.669409911592 46.4550767440605 119.7141945294
-115.185448959732 49.1987585512916 119.387798877237
3 0 2 1
3 0 4 3
3 0 1 4
3 4 5 3
3 0 6 2
3 0 3 6
3 6 3 7
3 6 8 2
3 3 5 7
3 7 5 9
3 1 11 10
3 1 2 11
3 10 12 13
3 1 10 13
3 13 12 14
3 10 15 12
3 11 15 10
3 2 8 11
3 11 8 15
3 4 16 5
3 16 17 18
3 5 18 9
3 5 16 18
3 4 1 13
3 16 13 17
3 4 13 16
3 12 19 14
3 12 15 19
3 17 13 19
3 17 19 18
3 14 19 13
3 20 21 8
3 20 7 22
3 6 20 8
3 6 7 20
3 7 9 23
3 8 21 25
3 25 26 8
3 15 26 27
3 8 26 15
3 15 27 19
3 7 23 22
3 18 29 28
3 9 28 23
3 9 18 28
3 19 27 30
3 18 30 29
3 18 19 30
3 20 22 31
3 20 32 21
3 20 33 32
3 20 31 33
3 22 24 31
3 33 34 35
3 34 37 36
3 35 34 36
3 38 36 39
3 35 36 38
3 36 40 39
3 36 42 41
3 37 42 36
3 36 41 43
3 36 43 40
3 21 32 45
3 26 46 27
3 25 48 26
3 26 48 46
3 32 33 49
3 43 44 50
3 33 35 51
3 35 52 51
3 35 38 52
3 21 45 47
3 52 38 53
3 40 43 54
3 28 29 55
3 29 30 56
3 41 57 43
3 43 58 44
3 24 60 31
3 31 60 33
3 57 58 43
3 42 61 41
3 41 61 57
3 55 29 63
3 29 56 63
3 37 64 42
3 33 65 34
3 60 65 33
3 65 66 34
3 34 64 37
3 57 67 58
3 64 68 42
3 61 69 57
3 67 59 58
3 25 21 47
3 25 47 71
3 25 71 48
3 49 33 51
3 39 40 72
3 32 49 45
3 38 39 53
3 39 72 53
3 43 50 73
3 54 43 73
3 46 74 27
3 40 54 72
3 75 77 76
3 76 80 79
3 76 77 80
3 75 81 78
3 75 82 81
3 75 76 82
3 81 83 78
3 75 48 77
3 75 78 48
3 48 84 77
3 48 78 46
3 77 84 80
3 78 85 46
3 78 83 85
3 79 87 86
3 76 86 82
3 76 79 86
3 80 88 79
3 80 84 88
3 79 89 87
3 79 88 89
3 81 82 90
3 82 86 90
3 85 83 74
3 81 90 91
3 90 86 91
3 81 91 74
3 83 81 74
3 91 86 92
3 87 89 86
3 89 92 86
3 71 47 84
3 84 47 93
3 48 71 84
3 46 85 74
3 88 93 94
3 84 93 88
3 88 94 89
3 93 95 94
3 89 94 96
3 89 97 92
3 89 96 97
3 98 99 100
3 98 102 101
3 98 103 102
3 98 45 103
3 101 99 98
3 45 49 103
3 103 49 104
3 101 102 105
3 102 106 105
3 103 106 102
3 49 51 107
3 51 108 107
3 51 109 108
3 109 110 108
3 109 111 110
3 53 72 112
3 51 53 112
3 52 53 51
3 72 54 112
3 51 112 109
3 54 73 112
3 73 113 112
3 109 112 114
3 112 113 114
3 109 114 111
3 47 45 98
3 107 108 116
3 108 115 116
3 47 98 93
3 93 100 95
3 98 100 93
3 94 95 96
3 95 117 96
3 99 118 95
3 99 101 118
3 100 99 95
3 49 107 104
3 101 105 118
3 95 118 117
3 110 115 108
3 115 119 116
3 103 104 106
3 107 116 104
3 104 120 106
3 104 116 120
3 106 121 105
3 106 120 121
3 118 105 122
3 117 118 123
3 120 116 119
3 105 121 122
3 122 123 118
3 120 124 121
3 120 125 124
3 120 126 125
3 121 128 127
3 124 128 121
3 121 127 122
3 120 129 126
3 120 119 129
3 127 130 122
3 115 110 131
3 111 132 110
3 131 129 115
3 115 129 119
3 110 133 131
3 110 132 133
3 122 130 123
3 30 27 74
3 44 135 50
3 30 74 136
3 97 96 137
3 92 97 137
3 111 114 138
3 138 114 139
3 111 138 140
3 138 139 140
3 111 140 132
3 132 134 133
3 117 123 96
3 50 135 73
3 139 114 142
3 73 144 113
3 113 145 114
3 142 114 143
3 142 143 146
3 139 142 140
3 132 147 141
3 123 148 96
3 140 147 132
3 142 146 140
3 140 146 147
3 96 148 149
3 74 91 136
3 91 92 136
3 137 96 150
3 143 114 151
3 143 151 147
3 143 147 146
3 135 144 73
3 151 114 153
3 114 145 153
3 151 153 152
3 151 152 147
3 152 154 147
3 155 157 156
3 155 159 158
3 155 156 159
3 156 161 160
3 157 161 156
3 155 162 157
3 155 158 162
3 161 163 160
3 164 167 165
3 164 166 167
3 168 157 162
3 168 169 157
3 168 162 170
3 169 171 161
3 169 161 157
3 169 172 171
3 168 172 169
3 167 168 173
3 167 172 168
3 168 170 173
3 172 174 171
3 161 171 163
3 167 173 165
3 172 166 174
3 167 166 172
3 166 177 174
3 174 176 171
3 170 175 173
3 125 159 128
3 125 126 180
3 128 181 127
3 124 125 128
3 125 158 159
3 125 180 158
3 128 156 181
3 159 156 128
3 126 182 180
3 126 129 182
3 180 182 158
3 181 130 127
3 181 160 130
3 156 160 181
3 158 183 162
3 158 178 183
3 163 184 160
3 158 182 178
3 160 184 130
3 130 186 185
3 130 184 186
3 131 182 129
3 131 133 187
3 133 134 187
3 131 187 179
3 131 179 182
3 182 179 178
3 130 185 123
3 179 183 178
3 179 188 183
3 188 190 189
3 189 191 188
3 188 191 183
3 162 183 170
3 170 183 175
3 171 176 163
3 163 176 184
3 184 176 186
3 175 183 191
3 176 192 186
3 187 190 179
3 187 193 190
3 188 179 190
3 187 134 193
3 190 193 194
3 186 195 185
3 186 192 195
3 195 192 196
3 165 173 197
3 165 198 164
3 165 197 198
3 166 199 177
3 164 199 166
3 164 198 199
3 198 197 200
3 199 200 177
3 198 200 199
3 173 201 197
3 174 177 176
3 197 202 200
3 177 200 203
3 202 203 200
3 177 203 204
3 191 189 205
3 173 175 201
3 175 191 206
3 175 206 201
3 177 207 176
3 191 205 206
3 192 176 208
3 176 207 209
3 197 201 202
3 177 204 207
3 202 210 203
3 202 201 210
3 210 204 203
3 201 211 210
3 210 211 212
3 207 204 213
3 210 213 204
3 210 212 213
3 190 194 189
3 189 194 205
3 194 215 214
3 194 214 205
3 208 176 209
3 192 208 196
3 208 216 196
3 205 214 206
3 208 209 216
3 211 218 212
3 213 218 207
3 212 218 213
3 201 217 211
3 206 219 201
3 201 219 217
3 218 220 207
3 211 217 218
3 134 132 141
3 123 185 148
3 134 141 193
3 141 221 193
3 193 221 194
3 221 215 194
3 185 195 222
3 221 224 215
3 148 185 222
3 215 226 223
3 215 224 226
3 148 222 227
3 222 225 227
3 141 229 221
3 221 229 224
3 224 229 230
3 226 231 223
3 224 231 226
3 224 230 231
3 214 215 233
3 215 223 233
3 214 234 206
3 206 234 219
3 214 233 234
3 196 216 195
3 209 207 235
3 217 236 218
3 218 236 220
3 207 220 235
3 217 237 236
3 219 237 217
3 236 237 235
3 235 220 236
3 223 234 233
3 195 225 222
3 195 216 225
3 216 238 225
3 234 239 219
3 216 209 238
3 239 240 219
3 237 240 241
3 219 240 237
3 209 235 241
3 237 241 235
3 209 241 242
3 223 243 234
3 223 231 243
3 225 238 227
3 234 243 239
3 243 231 239
3 209 242 238
3 240 244 241
3 239 244 240
3 242 241 245
3 241 244 245
3 238 242 245
3 231 246 239
3 148 227 232
3 238 247 227
3 239 248 244
3 244 249 245
3 238 245 250
3 245 249 250
3 239 246 248
3 244 248 249
3 238 250 247
3 248 251 249
3 248 252 251
3 248 246 252
3 250 249 247
3 141 147 228
3 141 228 229
3 230 253 254
3 229 253 230
3 229 228 253
3 148 232 149
3 228 255 253
3 228 147 256
3 256 257 228
3 230 254 231
3 231 254 259
3 232 227 260
3 231 259 246
3 227 247 262
3 259 263 246
3 227 262 261
3 227 261 260
3 249 251 247
3 252 246 264
3 264 265 252
3 265 251 252
3 265 247 251
3 262 247 265
3 246 266 264
3 264 267 265
3 264 266 267
3 253 255 268
3 253 263 254
3 253 268 263
3 232 260 149
3 149 260 261
3 259 254 263
3 262 269 261
3 246 270 266
3 246 263 270
3 265 272 262
3 265 271 272
3 267 271 265
3 266 273 267
3 262 272 269
3 273 274 271
3 267 273 271
3 266 270 273
3 270 275 273
3 273 276 274
3 272 274 269
3 272 271 274
3 275 277 276
3 273 275 276
3 277 274 276
3 277 269 274
3 268 278 263
3 255 279 268
3 268 279 280
3 280 278 268
3 149 261 281
3 149 281 282
3 261 269 281
3 263 278 270
3 228 279 255
3 228 257 279
3 279 283 280
3 280 284 278
3 149 282 258
3 282 281 258
3 284 285 278
3 277 286 269
3 270 287 275
3 270 278 287
3 269 286 288
3 275 289 277
3 275 287 289
3 277 290 286
3 277 289 290
3 289 287 291
3 286 290 291
3 289 291 290
3 269 288 292
3 269 292 281
3 286 291 288
3 278 293 287
3 285 294 278
3 278 295 293
3 278 294 295
3 287 296 291
3 287 293 296
3 296 297 291
3 291 297 288
3 296 298 297
3 296 293 298
3 293 295 298
3 288 297 299
3 298 295 300
3 288 299 292
3 298 300 297
3 23 301 22
3 22 301 24
3 34 66 64
3 42 69 61
3 42 68 69
3 58 59 44
3 24 62 60
3 301 62 24
3 23 302 301
3 23 28 302
3 302 28 303
3 28 55 303
3 57 305 67
3 69 305 57
3 56 30 70
3 306 308 307
3 306 310 309
3 306 311 310
3 306 312 311
3 306 307 312
3 306 55 308
3 306 303 55
3 306 309 303
3 303 309 314
3 309 313 314
3 307 316 315
3 307 308 316
3 315 317 318
3 307 318 312
3 307 315 318
3 308 63 316
3 308 55 63
3 316 63 315
3 315 56 317
3 63 56 315
3 56 319 317
3 309 310 313
3 310 321 313
3 311 322 321
3 311 320 322
3 310 311 321
3 318 317 323
3 311 318 320
3 312 318 311
3 317 324 323
3 319 324 317
3 320 318 324
3 323 324 318
3 320 324 322
3 302 303 301
3 301 303 314
3 301 314 313
3 301 313 62
3 313 325 62
3 321 322 325
3 321 325 313
3 325 322 326
3 324 319 304
3 319 56 304
3 322 327 326
3 322 324 328
3 324 304 328
3 322 328 327
3 62 325 60
3 325 329 65
3 325 326 329
3 60 325 65
3 326 330 329
3 65 331 66
3 66 331 332
3 66 332 64
3 332 331 333
3 64 334 68
3 68 334 69
3 69 334 305
3 64 332 334
3 332 333 335
3 332 335 334
3 334 335 336
3 305 334 336
3 56 70 304
3 328 337 327
3 304 337 328
3 304 70 337
3 326 338 330
3 67 305 339
3 305 336 339
3 333 331 340
3 331 65 340
3 329 341 65
3 340 65 341
3 333 342 335
3 333 340 343
3 30 136 70
3 44 59 135
3 150 96 345
3 152 153 346
3 145 113 347
3 144 347 113
3 152 346 154
3 346 348 154
3 154 348 147
3 346 153 349
3 349 153 350
3 346 349 348
3 349 350 348
3 348 352 147
3 149 351 96
3 149 353 351
3 70 136 344
3 136 92 355
3 92 137 355
3 350 153 357
3 350 357 352
3 350 352 348
3 357 153 358
3 96 351 356
3 357 358 359
3 356 351 360
3 357 359 352
3 352 359 354
3 327 338 326
3 330 362 329
3 329 362 341
3 342 364 335
3 336 335 364
3 339 336 363
3 333 343 342
3 363 144 339
3 67 339 144
3 336 364 363
3 337 365 327
3 327 365 338
3 338 362 330
3 59 67 135
3 67 144 135
3 366 368 367
3 367 371 370
3 367 368 371
3 366 372 369
3 366 373 372
3 366 367 373
3 366 344 368
3 366 369 344
3 344 369 374
3 368 355 371
3 368 344 355
3 367 375 373
3 367 370 375
3 371 376 370
3 371 355 376
3 372 377 369
3 372 375 378
3 373 375 372
3 369 377 379
3 369 379 374
3 372 378 380
3 377 372 380
3 377 70 379
3 377 380 70
3 380 378 381
3 375 370 382
3 376 383 370
3 370 383 382
3 382 383 375
3 378 375 381
3 383 381 375
3 344 374 70
3 136 355 344
3 376 137 150
3 355 137 376
3 96 356 345
3 374 379 70
3 380 365 337
3 70 380 337
3 380 381 365
3 376 150 383
3 383 150 345
3 383 345 381
3 365 381 384
3 345 384 381
3 385 343 386
3 385 386 358
3 343 340 386
3 358 153 385
3 145 347 153
3 363 347 144
3 343 364 342
3 385 364 343
3 385 153 364
3 364 347 363
3 364 153 347
3 338 365 362
3 362 365 388
3 386 340 389
3 345 356 384
3 365 384 388
3 356 388 384
3 360 390 356
3 360 387 390
3 356 391 388
3 356 390 391
3 340 341 392
3 390 393 391
3 358 386 395
3 359 358 394
3 358 395 394
3 359 394 396
3 394 397 396
3 395 389 397
3 394 395 397
3 397 389 398
3 360 351 387
3 351 361 399
3 399 361 400
3 386 389 395
3 389 401 398
3 387 403 390
3 387 399 403
3 387 351 399
3 399 404 403
3 340 405 389
3 389 405 402
3 340 392 405
3 390 403 393
3 403 406 393
3 405 406 402
3 406 403 402
3 402 403 404
3 402 404 401
3 389 402 401
3 399 407 404
3 398 401 408
3 399 409 407
3 401 407 410
3 401 404 407
3 401 410 408
3 407 409 410
3 388 411 362
3 388 391 412
3 362 411 341
3 341 411 392
3 391 393 412
3 392 411 413
3 388 412 411
3 413 412 393
3 413 411 412
3 405 392 406
3 406 413 393
3 406 392 413
3 147 352 256
3 414 149 415
3 149 258 415
3 149 414 353
3 352 354 256
3 257 256 416
3 256 418 416
3 416 418 419
3 418 420 419
3 414 417 353
3 257 283 279
3 280 283 422
3 422 423 280
3 280 423 284
3 281 424 258
3 284 423 285
3 281 426 424
3 257 416 283
3 422 427 423
3 258 424 415
3 415 424 428
3 285 429 425
3 423 430 285
3 424 426 428
3 423 427 430
3 285 430 429
3 285 425 294
3 281 292 426
3 292 432 426
3 295 294 433
3 299 297 435
3 300 435 297
3 436 435 300
3 295 436 300
3 299 435 292
3 294 437 433
3 437 434 432
3 432 292 437
3 433 437 436
3 295 433 436
3 437 435 436
3 437 292 435
3 425 438 294
3 425 439 438
3 294 438 437
3 439 440 438
3 426 432 440
3 440 434 438
3 432 434 440
3 437 438 434
3 439 442 441
3 425 442 439
3 439 441 440
3 283 419 422
3 283 416 419
3 419 443 422
3 422 443 427
3 419 444 443
3 415 428 414
3 428 445 414
3 414 445 417
3 427 443 446
3 428 426 431
3 427 446 430
3 428 431 445
3 430 448 429
3 431 426 449
3 445 431 447
3 448 450 429
3 419 421 444
3 444 421 452
3 417 453 353
3 443 444 446
3 445 447 417
3 444 452 446
3 446 454 430
3 430 454 448
3 455 451 450
3 455 431 451
3 450 456 455
3 448 456 450
3 448 454 456
3 431 458 447
3 431 455 458
3 458 455 456
3 456 457 458
3 454 457 456
3 425 459 442
3 425 429 459
3 426 440 449
3 442 460 441
3 440 441 449
3 442 459 460
3 449 441 460
3 429 461 459
3 449 462 431
3 450 451 461
3 429 450 461
3 431 462 451
3 461 451 462
3 461 462 459
3 462 460 459
3 449 460 462
3 351 353 463
3 351 463 361
3 419 420 421
3 420 464 421
3 465 353 453
3 353 465 463
3 465 466 463
3 418 468 420
3 256 467 418
3 420 468 469
3 420 469 464
3 256 354 467
3 418 467 468
3 361 463 472
3 467 473 468
3 469 468 471
3 467 354 473
3 468 473 474
3 468 474 471
3 361 472 470
3 470 472 475
3 446 476 454
3 417 447 453
3 446 452 476
3 465 453 466
3 466 453 478
3 453 477 478
3 453 447 477
3 454 476 457
3 457 479 458
3 458 479 447
3 457 480 479
3 476 480 457
3 447 479 481
3 447 481 477
3 479 480 481
3 421 464 452
3 464 482 452
3 482 476 452
3 477 483 478
3 476 484 480
3 480 485 481
3 477 481 486
3 480 484 485
3 477 486 483
3 485 486 481
3 476 487 484
3 464 488 482
3 469 488 464
3 466 478 463
3 482 487 476
3 463 478 472
3 484 489 485
3 487 489 484
3 485 490 486
3 486 490 483
3 485 489 490
3 469 471 488
3 472 478 491
3 488 492 482
3 482 492 487
3 489 494 493
3 487 494 489
3 483 490 493
3 489 493 490
3 494 495 493
3 494 496 495
3 483 493 497
3 493 495 497
3 359 396 354
3 397 398 498
3 498 398 499
3 396 397 500
3 397 498 500
3 396 501 354
3 498 502 500
3 498 499 502
3 361 503 400
3 398 408 499
3 408 504 499
3 399 505 409
3 408 410 506
3 408 506 504
3 504 507 499
3 506 508 504
3 506 410 508
3 409 508 410
3 409 505 508
3 400 503 399
3 399 503 505
3 361 470 503
3 499 509 502
3 503 510 505
3 505 511 508
3 499 507 509
3 396 500 501
3 354 501 473
3 473 512 474
3 470 475 513
3 500 502 514
3 500 514 501
3 502 509 514
3 501 512 473
3 501 515 512
3 501 514 515
3 512 515 516
3 514 509 515
3 503 470 510
3 470 491 510
3 470 513 491
3 509 517 515
3 510 491 518
3 504 519 507
3 504 508 519
3 507 519 520
3 508 511 519
3 507 520 521
3 519 522 520
3 519 511 522
3 511 505 522
3 520 523 521
3 522 523 520
3 507 524 509
3 507 521 524
3 505 525 522
3 505 510 525
3 521 527 526
3 521 523 527
3 524 521 526
3 522 527 523
3 522 525 527
3 526 527 528
3 509 524 517
3 510 518 525
3 517 524 529
3 524 526 528
3 528 527 530
3 525 530 527
3 528 532 531
3 524 528 531
3 524 531 529
3 525 518 530
3 532 528 530
3 471 474 533
3 471 533 488
3 474 512 533
3 472 491 475
3 478 534 491
3 488 533 492
3 492 535 487
3 475 536 513
3 475 491 536
3 491 534 537
3 487 538 494
3 478 483 534
3 487 535 538
3 494 538 496
3 483 497 534
3 538 539 496
3 496 539 495
3 497 540 534
3 495 540 497
3 495 539 540
3 512 516 533
3 536 491 513
3 533 516 492
3 516 535 492
3 516 517 535
3 515 517 516
3 491 537 518
3 517 529 535
3 538 535 541
3 538 542 539
3 542 540 539
3 542 534 540
3 537 534 542
3 535 543 541
3 543 544 541
3 538 541 542
3 537 542 544
3 542 541 544
3 518 537 545
3 529 546 535
3 531 532 547
3 532 530 547
3 518 547 530
3 529 548 546
3 529 531 548
3 518 545 547
3 548 547 545
3 548 531 547
3 543 548 544
3 543 546 548
3 535 546 543
3 544 545 537
3 544 548 545
