ply
format ascii 1.0
comment Exported by Aspose.3D 22.3
element vertex 423
property float x
property float y
property float z
element face 846
property list uchar int vertex_index
end_header
4.65792746484132 2.71324686179936 -1.16037617716634
4.36167390437676 1.69334562922236 -1.06650927426455
4.1628065269821 2.34951069671902 -2.23363036139023
4.13469330006791 3.6460451814385 -2.33087565993483
4.66143158054391 3.70316794949523 -1.05445333070081
4.82072867315607 2.6219718026158 0.172485760773183
4.43182048293345 1.49937612580389 0.177943596340619
4.78166872593194 3.13908092137377 -0.365509054188551
4.46824842249493 3.28231331169302 -0.510388879807068
5.4416471820568 4.64488584171701 -0.338076899793199
4.38975825401223 3.7708371024636 -0.546756730951559
4.51004799144607 3.7920677696176 0.000701625063501687
4.86444569083518 3.28087666354885 0.214221359408949
4.27952186028208 2.85636801364002 0.146477172074724
4.74963364063147 3.76275552665198 -0.2086025875899
4.76963774641801 3.93803005768912 0.440378012430382
4.35017733562564 3.92606932004797 0.195591776189608
3.69572662278189 1.28827644858421 -2.04276129972365
2.99630172959729 1.15185857066263 -2.82568149498891
2.11491147244465 1.2653302716065 -3.5854702440017
1.86448619028752 0.661322996176764 -3.07980177957283
2.88379350969336 0.550024473390536 -1.98115928207899
1.57473475559017 0.214378731175866 -2.40270707855578
3.36129949846203 2.33228196275375 -3.26553507521831
2.41899038832752 2.17990655682067 -3.93418492229979
3.37688774980752 3.79754017585905 -3.284319188287
2.4584224464786 3.15480456028837 -4.05325166589422
1.21446794781637 2.09322079330731 -4.4142941686992
1.10693219049515 1.23786409264278 -3.97936072910032
1.32404287159136 2.75020100375987 -4.53723275878901
2.33564120134606 3.84017826223806 -4.02780574963281
3.70370817411708 0.749419972745628 -0.840231529923297
3.63186615996459 0.59041131277317 0.141254914974306
2.80861817534279 0.208747513500439 -0.864007038068817
1.877612082649 -0.105792847036027 -1.87609621196313
2.38307980894116 -0.122503619132108 -1.24837973696557
2.26086645829748 0.204719729275251 -1.76856869939335
1.40510338378614 -0.141938397300847 -1.71196371108846
2.66640377923045 -0.122625379697743 -0.526950690201629
2.94602385446235 0.212056851444753 0.560269188005452
2.69081635470195 -0.130075812883285 0.865919571043452
2.22553843815339 -0.127111949182711 0.609701180042919
1.50471998686591 3.35367502439232E-05 -0.884590988633525
1.87327391744131 0.00450220101213245 0.0271849520138272
3.81830623077197 2.94054792038856 -1.00812397703881
4.10791205006822 3.23903120175051 -0.951404414628681
3.69234789678876 3.48490623258458 -1.39506139189061
4.0588216079195 3.88372745321511 -0.874214518789531
3.56683132148752 4.46251744961634 -1.34527190739877
3.63900401011813 3.32524300790944 -1.31438745435423
3.25552796137683 4.14487628985253 -1.45580040255816
4.01687785263463 2.66625304564206 -0.618557699493699
4.04742400409732 2.56390248075619 0.136352967570251
3.37353353512171 4.16362526331562 1.69312603959038
4.26603465995816 3.98586731969717 -0.885621763247366
4.36251065083346 3.76310128570778 -0.431199608994609
4.16278009473884 3.86392860288041 0.165502609405556
0.405740749029493 0.472974421672276 -3.34433480750234
-0.044123680370483 1.02033410162529 -3.95915014514986
1.04723259213824 -0.131017468795708 -2.41733616952958
0.611983892743453 0.190820884426792 -2.7580782091485
-0.0656583252277674 1.66883183403482 -4.39180605514019
-1.15402307315906 1.14036282554379 -3.92465467281367
-0.697746729711384 -0.0955903093906132 -2.6206913165526
-1.8342462787993 -0.129463883891252 -2.0230457158533
-1.51464126931417 0.568332605206145 -3.16414769532808
-0.90811377172826 0.217334707825358 -2.72915639690216
1.24727072718908 4.07727130981456 -4.41022129769601
-0.00473635898197911 3.80620644931841 -4.65414049031106
-0.0448557164843848 2.74820098893961 -4.72174994025577
-1.29538801843611 2.11737977228736 -4.39482132545499
-1.29004230489676 3.26283586693278 -4.57207786818887
0.940997848698669 0.00157215325985403 -1.42815390809989
-1.24071057837363 0.0024267255819322 1.68907586112302
1.19218527795997 0.00543520272333783 1.76195248949559
-0.641126817187098 -0.135941696459318 -2.05944327445423
-0.882106110175579 0.00666414196852735 -1.67133714068411
6.56058939118243 6.36420203835466 -0.326455734335267
6.11404993468132 6.28298237172499 -0.77569531821097
6.58265176028807 6.25659440097117 0.258785749779942
6.07952935695843 6.05187734093789 -0.251439388209791
5.9673423253185 5.346222116945 0.247946515852964
5.95711320447601 6.01859138947829 0.392063412624825
6.25859322277707 6.40266453416613 -0.0731809412248905
5.27442396624142 4.88562245102271 -0.786217909839737
5.67453319943342 6.15597106993112 -0.569314949120629
5.30522917852514 5.66554225155616 -0.863372886340413
5.0449278456139 5.49237793027521 -0.637531665486689
5.28550129245762 4.87351361373054 0.0513439325124598
5.1443301927799 4.93676995713565 -0.476483032466024
4.25189145539573 4.51153299568882 -1.42675009817233
4.85627209702527 5.3327985812839 -1.04351817430036
4.33259872237575 4.71169797762247 -1.04792899037913
4.9280402773928 5.24224010060608 -0.756506879203337
5.34479265071701 4.60525194968899 0.560292219686598
4.58313615114354 4.21521034709102 -0.760389914117763
4.22336743309844 4.3569097755826 -0.887646522674291
4.33161761914894 4.34161979957999 -0.409509275289647
4.3674914973639 4.04646502865804 -0.145770811818958
4.53820767427949 4.3573380792932 0.837974588891287
5.32948475145371 6.44541567961748 -0.645313452829035
4.82912512136312 5.95443119891602 -0.66043460375403
4.86695143360402 5.90720130713657 -0.133841395680907
4.61833024331042 5.70761323747436 0.0429989358829435
4.05112082290129 5.22449691487989 -0.913720082428997
4.28800947327202 5.78485203849592 -0.607674412197667
3.65415156465025 5.63816525008946 -0.969224479972702
3.80068446461329 5.55126962358162 -0.312591698326383
4.46433684472673 5.95405452302852 0.0507045266001427
5.00793911979548 6.41898644174067 -0.0103794284325964
5.49642042790862 6.27504838901675 -0.326996146448945
5.45057494225903 6.28132982030568 0.335860351438953
5.27255782626349 6.41428359965117 0.635642434392309
3.75829549971698 4.86014256984288 -2.09729098459758
3.05777358925813 4.81292920150833 -3.01049187964071
2.08210013052907 5.07665548821308 -3.56970073053743
2.38596186337789 6.01274105182914 -2.30066861944672
1.7808299826035 6.02855623571766 -2.7201601548107
1.81887967206315 6.47654222977835 -2.51307346113486
3.47424972559555 4.98837407479473 -0.748161651220855
3.88019090379959 5.14371016904749 -1.35249087392401
3.94983861363511 4.66512363594798 -0.8622496126367
3.04302791997658 4.68353491731164 -1.48745865681295
2.85034097920046 6.03854960192884 -1.63312968175262
3.64964057770889 5.1182617058263 -0.797623937368927
3.07682358225219 6.04256626411726 -1.10654195852918
3.97216271950271 4.99221540195441 -0.817662426996461
2.72849927068481 5.47110761111247 0.650763310739066
3.83163215246736 5.38575069677373 -0.623140889084344
3.40122291710858 5.95551612524511 -0.262175677432275
3.83648701578085 5.59712019796682 0.506276487015276
3.40102655611469 5.17268351186385 0.144056322711416
3.36818722184396 5.90404583262089 0.851435130066871
3.50531295185678 5.33744957023016 -0.497659754842751
2.89424605274641 5.36231898136477 -1.01177686280145
3.23034970705547 6.44907947243552 -0.19909551400883
2.71633302623625 5.36967381580893 -0.870975415567831
2.6276683770628 6.4645240053134 -1.72799298773435
2.94056156096966 6.4359680907489 -1.1832853618508
2.29120320886456 6.44796151154907 -2.18258348035594
2.60649287355246 5.7169198488076 -0.464233358804714
2.71019934759911 5.73589429733917 0.48913029982617
2.521285155374 5.90296325528098 0.244936997268983
2.29930627826604 6.6930509060854 -0.0201753329276286
1.25886286771185 6.76840876552878 -1.38910092785795
1.11910178609151 5.20156021921298 -3.84623161024615
1.03355695872251 6.02155751714108 -3.06481263579818
1.02206693031375 6.43747162598165 -2.95457088963146
-0.0238776940288972 6.03935592154615 -3.21614943877211
-0.0227829387946628 4.57036128950213 -4.40015239478628
-1.16742880236096 4.63070768119266 -4.24371045098904
-0.00572639818301468 5.54602575677194 -3.73280868651841
0.0499644624311344 6.43009350475652 -3.13848792948774
-0.970465846155403 5.99955162677971 -3.1382302269132
-1.32508861509427 6.41279366957081 -2.89768983104685
0.168693233759299 6.65336883829774 -2.29581882636739
0.834746950731427 6.88256759268162 -0.214798362590847
0.909032187903986 6.8381607773906 0.4152125058408
0.221205767436059 6.86035484915013 -0.779332765348145
0.575330294456465 7.0052458232997 -0.534628363938192
0.771644836841274 7.4603884286298 0.108721599071709
0.360483087340016 7.67376047897478 -0.267643049273918
-0.435989506861354 6.87772118392818 -0.734858000596581
-0.881377782976069 6.88292679322751 -0.24237793889192
-0.140923953429908 7.43830416583523 -0.652050687103275
-0.51054850224056 7.64243713251952 -0.293013544586804
-0.813688004553439 7.45346174485703 -0.00669508896163828
0.117656726749241 7.69876274505952 0.688223453738882
4.56275239448951 2.2522122352284 1.35497957066832
4.25524251844088 1.47636774828067 1.31366395539151
4.68504952348004 3.05651171793557 1.42950592942078
4.77948695828483 3.45450890126825 0.728009265425072
4.38788203585246 3.7423168270501 0.770286608996992
4.61428323496731 4.00523010368978 1.24990775875456
4.20574549408668 2.72738684902554 2.5515400845763
4.11572957335679 4.10989044152059 2.45256468613784
3.61722596682754 0.686256332975049 1.10065995418524
3.38038502941458 0.771141850338736 1.97112191911499
2.60137730175983 0.21305546131671 1.61200381748138
3.81185086182269 1.54098869196817 2.44967068303488
3.03452121486559 1.31393800590638 3.2145685006235
2.58011324128778 0.642718548477326 2.79313543992313
2.34144266321541 -0.0783133196669921 1.75747370985831
1.44834503414151 -0.117491731575858 2.54836309905064
0.711303410103236 -0.131293271140478 2.82756752674812
1.66306026858492 0.210346781928852 2.61393287515914
3.9717344745063 2.81364106631368 0.808260720295431
4.0783091946105 3.92893819350575 1.13640087292604
4.03927656817181 3.57337624217179 1.26526726084034
3.71515710931252 3.40188470704257 1.35337645146243
1.8563056945905 0.670750158193513 3.37617017948318
2.21877195791823 1.4980435280158 4.00235044671867
3.36367157305523 2.49047447380823 3.60046733860289
2.45800015858729 2.80318484292857 4.34388685721371
3.43503787403929 3.85841329853257 3.46591396438168
1.22366351162761 2.11592516790986 4.70403075029463
2.30791728742554 3.88878844712301 4.31049319103912
1.30524379683897 2.95565479534733 4.82773433249299
0.412250183652237 -0.135312085911191 2.44042011318012
-0.726749509112806 -0.120324343086777 2.87749693405909
0.735761850397759 0.199630419420992 3.01295935857598
0.422063377579454 0.438177496607651 3.5632832360828
1.06817494045487 1.12205583781655 4.19371680770615
0.0439454162069097 0.814103250753973 4.04626634389248
-0.803941998077137 0.197778092552588 3.02115012206347
-1.09250066376901 0.736165915351016 3.8343593180612
-0.0100490372391144 1.65789698836144 4.67796545475044
-1.28643251432605 1.59077043772257 4.44530325960864
0.00342714564074775 2.75270553092949 5.01444288511913
1.18482791075957 3.73154591866228 4.78492031067846
-0.0206154007340551 4.2044048301897 4.82641803407314
-1.2710467589292 2.9119755918895 4.84820290288792
-0.449748920266378 3.48856210761075 4.94650600615678
-1.25939811694267 3.75064311034085 4.81060888826034
6.04511461199187 5.91460398667457 0.675351213295425
5.24285944154311 5.08012701937361 0.447104080879809
5.91286703065647 6.38500796503793 0.79972037529821
5.72790374176601 6.26707496614423 0.493418773841203
5.09176887273165 5.31408950471927 1.00563814454739
4.74915286310398 4.71400368217074 0.843952941254248
5.06213442671718 5.56817311567955 0.658906322100387
4.31838507174101 4.07469547438678 0.474530625726292
4.19789913226253 4.33763891030783 1.12629025231549
4.37507620486448 4.45454720389495 1.4809458346026
4.25168571898319 5.07513663803863 1.11950744845978
3.82845198270439 5.27320616364484 1.52125817019219
5.34740344953248 5.77543690638204 0.888469507304014
4.68461129122369 5.76457096458194 0.823906538160291
3.86561249454466 5.45093874961879 0.869165243897216
3.88419257744703 4.77923035525955 1.1195231272443
3.51872238043334 4.38879362278956 1.61654567301131
3.34357178242195 5.11589340712643 1.03815746466354
3.61732807901662 5.06840703309669 1.07580409490814
2.98785523674191 4.97674948530055 1.57386263325791
3.1097286049275 5.02062167704769 1.56442915299523
3.71309797878909 5.29947046736642 0.806113071180731
3.54990769370563 5.71135056620668 1.14744817702109
3.54244300772146 5.38068634756048 0.609423973889264
2.82593896101959 5.57159771473012 0.906289975758084
3.12879215336294 6.38988522278443 1.11274021688364
3.49519376204051 5.30045176311592 2.225032914992
3.19159318934243 4.59693921820224 3.32055224952859
2.88539149150532 6.0435717069725 1.82935028510616
2.7711620076293 5.38116154383533 3.03534570163771
2.82175137769519 5.33466102537852 1.36602124730601
2.4040278772123 6.02927770099662 2.49523950695134
2.73084193938701 6.44957556085536 1.9005501661221
2.29088316969176 6.43802816915922 2.47059560082188
1.70113598615093 6.00322988504514 3.06642186825431
1.53945947734411 6.4286129969493 3.03632370434164
1.53674181557577 6.7045438089917 1.78332863836695
2.16896519511544 4.81875903248672 3.97965678773423
1.88080001699164 5.58006445614831 3.48300469620932
1.19100923292562 4.73300557835901 4.42748772116472
0.597624715241725 6.8917265481615 0.833176183450597
0.474370848214901 7.36270818031122 0.816370364520342
0.0544461078671645 6.88888699258219 1.08512726431671
0.404406272648544 6.68491063489162 2.50925407175816
-0.458325793674145 6.89832057820258 0.980731062559689
-0.516083684752235 7.421039215927 0.850961177317681
-1.51590371284414 6.58952166310208 2.61164640459555
1.02935872474484 5.3743809801237 4.02841448162559
0.549145875509694 6.02281426773681 3.50462961796817
0.591629685136093 6.44610629352013 3.39137428853733
0.0117144064892329 5.26671336202241 4.2774322842541
-1.2843113105983 5.99068837189164 3.33106548645209
-0.884300516231972 6.42524152575702 3.31699005744426
-1.16073628075422 4.88865994272109 4.38153070589155
-2.09560209096601 1.12853632489276 -3.50521949578155
-1.9962494091799 0.193956184671715 -2.07791934031521
-2.55478316600848 0.597913038269738 -2.49088074841586
-3.09674264721535 1.28038991638651 -2.89222021265644
-3.37970871000852 0.772955579180525 -1.79717864052884
-2.44101775285093 3.1599436316803 -4.12712490136453
-2.37352251493262 1.8278806871393 -3.83501298025443
-3.4109001821247 2.16536351861495 -3.18257027990033
-3.5004525855396 2.89757078250937 -3.29697100436941
-3.37826009508155 3.85504764616218 -3.28534113759031
-2.17858801997337 -0.137782543536228 -0.632611048018997
-2.78383494691383 -0.121175087190659 -0.349080533752384
-1.97629440419513 0.00261630050338482 -0.214059531135241
-2.61018722044161 0.205535996779648 -1.31340431727082
-2.47957889276534 -0.0563990918526693 -1.30467725778521
-3.61875494930428 0.669902064395764 -0.859127188108509
-2.96367154198384 0.198707662112583 -0.358903408214811
-4.10698279782326 1.92459694811441 -2.15146571043602
-4.16882507865477 3.81290264335176 -2.28299174828167
-4.27753313492309 2.97615343396803 -2.24791910221858
-4.4553295710085 1.60988637160835 -0.818409071847041
-4.22460873444556 1.23036862113168 -0.733315290712334
-3.65095271620196 0.577817191386956 0.0934644785847958
-4.12781653352792 0.986096850847737 0.224284985549894
-4.80191547122015 0.865429212900074 -0.119024450361613
-5.65094934362181 1.14341601285401 -0.708723167813343
-5.90213202389776 1.11073062853988 -0.528941296618351
-5.54105738621952 0.919487568117052 0.631400001502694
-4.71333830129549 2.6122484327819 -1.11660929806155
-4.66280846466911 3.7840016768573 -1.0704812215219
-4.7891078973267 1.51913121317002 -0.586830299477064
-4.84260759936616 2.464847887302 0.134528153272457
-4.60635627815593 1.74319766005367 0.0537068507803995
-5.27773860616915 1.65729219461801 0.237199401692036
-5.70226678592492 1.61885747003844 -0.634634478455045
-5.80149442994515 1.80444478516948 -0.121478201621619
-4.89757557313829 3.34912290818404 0.219464283418578
-4.74523457434037 4.11411625580865 0.158303708550771
-6.81073321473367 1.49997572945863 0.157650966392815
-6.88657975274015 1.77213359183426 -0.556088819503328
-6.75287863062543 2.46036682426738 -0.575698104614941
-7.26112198150165 2.5776009433777 -0.713909897973276
-6.53012863600682 2.41462177967566 0.202587006188876
-7.02347759915019 3.46002621492003 0.614596503262611
-7.43415301811145 2.39968980510561 -0.392870625981916
-7.10021920772081 2.9832758828081 -0.687083843050013
-7.62617408484943 2.74046926991687 0.358588077686989
-7.32726836946599 4.19466721392572 -0.724993910356214
-7.06524640082642 3.91360132300962 -0.0174445400238863
-7.7028406408955 3.73800395369095 -0.612012837732375
-7.82711211911426 3.42357749199571 -0.00878444397081601
-2.33713276729324 4.30184240429583 -3.90082876692543
-2.16576993390855 5.13219050514795 -3.4800714457196
-1.65766338770273 6.02188081119813 -2.83836391673319
-2.33346700273201 5.99412663530892 -2.37656394870415
-3.12661007091506 4.93116495659154 -2.92018971570636
-2.36443550633994 6.4334420385996 -2.18884876004225
-3.44843495492805 5.40449892214593 -1.93934726039744
-1.62126188020304 6.68899272874663 -1.50907864549447
-2.99693922208523 6.01266653417741 -1.50254803493203
-2.82520761588918 6.43262030537541 -1.54308581263882
-3.26363331417522 6.46360697825114 -0.480933535278887
-3.43105170808201 5.92856692658834 -0.346440279474869
-1.88425418101514 6.78791130984933 -0.168061480438114
-0.888814671758246 6.89051957829369 0.491269896384207
-3.92528428338935 4.6674383244885 -2.0911914217996
-4.44964395591066 4.4579371020547 -1.04669368824246
-3.89425646045999 5.4617654736103 -0.778502458754488
-4.05666860916496 5.2988231908915 -0.652527897797796
-4.19840833357127 5.23101732311473 -0.0964815022047842
-3.75022690016681 5.66186195527185 -0.627605956705949
-3.65407376878399 5.83896028960898 0.0954560345204247
-4.8018468063578 5.86293252248453 -0.639750518710342
-5.10445259148405 6.40721966044088 -0.680310307358936
-4.28604630436675 6.3121553363252 -0.29393221211506
-4.86283027074444 5.70232892314208 0.613219859864111
-6.05796476737817 6.20913657497359 -0.72445348431666
-5.71453436312145 5.93540594111281 -0.558164072622276
-5.74356961532063 5.80269961522369 0.192250191300711
-5.06340739758085 6.61170447040643 0.142947100097356
-6.23677505198599 6.47112366016023 -0.102081234637268
-5.9544205496175 6.54963895001763 0.443142475124695
-6.54275408511234 5.55411716933087 -0.695450531913962
-7.08470812290323 4.74049725352742 -0.663012941211036
-6.63438368308141 6.07037439842807 -0.5829349735127
-6.65229478634944 5.10743170045573 -0.0733832958952778
-6.18349601679958 5.67360993566687 0.75723519682446
-7.25087204604064 5.68778415546458 0.0144505976165092
-7.14579446662708 5.41790619999954 -0.658095106704548
-7.56689526474515 4.84836693317149 -0.490800336816768
-7.07710347950441 4.32822403339983 0.734382251010238
-7.77422937002979 4.50931958123675 0.153065745985884
-2.01184993527737 -0.144673180838651 1.40751396741262
-1.45815754850147 -0.127130883781864 2.53275611606269
-2.19236746713718 -0.105579067343688 1.97998749850602
-1.84994735557563 0.193011166072812 2.51230021096487
-2.66766850532987 -0.111799911519094 1.12565566476571
-2.68716963363305 0.189593138610302 1.5053583585491
-3.45171212331134 0.525729644119458 1.10596725067484
-1.90180010371383 0.593269169391654 3.28773365630565
-2.70059006196676 0.652638489419857 2.74727249504214
-3.22048925892147 0.622280356564218 1.99749917395854
-3.69958540533536 1.24414241949211 2.33974882643655
-2.15497027418529 1.25569434735826 3.86757563487421
-3.07122838275632 1.31617219495345 3.22969895813161
-1.40079232144994 2.17361563028112 4.66161726365707
-2.4542688373124 2.87471117758985 4.37230646776144
-3.3685988631757 2.12854081086736 3.50395480613169
-2.44659367040225 2.07957897537773 4.18598840659178
-3.5017054278423 2.94453278923327 3.57640947354864
-3.45028438223752 3.75524922268413 3.54997566565588
-2.45445383014366 3.79645810520644 4.30054025303149
-4.17348514589139 1.1802877613414 1.03714310169855
-4.6127103467772 1.13441134310465 1.02487329303172
-6.24826732920135 1.39852002369473 1.01178367592146
-5.30999861617519 1.48390365859578 0.96125408098372
-4.45011951704997 1.60066128163464 0.994940127589062
-4.0690197347537 1.90367754852717 2.44662053342037
-4.56379785305193 2.1416429914609 1.45117641804442
-4.23975141572936 2.72431032749502 2.55411160554244
-4.22439360490599 3.54496054279747 2.60181560100409
-4.67151610499447 3.81639769222258 1.3884742662108
-4.715638711595 2.96266709161397 1.48169876602331
-6.11104574408078 1.89026363110576 0.842601369697963
-6.47943259050689 1.92624344347169 1.02433702869155
-7.03877636890125 2.03263628668449 0.973533052604497
-6.81532416917282 2.65509131077708 0.784316846467302
-7.45386341717451 2.59512630319114 0.868803188647105
-7.36054336772325 3.11604037756885 1.0565664297001
-7.75121222392609 3.75167411642763 0.836048907114649
-3.16049967522829 6.00657060792405 1.50278040833633
-3.19288147326386 6.41987256459448 1.02430932026942
-2.42652428492661 5.99826161540945 2.57119314053974
-2.75375830016682 6.43661075242591 1.96316124347884
-1.7856551718589 6.38696095805967 2.94381640446533
-2.77911616738896 5.56122861710344 2.86526805875616
-3.52372475275297 5.36721851330913 2.16265660943463
-1.86041237505736 6.75046044275379 1.20365025514769
-2.05154893162222 5.38829076329534 3.62813922022647
-2.29232808510729 4.56941801489427 4.08148870033588
-3.12987647234725 4.76255395538453 3.33635848319781
-4.36498778256865 4.6402736100556 1.3593429329564
-4.11591261976442 5.24600950394641 0.799514784857087
-3.67172472391286 5.72525283842179 0.792750204466785
-3.85634767296304 5.50470081252944 1.08226676977896
-4.85980712489114 6.42297210227267 0.931080860221268
-4.74538538607669 6.03727593114384 1.04841453877665
-3.95407165173683 4.57180928612502 2.43046116906529
-5.61421893317909 5.94789375029552 0.858400560933546
-6.18943625911247 6.20971865757188 1.06192189555274
-6.63254971115953 5.74472393473481 1.06096587013164
-6.76079722135395 5.08464341059769 0.810987260207902
-7.00219003689664 5.83790913841301 0.823854938274689
-7.30801374306971 4.58337628009653 1.05725330274796
-7.48598537911754 4.8688331480557 0.96563062120893
3 0 2 3
3 0 3 4
3 1 0 5
3 1 5 6
3 0 4 7
3 0 7 5
3 7 4 9
3 8 11 10
3 7 12 5
3 19 18 20
3 22 20 21
3 18 21 20
3 23 2 18
3 2 17 18
3 23 3 2
3 25 23 26
3 23 25 3
3 27 24 19
3 25 26 30
3 29 26 24
3 24 23 18
3 18 19 24
3 24 26 23
3 17 31 21
3 31 6 32
3 31 32 33
3 34 36 35
3 35 37 34
3 21 18 17
3 21 31 33
3 21 33 36
3 21 36 22
3 36 33 35
3 38 39 40
3 35 41 37
3 37 41 42
3 41 43 42
3 38 41 35
3 38 40 41
3 35 33 38
3 33 32 39
3 38 33 39
3 17 2 1
3 1 31 17
3 2 0 1
3 44 45 46
3 45 47 46
3 47 48 46
3 49 44 46
3 46 50 49
3 31 1 6
3 13 51 52
3 44 51 45
3 8 10 55
3 51 13 45
3 44 53 51
3 51 53 52
3 55 11 8
3 45 56 47
3 13 56 45
3 11 55 16
3 49 53 44
3 28 57 58
3 20 28 19
3 20 57 28
3 20 22 57
3 57 22 60
3 59 60 22
3 58 62 61
3 59 63 60
3 59 64 63
3 57 66 65
3 57 62 58
3 57 60 66
3 63 66 60
3 19 28 27
3 24 27 29
3 28 61 27
3 26 29 30
3 30 29 67
3 29 68 67
3 27 61 69
3 58 61 28
3 61 70 69
3 27 69 29
3 29 69 68
3 69 71 68
3 34 59 22
3 34 37 59
3 22 36 34
3 37 42 72
3 72 42 73
3 42 43 74
3 42 74 73
3 59 37 75
3 75 37 76
3 59 75 64
3 37 72 76
3 72 73 76
3 9 79 81
3 9 77 79
3 80 82 83
3 9 78 77
3 9 84 78
3 84 86 78
3 85 87 80
3 89 88 80
3 3 90 4
3 9 4 84
3 14 88 89
3 14 15 88
3 7 9 12
3 9 94 12
3 9 81 94
3 89 95 14
3 92 96 95
3 95 96 97
3 84 4 90
3 84 90 91
3 92 95 93
3 89 93 95
3 11 98 10
3 14 95 15
3 55 10 98
3 54 98 96
3 98 97 96
3 98 11 97
3 15 95 99
3 95 97 99
3 93 89 87
3 80 87 89
3 84 91 86
3 86 100 78
3 86 91 101
3 87 85 102
3 86 101 100
3 92 93 104
3 93 87 104
3 91 106 105
3 87 102 107
3 91 105 101
3 101 108 100
3 100 108 109
3 101 105 108
3 102 103 107
3 78 83 77
3 78 100 83
3 80 83 110
3 83 100 110
3 85 80 110
3 110 102 85
3 110 111 102
3 110 112 111
3 110 100 112
3 100 109 112
3 25 113 3
3 25 114 113
3 30 115 25
3 30 67 115
3 115 114 25
3 114 116 113
3 114 115 116
3 115 117 116
3 3 113 90
3 90 120 91
3 113 120 90
3 46 48 122
3 46 122 50
3 120 106 91
3 120 123 106
3 113 123 120
3 123 125 106
3 54 96 47
3 96 121 47
3 48 47 119
3 96 126 121
3 96 92 126
3 47 121 119
3 126 119 121
3 98 47 56
3 98 56 16
3 49 50 53
3 53 50 127
3 92 104 126
3 87 107 128
3 104 87 128
3 126 128 124
3 126 104 128
3 106 129 105
3 128 107 130
3 108 105 132
3 103 130 107
3 105 129 132
3 133 124 128
3 133 119 124
3 48 119 134
3 119 131 134
3 125 129 106
3 129 125 135
3 133 131 119
3 116 123 113
3 122 48 134
3 122 134 136
3 123 138 125
3 116 117 139
3 116 137 123
3 117 118 139
3 50 122 136
3 136 140 50
3 134 131 140
3 136 134 140
3 125 138 135
3 50 140 127
3 140 142 127
3 140 131 141
3 140 141 142
3 137 138 123
3 139 137 116
3 137 139 144
3 138 143 135
3 138 137 143
3 137 144 143
3 67 145 115
3 115 146 117
3 117 147 118
3 146 147 117
3 145 146 115
3 145 148 146
3 67 68 149
3 67 149 145
3 145 149 151
3 149 150 151
3 145 151 148
3 146 152 147
3 146 148 152
3 151 153 148
3 148 154 152
3 148 153 154
3 118 147 155
3 147 152 155
3 152 154 155
3 139 118 144
3 118 155 144
3 143 156 157
3 144 156 143
3 144 158 156
3 156 158 159
3 156 160 157
3 155 162 144
3 144 162 158
3 158 164 159
3 159 164 161
3 159 160 156
3 159 161 160
3 158 162 164
3 162 166 165
3 162 165 164
3 160 161 167
3 164 165 161
3 161 165 167
3 6 168 169
3 6 5 168
3 168 5 170
3 12 171 5
3 5 173 170
3 5 171 173
3 168 170 174
3 170 175 174
3 170 173 175
3 6 169 176
3 6 176 32
3 39 32 176
3 169 177 176
3 176 177 178
3 177 180 181
3 179 180 177
3 40 39 182
3 41 74 43
3 176 178 39
3 182 39 178
3 40 183 41
3 41 183 184
3 40 182 183
3 177 181 178
3 182 178 185
3 178 181 185
3 52 186 13
3 52 53 186
3 13 187 56
3 11 16 172
3 186 188 13
3 188 186 189
3 13 188 187
3 53 189 186
3 177 169 179
3 168 174 169
3 169 174 179
3 189 53 188
3 181 191 190
3 181 180 191
3 174 192 179
3 179 192 180
3 174 175 194
3 174 194 192
3 192 194 193
3 180 192 191
3 192 193 191
3 191 193 195
3 194 196 193
3 193 196 197
3 41 198 74
3 41 184 198
3 182 185 183
3 74 198 73
3 183 200 184
3 181 190 185
3 190 191 202
3 201 190 202
3 183 185 200
3 185 201 200
3 190 201 185
3 184 200 199
3 198 184 199
3 200 201 204
3 201 202 203
3 199 200 204
3 204 201 205
3 201 203 205
3 202 206 203
3 203 206 205
3 205 206 207
3 202 191 195
3 195 206 202
3 193 197 195
3 197 196 209
3 195 197 208
3 195 208 206
3 197 209 208
3 209 210 208
3 208 212 211
3 208 210 212
3 81 79 214
3 215 82 88
3 88 82 80
3 88 15 215
3 12 94 171
3 81 214 94
3 15 219 215
3 11 221 97
3 16 221 172
3 172 221 11
3 221 222 97
3 99 97 222
3 171 94 173
3 15 99 219
3 173 94 223
3 221 187 222
3 94 218 223
3 99 222 219
3 219 222 224
3 218 225 223
3 94 214 218
3 214 226 218
3 215 220 82
3 214 216 226
3 219 220 215
3 82 220 217
3 220 111 217
3 216 112 226
3 102 111 103
3 112 227 226
3 218 226 227
3 220 224 228
3 103 111 220
3 227 112 108
3 109 108 112
3 219 224 220
3 77 216 79
3 79 216 214
3 83 217 77
3 83 82 217
3 77 217 216
3 217 112 216
3 217 111 112
3 187 229 222
3 187 188 230
3 222 229 224
3 229 187 231
3 187 230 231
3 229 231 232
3 228 103 220
3 128 130 235
3 128 235 131
3 235 130 228
3 108 236 227
3 103 228 130
3 108 132 236
3 218 227 225
3 229 228 224
3 229 232 228
3 227 236 225
3 131 237 231
3 131 231 238
3 129 135 239
3 129 239 132
3 235 231 237
3 232 231 235
3 232 235 228
3 231 234 238
3 173 223 175
3 223 225 240
3 223 240 175
3 188 53 230
3 230 234 231
3 230 53 234
3 240 241 175
3 225 236 240
3 236 132 242
3 236 242 240
3 127 244 53
3 53 244 233
3 131 238 141
3 127 141 238
3 233 244 234
3 238 234 244
3 53 233 234
3 132 239 242
3 242 246 245
3 240 242 245
3 240 245 243
3 245 249 248
3 135 143 239
3 239 143 246
3 143 250 246
3 242 239 246
3 246 250 247
3 245 246 247
3 245 247 249
3 175 241 194
3 241 240 243
3 194 241 251
3 241 243 251
3 252 243 248
3 245 248 243
3 243 252 251
3 194 251 196
3 196 251 253
3 143 254 250
3 143 157 254
3 157 160 255
3 247 250 249
3 250 254 257
3 157 255 254
3 160 167 255
3 254 255 256
3 256 259 258
3 256 255 259
3 255 167 259
3 166 259 165
3 165 259 167
3 254 256 257
3 256 260 257
3 253 251 261
3 251 252 261
3 252 248 262
3 248 263 262
3 248 249 263
3 261 252 262
3 196 253 209
3 209 253 210
3 262 264 261
3 262 266 265
3 262 263 266
3 264 262 265
3 210 253 264
3 210 213 212
3 210 267 213
3 210 264 267
3 261 264 253
3 249 250 263
3 250 257 263
3 257 260 263
3 63 64 66
3 62 57 65
3 268 62 65
3 66 269 65
3 65 270 268
3 65 269 270
3 268 270 271
3 270 272 271
3 61 62 70
3 62 274 70
3 268 274 62
3 69 70 71
3 71 70 273
3 274 273 70
3 274 275 276
3 273 274 276
3 273 276 277
3 268 271 274
3 274 271 275
3 75 278 64
3 75 76 278
3 64 278 279
3 64 269 66
3 76 73 280
3 76 280 278
3 64 282 281
3 64 279 282
3 64 281 269
3 270 269 272
3 269 281 272
3 272 281 283
3 282 284 281
3 282 279 284
3 275 271 285
3 276 286 277
3 275 287 276
3 287 286 276
3 275 285 287
3 272 285 271
3 272 283 289
3 272 289 288
3 281 290 283
3 281 284 290
3 283 291 289
3 283 290 291
3 289 291 292
3 289 292 293
3 293 292 294
3 292 295 294
3 285 272 288
3 288 296 285
3 285 296 287
3 296 297 287
3 286 287 297
3 289 298 288
3 288 298 300
3 300 298 301
3 296 288 299
3 288 300 299
3 289 302 298
3 293 302 289
3 298 303 301
3 298 302 303
3 296 304 297
3 299 304 296
3 297 304 305
3 294 295 306
3 294 307 293
3 302 293 308
3 293 307 309
3 294 306 307
3 303 302 308
3 308 310 303
3 308 311 310
3 293 309 308
3 308 309 313
3 307 312 309
3 307 306 312
3 312 306 314
3 313 309 315
3 308 313 311
3 313 316 311
3 313 315 316
3 309 312 317
3 309 317 315
3 312 318 317
3 312 314 318
3 68 150 149
3 68 71 150
3 71 273 150
3 273 319 150
3 150 320 153
3 151 150 153
3 153 321 154
3 153 320 321
3 321 322 154
3 319 320 150
3 273 277 319
3 319 277 323
3 323 320 319
3 321 320 322
3 320 323 322
3 325 322 323
3 154 326 155
3 322 324 154
3 322 325 327
3 322 327 324
3 327 328 324
3 327 330 329
3 155 326 162
3 154 324 326
3 162 331 163
3 162 163 166
3 163 332 166
3 162 326 331
3 163 331 332
3 324 328 326
3 327 329 328
3 326 329 331
3 326 328 329
3 286 323 277
3 286 333 323
3 323 333 325
3 286 334 333
3 334 335 333
3 333 335 325
3 335 327 325
3 334 336 335
3 334 337 336
3 327 338 330
3 335 338 327
3 338 339 330
3 336 341 335
3 336 340 341
3 338 342 339
3 286 297 334
3 297 305 334
3 305 337 334
3 335 341 338
3 338 341 342
3 337 343 336
3 336 343 340
3 340 344 341
3 340 345 344
3 340 343 346
3 340 346 345
3 342 341 347
3 341 348 347
3 347 348 349
3 345 350 344
3 350 352 344
3 353 350 346
3 350 345 346
3 344 352 348
3 352 355 348
3 351 315 356
3 315 357 356
3 315 351 316
3 351 353 316
3 353 351 350
3 315 317 357
3 357 317 359
3 317 318 359
3 357 359 355
3 351 356 350
3 350 356 352
3 357 355 356
3 356 355 352
3 341 344 348
3 198 199 361
3 73 198 360
3 360 198 361
3 360 361 362
3 361 363 362
3 280 360 278
3 360 364 278
3 360 362 364
3 278 364 279
3 280 73 360
3 279 364 284
3 364 365 284
3 284 365 366
3 364 362 365
3 362 363 365
3 363 367 368
3 365 369 366
3 365 363 369
3 363 368 369
3 369 368 370
3 199 204 361
3 204 363 361
3 363 204 367
3 204 205 367
3 205 371 367
3 371 205 207
3 367 371 372
3 368 367 372
3 207 206 373
3 206 208 373
3 208 211 373
3 212 213 211
3 373 211 374
3 211 213 374
3 372 376 375
3 374 378 377
3 371 207 376
3 207 373 376
3 372 371 376
3 373 374 376
3 374 213 379
3 376 374 375
3 374 377 375
3 378 374 379
3 284 366 290
3 290 380 291
3 291 380 381
3 290 366 380
3 366 369 380
3 369 370 380
3 292 291 295
3 291 381 295
3 383 382 381
3 295 381 382
3 384 380 385
3 384 385 386
3 386 385 387
3 370 385 380
3 300 301 384
3 301 383 384
3 380 384 381
3 383 381 384
3 384 386 300
3 300 386 299
3 299 390 304
3 299 386 390
3 304 389 305
3 304 390 389
3 386 387 390
3 387 388 390
3 390 388 389
3 368 372 370
3 370 372 385
3 385 372 375
3 375 387 385
3 375 377 387
3 388 377 378
3 388 387 377
3 295 382 306
3 303 391 301
3 301 391 383
3 383 392 382
3 392 383 391
3 382 393 306
3 303 310 391
3 310 394 391
3 394 392 391
3 306 395 314
3 306 393 395
3 382 392 393
3 311 394 310
3 392 396 393
3 392 394 396
3 395 393 396
3 394 311 396
3 314 395 397
3 314 397 318
3 396 397 395
3 398 401 399
3 398 400 401
3 400 398 404
3 400 404 403
3 332 259 166
3 258 259 332
3 332 405 258
3 258 405 256
3 332 331 405
3 256 405 260
3 331 329 405
3 399 405 329
3 399 401 405
3 260 405 401
3 260 401 402
3 401 400 402
3 265 267 264
3 265 266 402
3 265 406 267
3 213 267 407
3 213 407 379
3 267 406 407
3 406 408 407
3 408 379 407
3 408 378 379
3 265 402 400
3 406 265 400
3 406 400 403
3 406 403 408
3 260 266 263
3 266 260 402
3 410 337 409
3 330 399 329
3 330 339 398
3 330 398 399
3 398 339 411
3 412 398 411
3 339 342 411
3 342 413 411
3 409 412 410
3 412 414 410
3 412 411 413
3 404 415 408
3 409 415 404
3 388 415 389
3 389 415 409
3 404 398 412
3 412 409 404
3 305 409 337
3 305 389 409
3 410 343 337
3 410 414 343
3 413 414 412
3 343 416 346
3 343 414 416
3 413 417 414
3 416 414 417
3 342 347 413
3 413 347 349
3 415 378 408
3 415 388 378
3 403 404 408
3 346 416 354
3 416 418 354
3 416 417 418
3 353 346 354
3 354 419 353
3 348 355 420
3 419 354 418
3 418 417 420
3 316 358 311
3 316 353 358
3 353 419 358
3 311 421 396
3 358 421 311
3 358 419 421
3 318 397 359
3 359 422 355
3 397 422 359
3 355 422 420
3 397 396 421
3 397 421 422
3 419 418 421
3 422 418 420
3 422 421 418
3 349 417 413
3 348 420 349
3 420 417 349
3 47 98 54
3 55 98 16
3 126 124 119
3 128 131 133
3 56 221 16
3 56 187 221
3 235 237 131
3 141 127 142
3 238 244 127
