ply
format ascii 1.0
comment Exported by Aspose.3D 22.3
element vertex 563
property float x
property float y
property float z
element face 1130
property list uchar int vertex_index
end_header
1.08623895089393 0.632409042395909 0.207356072342643
0.470387482183878 -0.534522577713568 -0.402954470110987
-0.937043900030715 0.909911700967204 -1.19989497413274
1.23597937457151 2.94012021182095 2.49018114828247
-2.10318688626596 -1.73747264992766 6.46660019736852
-0.865025797339588 -1.16723563884963 7.37340015911039
-2.77940484687046 -1.74259135441992 1.91368845030345
-5.62533723887794 -1.23511805691527 1.38800782024198
-2.05858628152772 -5.88695606392108 3.05089278277409
-2.36732371600082 -6.54476003236347 6.43899737204854
-4.46763518472289 -6.17517352977934 1.78861494667985
-4.21444915189617 -7.3867076428445 4.28058189875458
-6.71485403429289 -6.26523873226151 2.86858071262623
-6.35719929363199 -6.57332025881874 6.39555424334115
-7.32671300446357 -1.17641630126051 4.36869869410743
-5.77693315441903 -1.1750378042106 7.13151958051308
0.992646340954974 8.71071827857109 0.83447008847978
0.321573280824417 9.7025961238186 -0.282745632177992
-1.08873543792621 8.53845494352283 -1.1357161276674
-1.18015213987383 10.2041395033717 1.21121390661601
-7.24818512442456 6.97092092551723 7.72450672138151
-5.23516536102045 10.1519876929154 4.90487861447114
-6.37540054700646 9.72548030038825 6.76491245529132
-6.98927557727402 8.79772310795904 8.04468266775558
-7.41084632840585 6.901261262217 30.0032755550709
-5.71907904163921 -1.16914119680057 112.930276169374
-1.16161247760945 10.1697280953131 110.699435856853
-7.46165001991823 6.86556051483711 42.77779258967
1.16841525406689 0.831533697376128 119.270601847754
1.16132469444536 5.70719972493725 119.935651729955
1.0477154366859 8.12758511474233 117.891988911076
-7.39528526131073 6.90169556980972 61.9782144025277
0.396324525659994 9.64659726194182 112.266441053859
-88.7892854870979 -1.17229422782084 0.939087893389471
-95.4471486000366 0.907632845209164 -1.18976208460009
-96.5497580595672 -0.521449168929792 -0.44107810368665
-11.8934237282385 7.14112628826034 6.91601241122069
-8.80959995641675 7.47337262884764 7.28939265559472
-8.74110944580408 8.4155393368756 7.31344322807937
-21.3236523077621 7.69927911474437 7.13931685952907
-9.29452842713158 10.5051485629618 5.82782004950543
-7.73079314128569 11.4845691300521 7.88949987745273
-95.4815097024665 8.66966118966259 -1.13937870005974
-95.588266609996 10.1532858559721 1.08144885428486
-25.6004996751428 7.14245660530429 7.06753243371756
-19.5979016814466 10.5997667622032 5.71931627116397
-18.9975964887261 7.44452875645267 7.29810279541623
-7.72828052388526 14.0561900131506 7.96347608852893
-9.48582554578972 15.7435671207467 6.27652358733925
-9.64975645481212 18.9686538098809 7.96881046270613
-43.3463073501005 13.9159856973272 5.99902337892147
-8.68232326390266 7.42309993857189 16.3202412985982
-8.22068334106856 16.4152008640731 8.85170824938912
-11.4440627911389 18.0378610548356 7.18802450593334
-11.5341538468523 19.6062183966456 9.50978961060185
-28.4303803927436 7.69788069702582 7.27147900496317
-34.3875538299764 10.1670085369022 4.94550647208472
-35.9753098755803 10.5919595524526 5.73331686251449
-85.8038076741856 19.5991215846353 9.449049533546
-88.8744635976229 -1.17515481698774 6.6070021469276
-43.1933974169692 7.27390051066189 7.02863467290289
-38.0431414828561 7.74670378330889 7.08921317882053
-87.1869993036362 15.3766366641781 6.19945902997343
-46.2602307104381 7.7000083401186 7.16774171910789
-50.5628117207285 7.6755138853849 7.05081680927599
-60.5841571114279 10.1677200396661 4.93980683593172
-56.2987131787587 10.5699113586265 5.69985391422948
-8.69347134240534 7.38938021524768 27.1547833003524
-11.2373380700222 19.5517090768931 79.1912220165701
-9.01429950346148 18.2321335740094 107.421831069532
-19.4127162629745 19.5965112497147 67.5149797728257
-8.68298756214819 7.52203184952176 38.1579845313544
-7.89656439328965 10.6270867837544 108.976615215565
-9.93153355176639 19.115118547624 81.5010332011128
-8.03327255657051 15.7318678223166 108.6637688616
-13.4855614587105 19.6417697716748 75.1741697366862
-8.66606605627743 7.53683450441633 47.1313724359607
-8.6777927822243 7.41660598347675 54.1012368359529
-7.6562072930463 13.2008014425551 108.787344238184
-8.6966612560567 7.43393808497707 62.687493162009
-19.7942751272196 19.6134130848675 74.8066038433839
-40.573759091703 19.5975888717268 68.0542136236084
-53.6519859338211 19.5974472118668 67.9437144054645
-1.02834277752929 -1.19999861693635 113.701993605385
0.447107028201444 -0.548320982407546 120.448402303693
-7.25755714141127 6.94393842370006 111.820786267809
-7.39433270713509 6.89237464953984 87.6199032363494
-6.99249939323184 8.78536449352348 111.106541019876
-6.36572767871628 9.71880112272311 111.503637909495
-5.20475093159033 10.1247250589304 110.934020862038
0.967139903148366 8.81947675969552 113.523926304949
-1.05419723611271 0.917615317163154 121.160232961937
-0.924727159610711 5.31749013394017 121.15059041958
-2.12833441026143 -6.3902998983995 114.432395939203
-4.37415518585843 -5.32418266565969 112.800509518534
-4.20647439918319 -7.39659655036041 115.86898070591
-1.89724611376931 -1.70614557431214 114.296397652905
-2.31365469414078 -6.37473920468244 117.439295083589
-5.85022077729709 -6.80111295903193 117.788707087592
-2.10027899226637 -1.60764126209963 117.50238484574
-4.31716832060735 -1.68376092969808 118.369180318876
-6.39464740543111 -6.46584365500253 114.085338272449
-7.19568723388882 -5.37020525154514 115.922820109565
-7.19810850938862 -1.2426885748856 115.150312934814
-6.86698013841981 -1.60913252935737 117.389466772039
-1.04293665591527 11.2542938639745 111.501347834417
0.394216345049717 7.05343431519674 119.180794686778
-1.10208333176912 7.94094213397133 119.871462679808
0.971349852518419 41.4268967877102 118.064234144073
0.346461676707328 42.4131012359816 119.135030678121
-8.09171747929936 -1.17345694387234 119.347546681404
-8.67481510171119 7.35579990395922 71.5489644573087
-8.68479032575721 7.38451723654024 80.630927556836
-14.3595669413254 20.2265387670398 75.7058991165317
-13.2249038552095 20.5902025979428 81.7720358867137
-14.6566095238811 23.4797353050136 78.5624549030804
-18.6804386367221 21.9550716277092 76.4270799413414
-13.6620766823484 26.7333566612533 85.7535311917246
-20.0646996751752 20.4689847700413 69.6539243035283
-22.3128851061809 20.3297512245923 68.2733297781423
-21.1453486444625 22.9691882147356 69.1315370094057
-21.4525222787157 25.2206514894592 70.468114917797
-19.9678359930926 25.2380787064719 72.5085739705329
-20.0966872648122 27.6752146165536 80.4910193709696
-8.68559351308296 7.38291178730269 87.1998940391686
-8.68639901087285 7.38132342115779 93.7690937028445
-11.6947438490647 19.5977062101441 88.2856090437173
-12.5823603440086 20.6660254552745 87.4016931083228
-13.494612260662 23.7284776010548 86.5933804566871
-14.8053925069399 19.4001520062007 88.6208516387636
-12.3055724031491 22.6858334812342 90.3441635198596
-13.3094051326958 20.6873223314057 91.5269361862024
-8.66692193674499 7.39359476516466 100.993797557784
-13.1776105806024 22.2085878608663 94.4220199928411
-10.7819575642073 19.5757631129203 108.132660924377
-17.4100227065027 19.6493962968118 102.256158604997
-19.8067783800357 23.6134396062673 96.4808572924784
-46.8405905200357 19.4897525509384 88.4608313597163
-49.2175076627385 19.6055966100553 91.2127362979752
-20.3116537777471 19.5752118015622 96.9933744795985
-18.5062580600277 19.7050786428997 99.4965624770144
-17.3997329013271 25.1237800322841 102.714991994681
-17.9244322224526 25.8009356146821 99.2723963100058
-21.7605088263264 19.1054838038651 98.6481707578294
-20.1917820528269 21.5462636545724 97.7145226984658
-19.6315561645433 23.5676128691415 97.2386454445976
-30.9673626109316 19.500186254278 98.361221871707
-34.5818388040124 24.4090912832147 97.2416237910565
-41.3962535441212 23.7826839903846 69.8344311588797
-42.4551041095119 19.8287965138482 69.8412196658177
-42.8347274058159 19.6639634894427 73.5161904424082
-53.942489185927 19.596488581464 72.3917433479989
-42.5430737720271 24.3464356513319 72.1432657307845
-43.3942703219609 22.745040514803 76.4676542593896
-42.4587338038459 26.8686901724253 78.563796331713
-50.1781535147636 19.7055882371199 74.1039654114601
-48.3748991861575 24.3496912852602 78.5259529782731
-34.1853764357923 19.5500360586171 98.5735975764607
-46.388892713346 22.342726431162 93.9896036173091
-41.0761797152913 19.4487015441608 98.4934166869274
-47.3600022022552 22.8063947218921 97.5221939823745
-49.0203075733986 20.1602760086545 91.5569667330207
-44.3428029276671 19.5056839215537 98.4329673385837
-59.0848523199793 21.3338788475216 97.773953525556
-53.0387230181459 19.5953609188032 97.0398900502243
-53.4460588213965 19.2136964504515 98.5407178934922
-89.4222905031786 -1.17461250160854 119.256525376527
-8.73412149372041 7.48191255903506 109.377344329515
-10.4128839823268 7.96622513032003 109.99107237076
-16.1835219995802 6.9793934884747 111.537900135779
-9.34262098173704 11.9856958413034 111.098388660616
-8.47851042613674 13.1738906853518 110.650540172775
-22.5499734413296 7.34994581142362 110.113046251504
-10.4207948570435 15.9176127102901 110.567802897236
-9.69199881385975 17.9237730178602 109.815499826866
-17.7476839693066 19.7712009199676 106.050964710077
-19.4719322496982 19.0361772042891 109.240631544154
-23.9754370673312 41.4144747255712 111.510300497025
-27.6186175909742 7.02415212863588 111.512505112311
-24.1306928067704 41.3872171086072 119.873442951109
-52.2430818464254 11.8558762832806 111.032188428899
-18.0583707528538 23.249834886898 107.934002976392
-41.1212023468042 14.4366205191677 110.87300172116
-20.1918855480594 20.3513592269721 109.121027387319
-20.1963924592691 23.3983446049015 109.758913024043
-86.2178766312952 17.0605962773661 110.210779551551
-95.9452556193683 5.2927336021578 121.126124214937
-95.3734627724338 1.04152887898391 121.204467621227
-38.3016274639049 7.3469474470963 110.104445159729
-40.5863004037744 7.01748118353103 111.52214189398
-76.3823833634635 19.3391445531771 109.119044587697
-95.5189906925195 7.94303556094616 119.862371429807
-52.9739592052157 7.01908135555599 111.527966478672
-53.6395774624448 7.29229379334403 110.22348582007
-53.8525636514663 8.43308771628392 110.046993084735
-70.2155663187218 7.61478874151112 111.510186044625
1.05834712922587 41.3946242251972 113.88809684738
-1.02785022279467 41.3702111375352 111.513224230045
0.40172305577247 42.5469164221257 112.561317906859
-1.12433633267101 41.3372196536139 119.867681859813
-1.24922864171623 42.8915682819349 117.922530028708
-14.9247554134378 26.5924031725482 82.6079676047555
-19.9286987563426 25.2501728525951 80.3330234389287
-21.1712012230901 27.2081080735393 72.6556132435933
-20.9754578397473 28.3481071469724 75.2140324092036
-22.1476510417759 28.6821348552134 79.6851773741901
-21.2371090891068 26.0431320202851 81.7278684054897
-35.4712356888628 27.9034984439169 74.9254718766571
-30.8511591184662 27.7948468882871 80.8317840549773
-33.3624914008626 28.5644667836099 79.4880609394305
-35.1361830875775 26.2878952154814 81.5284452921037
-14.440339928373 28.3252165014477 87.0658473974388
-13.1292462208618 27.3072769082225 94.3387183893015
-21.8364716492922 27.8368206049808 85.804244479152
-15.5940755382728 29.3846847898028 93.0689904793267
-12.8071812791968 24.4541763875832 97.2665413744556
-12.8415094347853 28.1201276237186 99.2194758478802
-13.858910809343 28.7952532389003 95.8670014025057
-15.41288445883 29.111013525249 97.6715442529081
-13.4369581966471 26.5928072149706 99.6563499448513
-18.3092530954126 27.7265618459584 100.011987018962
-19.4205419116631 28.6013318833774 99.5667109602699
-25.5012152136886 29.0668760983177 90.2455080442636
-33.5375393171607 27.8063950900758 85.4361221430682
-20.3109226640947 29.5979577663667 102.779301085898
-32.8235404344239 23.9741653997894 96.5891533780369
-41.3638536195543 26.497455793851 72.5856122162808
-41.4201240484357 28.2467474515698 76.6189382955677
-41.4336227141171 27.9927362288533 80.4277509099479
-43.3281349962873 25.9625755704458 80.6739717041324
-48.1219119041287 26.2125865429729 81.5721889081038
-46.8931471520925 29.2701791411433 90.2670727550638
-47.2989820846449 28.6106003608238 99.961286176633
-45.8446776768966 29.4647200186773 93.7824086179532
-47.8562031745137 27.7756303388552 84.8091352193873
-49.1794881152968 25.7811181909723 84.0300859297377
-48.3230104132079 24.2980067054308 86.9921715473037
-48.6178926265188 27.9331864253113 87.9924727384872
-48.2719071090137 25.6374116894694 90.8288474323975
-48.3382562214361 27.1625779645355 94.7049928856384
-42.9638892149993 24.68006798879 97.509126345551
-46.9911690637298 24.9406056452989 97.6421400350628
-47.9439641524768 28.2175011979013 96.7889995254083
-49.2071342378745 23.5900144668988 97.1402209259036
-49.3105714345152 27.6985487160533 99.0532733499569
-22.9230534257477 42.7204314945655 112.902761966515
-23.082673109765 42.8420985475962 118.701259131992
-18.3863856787189 27.0088961207648 107.333585898799
-19.8217222096232 29.5221243731038 104.990673263634
-20.9327256534332 26.7761666190372 108.885043912092
-20.8304117461313 28.5435374010985 107.146138313532
-25.7590974426466 44.9326025157132 113.062395754922
-29.4968628737162 46.2477026840664 111.572219810727
-26.5348895959125 45.4905764149679 118.998642080687
-29.5265397836072 46.0980892350149 119.84617461296
-40.8200078935721 50.3922826751015 111.510130077133
-41.0789421710938 50.350375658087 119.869925087653
-76.691115252564 29.4833279039088 105.100005202697
-56.9365659820193 29.1629011733799 101.444128743702
-59.4032439151792 47.8109149399338 119.86584477068
-29.8945844456401 47.2986299372008 118.997955159687
-30.7003332209418 47.9017326027385 112.81709253403
-36.1788449062569 47.8898695133445 111.814158588347
-35.4902290467202 48.6182905762143 118.866618343677
-36.1997484011067 49.0830480221806 113.04881443249
-35.8103942303994 47.9744266640212 119.62007887551
-40.9948178323459 51.9264036470949 113.014339928313
-40.4047019096967 51.5141490870356 118.872856511817
-46.8606443768366 53.212405095399 112.794452940672
-45.7965225631801 52.8989410313266 119.030240189465
-52.7617190611487 51.2411838316302 111.577712965987
-50.2564274376851 53.2232058925935 118.685614883592
-53.2972686880425 51.3551984575395 119.825366256483
-57.5512937256885 7.53175963624238 7.18094080021587
-57.0507917112237 7.27375805178359 7.23185779755608
-59.183018794574 7.733042557482 7.26694239315739
-96.6970880267527 9.66111042087826 -0.352960294819269
-68.0841561093858 7.29533967321045 7.06949996084722
-70.6820878607476 7.28787031262431 6.93618418673582
-70.910640321478 7.65735547850385 7.19298912122528
-70.9209034136001 10.568759063184 5.6747965642987
-86.9547061088996 18.7531528658537 7.64748069916324
-91.231034930544 -1.65757740677204 1.61687772252121
-90.0130649392831 -6.24598605871065 2.09584278958215
-89.0276213825648 -6.52067556502688 5.89957847132136
-91.5816914741327 -7.44143999508703 4.22376424435596
-88.987193867948 -1.90167266994693 2.78059450031847
-90.7645908170063 -5.35110940641373 7.14958628684714
-95.4451637098314 -1.17690322823784 6.66565218363956
-84.8974507810422 10.221650923191 5.61621827857226
-79.650925097647 7.144250146551 7.03700837745499
-86.1394303634914 7.55553068759719 7.06803382928281
-80.1457196901828 7.66182258268889 7.26961542809374
-87.6521061100517 8.45103493337882 7.75670477926465
-87.9482141475605 7.10481815339498 7.81133777199762
-88.8468960442836 8.75161888285242 7.33338525863488
-88.8211371071477 8.88986709655729 10.0877146957901
-88.9096944808772 10.1922652902462 6.31071772111972
-88.7329199352763 13.6796691994953 8.25339812229606
-88.45634516 15.1395474478659 7.19567502663801
-89.1045760314677 8.79528113436899 13.6374094941538
-88.1571752292259 7.01504035038963 16.7634633133179
-87.7710626502302 8.81562634122893 19.6576455276972
-88.5889577771452 10.2308950186681 10.3390697056084
-88.407317149448 11.003142389748 12.1429791312689
-89.0292103900918 8.86896538077093 17.0790033870774
-88.9393181102197 10.2326484359328 15.9278772300378
-88.2568192743534 10.9169540508064 20.5064653334742
-88.5818220154019 11.6963115744924 23.6569708250395
-85.1331213367809 19.5998339591652 76.728010755252
-87.5912994482687 17.8501167545214 9.13142825038426
-74.9507521923342 19.6003567033568 68.9630256516904
-88.073484345273 7.01303889813503 28.8825144573667
-88.5642846919657 8.02226105595497 27.414801380188
-89.28131984263 8.82546039149675 21.6583083001982
-88.8684904828077 10.3852271006324 22.6250092745685
-87.6824695569854 8.3065932626236 37.002861572609
-88.149401203804 9.35990072941301 28.8317137738058
-89.3020559038502 8.75782165031575 27.4251553985376
-88.8388811866461 10.3233609517096 28.9625499621255
-88.3628801461189 11.28647875104 29.5968472694907
-86.942736772163 18.8175062803899 68.3784817779679
-87.5974097095595 17.8242922665099 66.8926264309854
-88.1142165798294 6.95565025785524 37.7492683150401
-89.1170642421888 8.75857595028664 34.2462442431882
-88.1621495025463 9.36165444802124 34.1591650070059
-88.5906231971517 11.6383409965272 33.3545822434843
-88.968721476785 10.4465665626107 36.1666319035258
-88.1443566842327 10.3899515542148 34.0349061753363
-88.9031237846932 8.45857059798715 37.9889290369386
-88.607026414277 11.6382629301856 39.3200071749355
-88.7324355131945 10.279561376987 41.7362945854553
-86.1459501162718 19.3852335521883 68.344884337749
-93.2846439403097 -1.18102916813331 112.930770763652
-88.4695952753133 7.58161809698566 49.3011964823606
-87.7871590610832 8.83780666424118 48.434625528307
-89.4650787480058 8.83790069973154 43.0662744206201
-88.2223538820918 11.1822234178439 42.535896070399
-89.1865629539446 10.3710689077177 47.0099613201507
-88.0168325751514 6.9631395340084 55.4866052567129
-89.1735769613911 8.77164493226193 48.1888879822681
-88.4123580553715 11.2818013750927 52.3429934381778
-89.0291882278079 10.2407834984232 56.4216674871807
-88.4913231918767 7.64677149964686 56.955320543675
-87.8993243193333 9.04911983644326 55.9889946966716
-89.3073229030066 8.77817447579028 57.4961353008956
-88.473836927476 11.2417086589407 57.5292671134316
-87.7065221097036 8.61746071417384 72.0802979759006
-88.6539001424294 10.5438346141086 60.0494952149675
-89.3961921763287 8.65322848272208 64.7944076582411
-87.994718173484 16.8694870840077 108.843700312451
-93.7206922107831 -1.55937597766992 2.18495872212157
-92.4840935722588 -5.08221118382285 1.729936373792
-94.1356394835079 -6.22129448745977 3.21116318346368
-93.4590644973237 -6.69946442578968 6.41594322765066
-93.2287135088171 -1.93519151865182 7.08196676650619
-94.3179386273061 -1.88487977137444 4.32708649773116
-97.1308089898112 0.893371071098613 0.893385303141628
-97.3571737890716 8.51127413388588 0.925117224839994
-95.5299174205105 10.1299264407817 110.760738613203
-95.625549124314 -1.11217499068313 115.393823537055
-97.1000554973425 0.685939946003259 119.260901685238
-97.2173183390507 2.84342884320006 119.662138032769
-97.3924770965802 7.30415955244985 117.851303808737
-97.2768462477534 8.76249696711687 113.555027399342
-55.0324657474299 20.1925685418307 68.9891120038524
-55.0297006787793 22.1993129225739 70.1787355459795
-58.9621076423758 24.2553616227501 70.2099960120705
-53.9932808273151 19.1745399535131 74.1976548119924
-52.2649873216486 23.0375144673108 78.2715015918521
-55.5376933310254 21.565865055008 76.6971812379652
-54.8130492645704 21.1651137719447 74.430592115015
-54.9047064920764 28.0872964126919 77.9350411426431
-55.1656508817423 23.5681947788811 78.5279733694516
-76.4299647289641 23.3700668727151 70.2562426728925
-49.8435626490222 19.5650361518512 92.8266203046246
-69.511659062889 19.5561079100687 91.3723073949616
-56.4957962824344 23.6102762826638 97.1937188578
-61.7774049493723 21.2685822363364 94.0922930918236
-59.1364917201903 19.5681772459542 98.5612840609551
-63.4124891143852 23.5046758578735 97.3622634092268
-71.8328977199136 19.5206800935936 92.5662047143802
-64.7427956036318 19.3479451508134 98.4841050823412
-76.0743643164102 19.5752136128773 98.3400704136014
-73.8846481390375 23.3804668245532 97.3642104819224
-72.971449238502 20.4871069182312 93.1053411913036
-77.632821534444 19.6973493615124 71.0476014968768
-77.1223200751459 21.4544570972488 73.9251942719004
-78.0375947773064 19.8859273919775 74.6902052301612
-77.5138628726848 24.490644206271 72.9158019111571
-77.3820859718061 27.9640565407103 80.9877170438797
-77.5708362621529 25.2484464518254 80.2939512832384
-83.1523934230328 19.6497848420816 75.4171386763313
-82.8224879880285 22.3120937048135 78.0709149931876
-87.94599210475 7.07223966925078 72.4870387957187
-88.564585954747 8.0576742644032 67.1127205476004
-88.7604909429527 10.2593231354888 64.8594575870092
-88.3927491926477 11.1428370665724 65.8050665882358
-88.4607116483208 7.53227431265896 74.7621964304813
-88.6153351946494 10.283211469595 69.0990808295873
-90.3575173325865 10.2059434188426 75.6892656131532
-89.0951740568739 8.88273496334333 72.8713308863977
-88.415796690744 10.9847151195381 72.972404851727
-88.6919939659038 12.3388343253432 74.9421094278308
-89.2066848712528 8.64826563358366 77.9227894620747
-88.13729616379 10.473585630247 76.2137326626275
-88.1274194109758 7.00484480553496 88.5972740671464
-88.6185297431205 8.07677314751115 86.4770430120637
-87.7090191887563 8.64880023353403 84.2754995009422
-88.6065760193249 10.7877309906051 78.608846887413
-88.7307085184922 10.2603280793232 83.7495311311682
-89.4244032853321 8.6471906759662 85.5035705884533
-88.4166500110443 11.2113725487176 84.4286577941083
-84.1726661199293 20.3270337908287 78.4634704640133
-83.8918460189799 24.6153507494379 84.606977111026
-83.199856927976 24.6346518030104 81.3778620803699
-82.3057831224464 19.5056380034412 92.4747898811705
-74.7194266388282 19.2510072982003 98.5023804341244
-78.0656023395053 23.6318402767908 97.8691223481282
-85.1640145663143 19.6055885237122 94.1551115128352
-82.9286304802128 20.9334923204801 93.8076422731383
-79.0257176203507 19.6330541420014 100.538473545526
-79.3859796589597 19.4896336342518 108.074925420477
-79.6904409463681 23.3781511444089 103.240728530506
-88.2316937311408 10.3006855661526 99.2284990737233
-88.7251039357779 10.4083551228262 91.0115039407193
-89.353460871252 8.63404876412583 93.8456605941818
-88.2399624430256 10.7857395531105 95.5183753794624
-83.8325538234714 19.9721347483654 87.1499304153921
-83.1561160538453 19.5995533698898 89.4235267306288
-87.9382640031319 7.02892521230432 100.001787662055
-89.0542932215277 8.60903920757713 100.026486017172
-87.8828135506976 9.01872371329661 103.243381445753
-88.6016809411376 11.8788341697439 98.2626969447266
-88.2187025467287 7.08425407456898 108.794533607232
-88.6427230945436 10.530461560403 102.106473455474
-86.2631110952821 19.4852925061844 108.545414402581
-88.7798897865654 13.0075333570427 109.55269549669
-96.5230449804326 -0.548976913177285 120.444357251962
-66.1485635902249 7.34133643413395 110.112513595432
-64.6718491844656 7.05836391245091 111.642242352659
-75.5617940933664 7.40137215861125 110.087894609043
-76.6404604015069 22.9943084868521 109.692112087132
-89.3119543620356 -1.30213132930193 113.402108455674
-89.5353291938373 -6.20288996233555 113.685869133691
-88.7023904796966 -5.41979682189537 115.889540088754
-91.4719770135315 -7.45723485244783 115.820109123027
-88.7892698865779 -1.97439888654565 117.472242799009
-89.6830318613857 -6.30316338115921 117.86111415918
-79.6019114691257 7.03342611066898 111.558208121582
-88.0401767870809 11.625433946598 110.999020332065
-87.5654884544595 8.45710192210908 110.021581019183
-85.9786841723529 7.41086965392185 110.103662090253
-87.5997650319172 14.3412976214258 110.874486083965
-78.5242235833215 20.2454494652926 107.353756148571
-78.6607551146576 24.3521498948921 107.849962442252
-95.472512261977 41.3365480319686 119.872324600387
-89.0945230284851 8.81094185873607 105.255449798068
-88.1954404763723 7.34739324505993 111.549989331387
-88.3395652625086 10.3663735993273 106.89660516151
-89.049635601398 8.96092252913972 109.145370459488
-89.0413856741737 10.3972715948104 111.488092520192
-89.2615155777344 10.1087921772851 110.267221738317
-95.4212550379091 41.2676138842917 111.529567644246
-96.7119238558206 9.6741553430542 112.349057378131
-93.283306376849 -6.34952005771852 113.484560605094
-93.883564132902 -6.51656971626011 117.357260436446
-93.2184147882867 -1.81212109568133 118.264361626181
-94.4013549665735 -1.93960898159381 116.834524830378
-95.502169249827 11.2365121938864 111.57402696992
-96.7260792412501 7.33228470883677 119.161534981186
-96.8125370840951 42.6022914593601 112.68571695163
-97.3714712983095 41.210705033096 113.97386079757
-97.3227244709071 41.3761854707605 118.036638993704
-96.65764728406 42.3361907045386 119.201196115522
-54.4161807588807 23.9909020362804 79.6719834901495
-55.6831944186366 27.673966766767 73.0054157387191
-56.7527288793937 26.38744436993 71.5366754843637
-56.7394647744569 29.3550753597466 75.9386536123539
-55.1664057286021 25.8703602193734 80.5907560701241
-57.8430485545942 25.8837817243808 81.9848449557993
-55.2516384995461 28.2851742271215 82.1164731959734
-56.2971858738374 29.8977823782806 79.8650495052812
-57.057564727509 29.4005850154362 81.630166537458
-70.1908371769596 27.0031708609079 72.5016800560435
-65.0448516058888 29.0608730358405 76.0320519537981
-63.1421990316811 25.4646961201205 81.0362373127709
-65.9621869129983 24.5740582576555 80.9676801624541
-66.0319039848359 29.7007292362516 80.6465157846679
-73.7188753284869 24.3156483105775 80.9065055956276
-75.9445476867388 29.7096963900152 80.0993116571146
-52.7382348349166 25.1888567930779 81.5975081081629
-48.5490996235133 26.5647858105147 87.8638481385446
-49.8945497685418 26.8869493753075 84.7879104875849
-55.0907213587932 26.5866074412948 84.5741788027937
-50.1573025603476 28.3364024924923 90.0753000504812
-58.3784089859316 28.4564717196186 92.3353955655238
-59.2047321802043 25.8298062501175 83.0190669919766
-49.7047236773883 28.1893304065553 97.755289931574
-57.1679446482728 27.6341680493366 99.1039634260312
-65.4566854775476 28.2378112735334 96.7503907486685
-64.5809838220453 27.0150837965778 82.1704494737551
-64.2728218191452 25.8292206134037 83.1805749717724
-65.4958131258922 28.0836786934904 90.115472354337
-68.4374635782153 25.5862291160184 83.0381282554087
-76.0297043713727 28.5700438127802 82.2142430144271
-73.4447384692994 27.0052747346981 82.3764364501308
-81.8919824568949 27.4427643903255 88.7927779348604
-64.0432237518001 27.6663790964765 99.0882266627949
-68.6446221017937 27.6896258763927 99.0527670668937
-76.4618476884244 27.2752870197365 72.6653348499932
-76.6017665750421 28.860547584054 76.3680305913187
-70.1084146739131 24.5669421336164 81.1245518639416
-72.4588350489566 24.801611608583 81.2383216885128
-77.4950204584491 25.1106719153621 81.6136574919813
-72.0745201645287 25.7530119328254 83.345271193778
-83.1909622987534 26.4810101179099 85.1666522184099
-76.9877843686639 25.4221914169394 82.733922516916
-82.1834999826937 28.3749467907935 93.2225158596509
-76.8394928998728 27.6775753031411 98.8014035113206
-76.4210864715632 29.5665605479918 102.616260144616
-82.5295168244353 27.7773479365929 98.0126197568482
-78.3958240787335 27.0622250992226 99.6253871119933
-78.8600262306484 25.4393694236354 100.051612618961
-83.8132200264911 27.1407369497329 93.2731019944673
-83.1680138755013 25.404834706083 99.5116287442941
-76.1283259867036 28.3408336788716 107.443778509688
-76.6120482915905 26.0684700510878 109.213405969032
-57.6043041612221 48.5781289534583 111.512148338594
-72.176870787732 41.4098435553509 119.868556133106
-66.1816703525742 45.8259462022278 119.862056055842
-63.7637329758929 46.6054967937089 111.558775773295
-67.8911540699087 44.6063867440694 111.519730389726
-71.1333037929313 41.4287223139807 111.517851026667
-52.3844752590509 52.718596449143 113.08006982519
-56.170101676832 51.6778863503195 118.468064912317
-60.4977606624914 48.6446106561495 112.653161366797
-58.9180025534968 50.0628154227736 113.083630641202
-56.0523754227997 51.5299747728288 112.924724802209
-60.439603036469 49.0043471646948 118.613480465899
-64.9185447201482 47.9566709839371 118.770165567555
-65.3445093630051 47.6722007344137 112.987986068139
-67.898257400539 46.5470860440288 112.878435654989
-69.280496338476 45.7904822518508 118.793522622875
-70.652156395157 44.7351948548276 113.047027163434
-78.2945459443717 27.8515422206128 105.803106833629
-72.9225500436208 42.6848933465075 112.712560297407
-71.8302048564765 43.6784413739813 118.864698588428
-74.1387100610464 42.8112992254025 118.657338253874
-95.5105432110543 42.8905317710148 117.895793958961
-88.5277162718758 9.31141831572658 14.1387858121267
-88.6237846209228 9.42224932595931 24.2245717033317
-88.552033774903 9.38511701306128 39.8659503689682
-88.8944518537169 9.12140981002916 51.5571103382811
-88.7654943957468 10.3729950706343 52.4749818691231
-88.6305326358312 9.10754609820549 62.4528631527692
-88.5966791876436 9.09410474263177 67.6772603405623
-88.6385168001179 9.12795534214914 78.140468355633
-88.7923496310527 9.07397301903439 83.3062170844101
-88.6892058198707 9.0604519269332 88.5697007547099
-88.6241177522262 9.12199158221741 93.6727350538009
-88.6522801961946 9.11868865955997 98.9693211609683
-64.4613740776319 25.2991642392843 81.4229687933479
3 0 1 2
3 1 5 4
3 1 6 7
3 8 11 10
3 8 9 11
3 8 10 6
3 8 4 9
3 10 11 12
3 11 13 12
3 12 14 7
3 10 12 7
3 12 13 14
3 11 9 13
3 9 15 13
3 9 4 15
3 13 15 14
3 8 6 4
3 1 4 6
3 4 5 15
3 10 7 6
3 0 17 16
3 0 2 17
3 0 16 3
3 17 2 18
3 20 23 22
3 17 19 26
3 24 27 20
3 5 25 15
3 1 0 28
3 0 3 28
3 3 30 29
3 3 16 30
3 27 31 20
3 17 26 32
3 16 17 32
3 19 21 26
3 1 7 33
3 1 35 2
3 1 33 35
3 7 14 33
3 20 36 37
3 36 38 39
3 20 38 36
3 20 22 38
3 22 40 38
3 21 40 22
3 38 37 39
3 40 41 38
3 18 42 17
3 36 39 44
3 19 43 21
3 21 45 40
3 39 37 46
3 40 47 41
3 40 48 47
3 48 49 47
3 40 50 48
3 40 45 50
3 20 37 51
3 38 41 37
3 37 41 51
3 36 46 37
3 47 49 52
3 48 53 49
3 36 44 46
3 21 56 45
3 39 46 55
3 43 56 21
3 56 57 45
3 44 55 46
3 35 34 2
3 33 14 59
3 44 39 60
3 45 57 50
3 39 55 60
3 17 43 19
3 60 55 61
3 60 63 44
3 44 61 55
3 44 63 61
3 49 58 54
3 60 61 64
3 61 63 64
3 43 65 56
3 56 66 57
3 56 65 66
3 20 51 67
3 20 67 24
3 51 41 67
3 49 54 68
3 52 49 69
3 24 67 71
3 67 41 72
3 67 72 71
3 24 71 27
3 49 68 73
3 69 49 73
3 47 52 74
3 54 70 75
3 68 54 75
3 54 58 70
3 27 71 76
3 27 77 31
3 27 76 77
3 71 72 76
3 76 72 77
3 72 41 78
3 31 77 79
3 77 72 79
3 41 47 78
3 75 70 80
3 15 59 14
3 70 58 82
3 70 82 81
3 5 83 25
3 1 28 84
3 1 84 5
3 28 3 29
3 31 85 20
3 20 85 23
3 31 86 85
3 85 87 23
3 23 87 22
3 87 88 22
3 21 22 88
3 26 21 89
3 21 88 89
3 84 83 5
3 16 32 90
3 16 90 30
3 84 92 91
3 93 94 96
3 96 94 83
3 93 97 95
3 93 99 97
3 97 100 98
3 97 99 100
3 93 101 94
3 93 95 101
3 101 98 102
3 101 95 98
3 94 25 83
3 101 103 25
3 101 102 103
3 94 101 25
3 95 97 98
3 102 104 103
3 102 98 104
3 98 100 104
3 93 96 99
3 83 84 96
3 84 99 96
3 84 100 99
3 32 26 105
3 26 89 105
3 87 85 88
3 84 29 92
3 28 29 84
3 29 30 106
3 106 107 92
3 106 92 29
3 89 88 105
3 30 108 106
3 106 109 107
3 108 109 106
3 15 110 59
3 31 79 111
3 52 69 74
3 47 74 78
3 31 111 86
3 79 72 111
3 86 111 112
3 111 72 112
3 75 80 113
3 68 114 73
3 68 75 114
3 113 116 115
3 75 113 114
3 113 117 114
3 113 115 117
3 70 118 80
3 70 119 118
3 118 119 120
3 118 122 80
3 118 120 122
3 80 122 123
3 80 116 113
3 15 25 110
3 86 112 124
3 112 72 124
3 86 124 125
3 124 72 125
3 73 127 126
3 73 114 127
3 114 128 127
3 114 117 128
3 126 127 129
3 127 128 130
3 127 130 131
3 127 131 129
3 86 125 132
3 86 132 85
3 125 72 132
3 131 130 133
3 126 135 134
3 129 138 126
3 135 126 139
3 135 139 140
3 140 141 135
3 140 142 141
3 139 143 140
3 144 140 143
3 144 145 140
3 126 146 139
3 139 146 143
3 144 147 145
3 70 81 119
3 119 148 120
3 119 81 148
3 81 149 148
3 81 150 149
3 81 151 150
3 149 152 148
3 149 150 152
3 150 154 152
3 150 153 154
3 151 155 150
3 150 156 153
3 150 155 156
3 129 131 137
3 129 137 138
3 143 157 144
3 143 146 157
3 131 133 158
3 131 158 137
3 126 138 146
3 138 159 146
3 146 159 157
3 144 160 147
3 138 162 159
3 157 159 144
3 159 163 144
3 144 163 160
3 138 164 162
3 137 158 161
3 164 165 162
3 159 162 163
3 25 103 110
3 103 104 110
3 104 100 110
3 100 84 110
3 85 132 167
3 132 72 167
3 167 168 85
3 168 169 85
3 167 170 168
3 72 170 167
3 72 171 170
3 72 78 171
3 169 168 172
3 73 126 134
3 69 73 134
3 78 74 171
3 69 134 174
3 74 69 174
3 171 174 173
3 74 174 171
3 173 170 171
3 134 135 175
3 174 134 176
3 134 175 176
3 85 169 88
3 105 88 177
3 169 178 88
3 88 178 177
3 169 172 178
3 168 170 180
3 135 141 175
3 173 182 170
3 181 184 183
3 175 181 183
3 176 175 183
3 173 174 185
3 84 91 187
3 178 172 188
3 172 168 188
3 188 189 178
3 173 185 182
3 180 170 182
3 176 183 190
3 92 107 191
3 92 191 186
3 188 193 192
3 188 192 189
3 193 188 194
3 188 168 194
3 176 185 174
3 32 196 90
3 32 105 197
3 90 196 30
3 32 198 196
3 32 197 198
3 30 196 108
3 109 199 107
3 198 200 109
3 196 109 108
3 196 198 109
3 115 116 202
3 115 202 201
3 120 121 122
3 121 203 122
3 122 203 204
3 80 202 116
3 80 123 202
3 122 204 123
3 204 205 123
3 202 123 206
3 203 207 204
3 205 208 123
3 123 208 206
3 204 209 205
3 206 208 210
3 115 201 117
3 117 201 211
3 128 212 130
3 211 201 213
3 128 117 212
3 117 211 212
3 133 130 215
3 130 212 215
3 215 212 216
3 211 214 217
3 212 211 217
3 133 142 136
3 217 214 218
3 212 217 216
3 215 216 219
3 133 215 142
3 217 218 216
3 215 219 142
3 219 216 220
3 219 220 142
3 220 216 221
3 216 218 221
3 201 202 206
3 206 213 201
3 211 213 214
3 213 222 214
3 206 210 223
3 206 223 213
3 136 142 145
3 142 140 145
3 221 224 220
3 133 136 225
3 203 226 207
3 121 226 203
3 121 148 226
3 204 207 209
3 205 209 208
3 120 148 121
3 207 227 209
3 152 226 148
3 152 154 226
3 154 227 226
3 207 226 227
3 209 227 228
3 210 208 228
3 209 228 208
3 210 228 229
3 153 229 154
3 154 229 228
3 154 228 227
3 229 153 230
3 153 156 230
3 213 223 222
3 222 223 231
3 136 145 225
3 147 225 145
3 222 233 214
3 222 231 233
3 218 232 221
3 223 210 234
3 229 234 210
3 223 234 231
3 229 230 234
3 235 234 230
3 235 237 234
3 236 238 235
3 235 238 237
3 234 237 231
3 238 239 237
3 133 225 158
3 147 240 241
3 225 147 241
3 225 241 158
3 214 233 218
3 218 233 232
3 160 240 147
3 239 242 237
3 231 237 242
3 158 241 243
3 233 231 232
3 231 242 232
3 160 241 240
3 232 242 244
3 105 177 197
3 107 199 179
3 198 245 200
3 245 246 200
3 199 109 179
3 197 177 198
3 177 245 198
3 200 246 109
3 179 109 246
3 142 220 141
3 220 248 247
3 141 220 247
3 175 141 181
3 141 247 181
3 247 250 249
3 220 224 248
3 247 248 250
3 181 247 184
3 184 247 249
3 177 251 245
3 177 252 251
3 245 251 253
3 245 253 246
3 246 253 179
3 179 253 254
3 221 232 224
3 178 255 177
3 177 255 252
3 179 254 256
3 250 248 257
3 232 258 224
3 189 195 178
3 195 255 178
3 179 256 259
3 252 261 251
3 251 261 260
3 251 260 253
3 253 260 254
3 261 263 260
3 252 262 261
3 252 255 262
3 262 264 261
3 261 264 263
3 262 255 264
3 254 260 265
3 260 263 265
3 254 265 256
3 265 263 256
3 264 266 267
3 255 266 264
3 264 267 263
3 256 263 267
3 255 268 266
3 266 269 267
3 255 270 268
3 268 269 266
3 269 268 271
3 259 256 272
3 256 267 269
3 256 269 272
3 57 66 50
3 64 275 273
3 50 62 48
3 60 273 63
3 60 64 273
3 273 274 63
3 274 64 63
3 274 275 64
3 2 42 18
3 17 276 43
3 42 276 17
3 275 274 277
3 277 274 278
3 274 273 279
3 274 279 278
3 66 280 50
3 2 34 42
3 65 280 66
3 275 279 273
3 275 277 279
3 48 281 53
3 53 281 49
3 48 62 281
3 35 33 282
3 283 284 285
3 283 286 284
3 286 59 284
3 284 59 287
3 286 283 282
3 286 282 33
3 286 33 59
3 65 289 280
3 280 289 50
3 279 290 278
3 290 279 291
3 43 289 65
3 279 292 291
3 289 62 50
3 278 292 277
3 277 292 279
3 278 290 292
3 49 281 58
3 291 292 293
3 291 294 290
3 294 291 295
3 295 293 296
3 291 293 295
3 289 297 62
3 289 43 297
3 297 298 299
3 62 297 299
3 290 293 292
3 290 294 293
3 294 295 300
3 294 300 301
3 295 296 300
3 297 303 298
3 296 293 302
3 296 550 300
3 550 296 302
3 301 300 305
3 294 302 293
3 294 301 302
3 306 307 304
3 550 305 300
3 305 550 302
3 307 308 304
3 299 310 62
3 62 310 281
3 303 304 298
3 304 308 298
3 82 309 311
3 301 313 312
3 301 305 313
3 301 312 302
3 302 314 305
3 306 315 307
3 305 314 313
3 315 308 307
3 312 316 302
3 302 316 317
3 313 314 318
3 551 318 314
3 551 302 317
3 315 319 308
3 319 320 308
3 318 551 317
3 310 321 281
3 58 281 321
3 299 322 310
3 308 320 298
3 310 322 321
3 312 313 323
3 323 313 324
3 316 325 317
3 313 318 324
3 317 325 324
3 317 324 318
3 319 326 320
3 328 319 327
3 319 328 326
3 323 324 329
3 312 323 316
3 327 330 328
3 328 330 326
3 325 329 324
3 329 325 552
3 552 325 316
3 327 331 330
3 320 326 298
3 309 58 332
3 58 321 332
3 326 330 298
3 58 309 82
3 323 329 334
3 552 336 329
3 331 337 330
3 336 552 316
3 336 316 335
3 323 334 339
3 334 329 340
3 323 335 316
3 323 339 335
3 329 336 340
3 331 338 341
3 331 341 337
3 337 341 330
3 554 338 342
3 338 554 341
3 330 341 298
3 339 334 343
3 339 344 335
3 334 345 343
3 334 340 345
3 553 344 345
3 553 345 340
3 553 335 344
3 554 346 341
3 339 347 344
3 554 342 346
3 342 348 346
3 343 345 349
3 345 555 349
3 345 344 555
3 555 344 347
3 299 350 322
3 341 346 298
3 282 351 35
3 283 353 352
3 283 285 353
3 284 287 354
3 285 284 354
3 287 59 355
3 287 355 354
3 285 354 353
3 353 356 351
3 352 353 351
3 353 355 356
3 353 354 355
3 283 352 282
3 352 351 282
3 355 59 288
3 351 288 35
3 351 356 288
3 356 355 288
3 35 357 276
3 34 35 276
3 276 357 358
3 34 276 42
3 297 43 303
3 288 360 35
3 288 333 360
3 35 361 357
3 306 303 315
3 315 303 319
3 319 303 327
3 327 303 331
3 357 363 358
3 358 364 276
3 361 362 357
3 59 333 288
3 331 303 338
3 338 303 342
3 362 363 357
3 358 363 364
3 342 303 348
3 82 151 81
3 366 365 367
3 151 368 155
3 155 369 156
3 368 370 155
3 155 370 369
3 82 365 151
3 365 371 151
3 365 366 371
3 371 366 372
3 151 371 368
3 368 371 370
3 370 373 369
3 82 311 365
3 365 374 367
3 137 161 138
3 138 161 376
3 161 158 243
3 375 164 138
3 161 243 378
3 243 377 378
3 163 162 165
3 161 378 376
3 375 379 164
3 378 377 380
3 164 379 165
3 163 165 379
3 163 380 160
3 138 376 375
3 376 381 375
3 379 375 382
3 163 379 382
3 375 381 383
3 375 383 382
3 378 380 384
3 376 378 385
3 163 384 380
3 59 166 333
3 311 309 386
3 365 311 374
3 386 388 387
3 311 386 374
3 386 389 374
3 386 387 389
3 387 388 390
3 388 391 390
3 388 392 393
3 388 393 391
3 343 395 339
3 339 394 347
3 343 349 395
3 348 396 397
3 555 556 349
3 556 555 347
3 394 339 398
3 339 395 398
3 396 399 397
3 395 349 401
3 556 401 349
3 401 556 347
3 399 403 397
3 399 402 403
3 346 348 298
3 348 397 298
3 397 403 298
3 402 399 400
3 395 401 398
3 398 401 404
3 401 557 404
3 401 347 557
3 402 405 403
3 394 398 406
3 398 407 406
3 398 404 407
3 394 408 347
3 394 406 408
3 409 405 400
3 557 347 408
3 405 409 403
3 404 411 407
3 557 558 411
3 557 411 404
3 409 410 412
3 558 557 408
3 386 309 392
3 386 392 388
3 392 413 393
3 392 309 413
3 413 414 393
3 393 414 415
3 403 409 298
3 376 385 381
3 378 384 385
3 383 417 382
3 163 417 383
3 163 382 417
3 163 383 384
3 385 384 418
3 381 416 419
3 381 385 420
3 381 420 416
3 381 419 383
3 385 418 420
3 383 418 384
3 383 421 418
3 421 423 418
3 558 559 411
3 410 425 412
3 558 408 559
3 425 410 424
3 407 411 426
3 559 560 426
3 559 426 411
3 560 559 408
3 413 309 428
3 413 428 414
3 428 429 414
3 428 419 429
3 429 419 416
3 429 416 420
3 409 412 298
3 412 425 298
3 309 332 428
3 428 332 419
3 406 407 431
3 406 430 408
3 407 426 431
3 427 425 424
3 427 433 425
3 560 561 431
3 560 431 426
3 561 560 408
3 561 408 432
3 430 406 434
3 406 431 434
3 430 432 408
3 427 424 433
3 561 432 431
3 424 435 433
3 383 419 421
3 421 419 436
3 425 433 298
3 298 350 299
3 433 437 298
3 298 437 350
3 419 332 436
3 322 436 321
3 322 350 436
3 332 321 436
3 110 166 59
3 84 187 438
3 110 84 438
3 168 180 194
3 193 194 439
3 176 190 185
3 91 92 187
3 92 186 187
3 189 192 195
3 107 179 191
3 193 440 192
3 193 439 440
3 439 194 441
3 190 183 442
3 183 184 442
3 440 195 192
3 110 438 166
3 166 443 333
3 444 443 445
3 443 447 445
3 444 445 448
3 444 448 446
3 445 447 448
3 443 166 447
3 439 441 440
3 441 449 440
3 440 449 195
3 194 180 450
3 441 194 451
3 194 450 451
3 449 441 452
3 441 451 452
3 180 182 450
3 422 454 421
3 421 454 423
3 454 455 423
3 182 185 453
3 450 182 453
3 454 422 190
3 454 442 455
3 190 442 454
3 191 179 456
3 434 431 457
3 434 457 458
3 430 451 432
3 430 434 451
3 432 457 431
3 457 432 460
3 460 432 451
3 459 437 435
3 452 434 458
3 452 458 449
3 452 451 434
3 457 460 458
3 462 459 461
3 459 462 450
3 460 450 462
3 451 450 460
3 459 450 437
3 458 460 462
3 462 461 458
3 421 436 422
3 190 436 185
3 190 422 436
3 433 435 437
3 350 453 436
3 185 436 453
3 453 350 437
3 437 450 453
3 449 458 461
3 449 461 195
3 461 463 195
3 348 303 396
3 396 303 399
3 303 43 359
3 399 303 400
3 400 303 359
3 400 359 410
3 364 464 276
3 43 276 464
3 35 438 361
3 360 438 35
3 410 359 424
3 43 464 359
3 424 359 435
3 444 446 465
3 444 333 443
3 444 465 333
3 446 448 466
3 447 467 448
3 448 467 466
3 465 468 333
3 465 466 468
3 446 466 465
3 466 467 468
3 447 166 467
3 333 468 360
3 468 438 360
3 468 467 438
3 467 166 438
3 361 438 362
3 435 359 459
3 459 359 461
3 461 359 469
3 359 464 469
3 362 438 186
3 187 186 438
3 363 362 470
3 186 470 362
3 186 191 470
3 461 469 463
3 464 472 471
3 464 364 472
3 469 464 471
3 364 363 472
3 469 471 463
3 472 363 473
3 363 474 473
3 363 470 474
3 191 474 470
3 156 369 475
3 366 477 476
3 366 367 477
3 366 476 372
3 476 478 372
3 371 372 373
3 371 373 370
3 475 369 373
3 475 373 479
3 373 372 479
3 479 372 481
3 372 482 481
3 372 478 482
3 477 484 476
3 477 367 484
3 476 485 478
3 476 484 485
3 482 488 483
3 482 478 488
3 487 486 489
3 485 490 478
3 478 490 488
3 156 491 230
3 230 491 235
3 235 492 236
3 235 491 493
3 235 493 492
3 156 475 491
3 493 491 494
3 236 492 238
3 492 493 495
3 238 492 239
3 492 495 239
3 495 494 496
3 493 494 495
3 491 475 479
3 479 480 491
3 479 481 480
3 494 491 497
3 480 497 491
3 482 483 481
3 239 495 498
3 239 498 242
3 495 496 498
3 160 243 241
3 242 498 244
3 160 377 243
3 498 499 244
3 244 258 232
3 244 499 258
3 496 500 498
3 160 380 377
3 498 500 499
3 502 480 501
3 480 481 501
3 562 486 487
3 497 502 494
3 494 503 496
3 502 501 504
3 512 487 513
3 513 487 489
3 562 512 486
3 501 481 505
3 504 501 506
3 501 505 506
3 502 504 494
3 481 483 505
3 488 505 483
3 494 507 503
3 500 508 499
3 499 508 258
3 508 500 509
3 367 374 510
3 367 510 484
3 484 510 511
3 485 484 511
3 485 511 490
3 374 389 510
3 389 387 390
3 389 390 510
3 390 511 510
3 512 513 514
3 514 513 391
3 390 490 511
3 515 504 506
3 512 489 486
3 504 516 494
3 504 515 516
3 515 517 516
3 488 490 505
3 503 507 518
3 512 514 489
3 517 506 505
3 517 390 391
3 517 505 390
3 489 517 391
3 489 391 513
3 391 393 514
3 390 505 490
3 494 516 507
3 503 518 496
3 496 518 500
3 509 500 519
3 518 519 500
3 509 520 508
3 509 519 520
3 518 521 519
3 418 423 523
3 523 423 522
3 519 522 520
3 393 415 514
3 514 415 517
3 415 516 517
3 414 516 415
3 414 429 524
3 414 524 516
3 516 524 507
3 429 420 524
3 418 525 420
3 507 524 518
3 420 525 524
3 518 524 521
3 418 523 525
3 519 521 522
3 523 522 525
3 522 521 525
3 521 524 525
3 258 520 224
3 224 520 248
3 520 257 248
3 249 250 526
3 195 528 255
3 179 259 529
3 259 530 529
3 258 508 520
3 249 527 184
3 249 526 527
3 250 257 526
3 184 527 442
3 195 532 528
3 179 529 456
3 195 533 532
3 528 532 531
3 255 528 270
3 270 534 268
3 268 534 271
3 534 535 271
3 272 269 271
3 271 535 272
3 528 536 537
3 270 538 534
3 270 528 538
3 534 538 535
3 528 537 538
3 538 537 535
3 272 539 259
3 272 535 539
3 528 531 536
3 536 539 537
3 535 537 539
3 536 540 539
3 531 541 536
3 536 541 540
3 530 259 540
3 539 540 259
3 531 532 541
3 532 542 541
3 541 542 540
3 532 544 542
3 543 540 542
3 530 540 543
3 520 522 257
3 423 545 522
3 257 522 545
3 423 455 545
3 527 526 545
3 526 257 545
3 527 455 442
3 455 527 545
3 532 533 546
3 532 546 544
3 546 547 544
3 544 547 543
3 546 548 547
3 530 547 529
3 547 548 529
3 546 549 548
3 195 463 533
3 546 471 549
3 533 471 546
3 533 463 471
3 529 474 456
3 529 548 474
3 548 549 474
3 542 544 543
3 530 543 547
3 472 473 471
3 473 474 471
3 549 471 474
3 191 456 474
3 303 306 304
3 302 551 314
3 335 340 336
3 335 553 340
3 400 405 402
3 400 410 409
3 480 502 497
3 562 487 512
3 517 515 506
3 489 514 517
