ply
format ascii 1.0
comment Exported by Aspose.3D 22.3
element vertex 567
property float x
property float y
property float z
element face 1238
property list uchar int vertex_index
end_header
0.00715924880523527 0.229329314038495 -83.8386051771022
0.278811987730264 -0.566784859465983 -80.8874732089678
-2.10839881731593 -1.09334542547719 -81.9830304147422
0.903868031045952 6.43809225950791 -82.2543471575217
0.203646859602914 5.24086537181828 -80.5532670080755
0.282721493182931 18.6600980273113 -83.6987583139648
0.812055570222291 11.0030241734227 -81.8744986642053
-0.726336273063899 12.356653104318 -80.1667047277691
0.806313958860341 24.7388652146477 -82.0701786762444
-2.45003145475989 17.3380667840187 -83.8771499189555
0.872381943645962 29.7395239841713 -83.8068539219594
-0.708143689845801 26.8548582195484 -81.2002053748879
0.116661265862648 29.1371743364702 -85.0889891585537
0.857329924984211 10.9799932021311 -34.9606952533856
0.421875412311101 5.38726132034432 -2.09229643023567
0.920247964130453 6.51104510075217 -0.602364104703081
-2.54223453696523 4.9745666593679 -80.5325112226401
-3.36069191569745 5.15192933977677 -82.9389037236423
-3.22032920882154 6.51168396535806 -83.8993312045187
-4.24763144820833 5.16604473986581 -81.7985851976964
-4.75184969618959 6.20584886986077 -79.3058678627651
-2.60240708654576 13.6650222664825 -83.8945825923506
-30.2163598188753 13.5478119185288 -83.890112644582
-2.37008721570086 5.12209700885079 -69.6901230490305
-5.05441819228959 6.18197688036876 -74.6554575931455
-3.64812409864543 5.57521753169259 -72.3551976049052
-62.0019495762566 6.39339093423339 -83.8959497664719
-60.1009537179082 5.451279306163 -83.3303429105803
-20.6938944192502 6.21023338561134 -75.152337346098
-59.4297365032324 6.235260205723 -79.1799783648928
-3.7399028905226 15.2495631260912 -83.7217064746739
-4.39664773470767 14.7457000935805 -82.1372323013723
-4.14540307754947 18.438484517781 -82.9698544939154
-10.9196800418923 18.4447792831049 -82.403606778118
-2.72858606784797 20.9760461220192 -84.3260819740776
-3.82852980681683 22.3413346100519 -83.4102646238871
-1.96232143926507 24.1848103621798 -84.5618653317042
-3.38063918169936 26.9675403761986 -84.6764196140084
-2.72933279862429 28.1587236969538 -81.8053712059787
-3.9868406170913 26.5305018388509 -82.4910409891855
-3.6230985289625 25.8686498838016 -84.0518467755573
-12.7102473450094 22.3921123389027 -82.2157571569147
-1.29015202614696 28.1263019948042 -81.3567133771894
-29.3543548634302 14.7332708663075 -82.0820980895546
-19.3069663152702 18.4378298568209 -82.388245463224
-32.4752723764893 21.0067343066611 -84.2604637813844
-20.6815088430443 22.3629766610406 -82.7076668162549
-31.1163826194039 24.3979874049474 -84.5929825844038
-28.9465457743606 25.8100137583603 -84.1105248689238
-29.5070574503394 18.6628201219373 -83.2160742779212
-29.4164978317465 21.9476293010733 -83.7785532881024
-30.0409291994903 26.5106126542162 -82.2086346564809
-28.5985015071881 22.4296930451433 -83.4885952911113
-34.2481948576517 26.6133875314412 -82.1583060299379
-23.2715953298694 5.47674245762132 -72.5697611068362
-34.9720352779517 6.20672357333348 -75.4429204787857
-30.6895596819925 5.46549395175442 -73.0368520673876
-32.7323075425462 5.40021827534265 -73.8376524189382
-29.5201382664017 15.5908208818587 -83.9125595640932
-28.9453852394623 18.4845685486459 -82.0712186181553
-29.2039512990493 26.4425288601679 -83.2874047034151
-31.2335106986553 27.3431492916013 -84.9032174115882
-2.1578356128561 5.04787769998838 -42.3254046552033
-4.94762784647691 6.22114389960359 -68.5983484036611
-0.723428850709852 12.3184519407118 -35.2575072610522
-4.97861710725795 6.21819540553511 -44.1194690632674
-31.9015449387065 6.11142320104209 -69.9936204664312
-44.3864028075511 6.2238254859711 -69.7482674690342
-0.743918054105048 27.6006949710919 -35.2344273959701
-2.16389739373806 5.0498659488314 -21.8348681465088
-4.52300631109253 5.57615851297786 -41.5774637197833
-20.0684186068913 6.21934461538288 -44.6227497308053
-22.0500294118695 5.47710275105662 -41.8120057090325
-34.1640011264554 6.22050789795013 -45.0237243633926
-31.4486308458529 -0.594769342769398 -72.5151122309568
-32.4178442887264 1.68959044504478 -73.396744760654
-33.4028270098054 -0.297238311356164 -72.1597058516447
-31.7683025197132 1.75837460420885 -72.5470657186973
-32.8497001743565 2.4934801047489 -71.6965587925994
-31.3548814566716 0.0628480290144928 -41.4992881751628
-32.9596857804432 -0.157986758286441 -42.6342149398899
-32.2442524786729 2.18531431640687 -42.0156576977825
-30.7362942453257 5.40438555032603 -42.2410578088064
-30.8295314435576 5.01089420353281 -41.0006896463292
-32.4688646917995 2.71405000750743 -42.5677818741593
-33.0815253388891 5.52239199193523 -43.0869812183638
0.143482695742634 32.6884273306064 -82.6769654245515
0.159361283128199 36.8406786663558 -83.5882518935459
-0.0685568329226616 39.7387024221659 -87.6116214446753
0.838450119962557 41.3235836982762 -86.7371690185252
0.320759741662283 41.0334725859728 -84.9813544247362
-2.58162173101115 33.237523901989 -85.9793223656799
-3.30124032345569 30.9173921964773 -85.4579842419888
-3.43415418221387 31.2835506725405 -82.4891835229566
-3.9431127034723 29.7889551005345 -84.6729940094393
-4.10470116626914 30.2048833380076 -83.7612860052834
-4.57331043675906 29.5557560483512 -82.2605016072819
-6.09773193263174 34.9059384253669 -85.6324880532189
-28.3081015289318 34.810320805882 -85.5889549383202
-3.22453326554854 38.0198948420513 -86.9933701397664
-3.09109255728671 35.5690001146903 -86.5269292448895
-3.85695133697018 37.3153239669011 -85.9342126850331
-3.84724213314002 37.9715913746552 -84.7574897694739
-2.98621498008287 39.2756768090865 -84.2069941946398
-4.27199627348752 37.4665702972671 -84.3924555374258
-2.46244647626301 28.6563777839269 -80.1716887054774
-30.4800909888433 32.0799830908923 -82.5180659768271
-32.759568543585 30.9879695759537 -85.5104946575226
-29.6789442309232 30.7225872328222 -82.7625155653559
-31.5511435387759 28.6898621219448 -85.2430972700339
-30.3900699727604 27.8781480219266 -81.7829567569951
-29.2218244736894 30.1243584006874 -84.3502590784919
-64.7287712342196 40.7068555633401 -84.7501333975556
-64.4877577953441 40.7616069557112 -87.3772485682222
-63.7854669565365 41.4395852952581 -85.9296721988351
-61.8333307597855 28.6503550700999 -80.2131867989767
-28.7288238292811 29.9640882080965 -82.60578796464
-32.0825917324848 33.0124946571215 -85.9656523900714
-30.4203741921667 36.0478572659165 -86.6133570676786
-29.479039753681 37.6592954642745 -85.440470404356
-33.7966234145229 39.4750352518379 -87.6389449353862
-29.5722539818845 37.7245301722823 -84.8036487964851
-32.8500659308885 39.2290473557871 -84.1950984489827
-29.8073902608516 38.2566368387771 -87.1311253980627
-31.5800458073125 36.8382104859343 -83.5813300802865
-62.766725806432 28.1224429479376 -81.3573041035195
-34.3439979822535 35.5363837068069 -86.3606634962192
-40.3023863355991 28.6515174385786 -35.2472018586661
-2.43031652458697 28.642997620108 -35.2855903106456
-16.8036020588452 28.6515371937511 -35.2799636171422
0.149882941037661 12.9410588823518 -33.3157365126516
0.820317553447855 10.9136796898366 -21.4618402806936
0.812686349187366 11.0937286710814 -1.61930574278277
0.62155484024259 -0.0466742457684766 -1.66935841294015
0.558449652807686 -0.173412974648468 0.257985333500058
-2.02235587866819 -1.03931651184687 -0.284387325889834
-0.532534689785113 0.552534502630655 0.881454203414097
0.325002280342481 24.1137841313766 -1.9871990064925
0.917301476789576 34.3683529569693 -0.384622110890801
0.135136545893205 32.2915107947124 0.795866055063316
-4.93657054977972 6.21877705602116 -37.6126273187273
-5.14389183885714 6.22212445601829 -13.2671458964875
-39.9028986729089 6.22187093009346 -38.4091326058452
-23.1309413350738 6.2206404210448 -14.0658321793865
0.114397829719805 28.4697977838939 -33.665021771176
0.131485693207021 13.4514716550784 -21.1945011201401
0.106547011392685 28.4806468322531 -21.1044743307995
-0.827163222047505 12.3895135702589 -19.1127792549849
-3.59502182977944 5.53135283814114 -10.8018936250549
-2.46540639536912 5.01476863054064 -2.40659247245334
-0.93129279812343 12.3404597184002 -2.35707607189601
-22.0551650296433 5.48467505228448 -11.0249718547786
-0.891651606532079 18.0534614289631 -18.7277864683278
-0.941842999105717 27.5100701314141 -19.0034987554066
-0.902435751912039 16.9668789184856 -4.24438471412166
-0.910559251441279 26.9464349074387 -4.15754587109257
-32.9697507326063 3.41103919860133 -40.790461813555
-31.3748260307932 0.395286081674265 -11.582577985402
-33.1324680774043 -0.346327452255527 -11.176522649267
-32.6323649361089 1.80950586530158 -10.5657607162727
-30.5732384865678 5.41119801629416 -10.8591692305313
-32.1048220799598 6.2032289504656 -7.93918198543914
-33.1166431525997 5.51551885603931 -12.3190517325212
-31.6565160453488 2.70262255488228 -11.6373756761187
-33.4171745243264 5.61407160216975 -9.82595963963908
-5.28275135260624 6.22689843656631 -7.34989531831447
-5.08199884907399 6.2642159633526 -1.99241935659495
-3.80398362265336 8.10219234112516 -1.11700394927748
-1.69578556497903 0.642581084658968 -2.00549494381254
-2.80014706922099 3.58355481176761 0.520810647245426
-1.81610887174992 26.922441591512 0.911795783962812
-59.8291139266934 6.22988301059276 -2.01960886311307
-1.49248012591288 17.0159562895771 -2.34549007485773
-3.87030896700609 17.9719873115622 -1.28482673523052
-1.44275245456888 28.0643176358853 -2.20547527314027
-2.70900983437989 19.6079391679417 0.864187859196365
-33.8493891589416 26.9200897257872 0.877657385966401
-62.2813896612989 20.2499282494581 0.897355216818236
-29.6291426318985 27.4283151254997 0.725175735653874
-60.2044758366265 18.0340185070091 -1.21335505082618
-60.9729180325541 19.0745203878204 0.381055641020701
-1.03576245462902 34.7262013723581 -2.09861595582033
0.538054695303337 39.1552838586442 -1.26319667295112
-0.0100361367742101 41.4022192877184 1.98580999345848
0.952903196238734 47.0515579483831 1.41926546880363
0.323059197795693 47.6585006180553 0.192416507171444
0.356505281991248 46.7898646168115 2.81859881170795
-0.0947212901927514 54.1295748540938 1.65115979205552
0.0581211261529315 53.4857615154335 4.63644732525023
0.731160129428377 54.9280695406818 2.85076762212918
0.588536108779692 54.4957441616889 4.24745133306368
-1.6393327749627 29.4071396303032 -33.3058657837337
-27.8280001774899 29.3713239742491 -33.4532904146904
-1.59264243490735 29.389630533551 -21.2943442601293
-62.6145746670581 29.3981477637371 -33.36220014524
-2.61588294188047 28.5491522041758 -19.3886648938425
-4.10999154504221 28.5865395394227 -16.8743246656217
-7.21107316990887 28.6737581356227 -18.3933301866135
-5.87929722129839 31.2890512962131 -13.374049775306
-8.64283575386203 28.6217341467078 -11.44052069639
-6.01153581133075 29.6731999963315 -13.1015719053927
-9.11300922044128 32.0799457225802 -17.1214688741468
-17.3368092515809 28.5179570226986 -8.60837430824361
-6.03035650742758 28.3776148218159 -7.32864194138042
-8.74090575122894 31.062107952614 -8.89879128086932
-9.06917812262986 35.9249669636366 -11.6133264036251
-5.26070135403677 34.9338167263557 -6.70525694796447
-4.41872164411338 37.5509176218855 -5.84959246180738
-6.63529558379599 37.017010679148 -8.1630063263724
-20.3369258819312 28.3710646549605 -19.0177187434219
-16.7293833662708 35.4929671037657 -12.1804402490998
-26.5187694784185 32.8222212501369 -16.0875139127672
-25.3847511587981 34.3162875912111 -14.3195738360034
-18.3807531017424 28.7251454267465 -10.5170404767401
-31.2040661077517 28.9600702528538 -17.7540865748895
-25.2368509001129 28.4120172246939 -7.3579967472479
-25.3461430676125 28.7568082368767 -10.6561882845352
-28.2889325403295 30.9128468949888 -8.88337051472359
-31.3754077762559 37.3062726878597 -7.02365682653445
-32.6159435934971 28.3859605691231 -19.0124112429385
-34.3511819420484 29.0524476736282 -18.1385121360265
-28.4361333898197 28.5510218956677 -12.9393745775283
-31.4449431320594 35.4217069630475 -8.56115228176418
-30.9772831754097 32.0366523420428 -13.2037445724966
-32.1667298007296 28.6393174727528 -14.3859170152733
-31.2651448867736 29.4502542900338 -14.6886559648664
-31.2661518085139 35.8471834394338 -5.13228397680516
-3.45792136726774 28.4368153932829 -1.59262222889695
-5.90880082492664 28.4938504664184 -5.25870458594203
-5.97710063102484 30.0756154377159 -6.84901838161969
-8.50330081571314 31.2184471724754 -8.0493363965552
-7.49081301690259 33.5616246248882 -6.748762679645
-6.53595048889911 32.587351454305 -4.78303244570172
-9.42110289984725 32.0533833684042 -1.74528980164477
-7.84550169933563 34.5503077964419 -2.08207402324092
-7.39327354494808 36.4240527254255 -5.04338208386182
-6.28444308968632 36.3887887623447 -2.90663323189446
-9.70939882613692 38.8532907110661 -5.64190547200187
-10.0594942283782 35.8377317334075 -0.0375904795758206
-5.52726425629545 41.313621588407 -2.01259872759925
-5.88906202715069 35.938250090601 -0.919845188737387
-5.68400916360911 38.4477675867622 -1.83553965199461
-6.54925519030036 42.8809726755492 -2.23501973323241
-2.69150598035226 30.3677285496387 0.998733778817146
-3.08818015246189 30.702952435068 -2.19246240033545
-3.32099935611485 32.5447773613501 -2.00454067111305
-3.97487310358845 28.4607205767125 -0.11994424616671
-4.52426221778916 27.901753019452 0.0587688621686482
-4.01922224609294 31.7471491857723 -0.520402092299964
-3.10175533415881 34.7634085869747 1.15364577751665
-4.07999497531825 35.7916603006149 -0.13104006784959
-21.1143982433959 32.4182474530252 0.74343277153444
-2.79913353995529 39.953909736314 -1.30296188968135
-3.40784379849767 38.4843609299491 1.51343278503713
-6.46324414734083 39.6359290607388 -0.240640406584973
-4.05881140377703 39.5032935351919 0.617747641815271
-5.13262360973772 36.2139647843422 0.997368342315767
-2.80290474443576 46.7180530384476 -0.197189576983888
-5.65963556868996 39.8442077012997 1.00918232851401
-4.98285888030129 43.6170874815868 0.0444273147591083
-4.34052163587343 43.460100789182 1.64516961504867
-3.61847584972731 44.1110455247916 2.29498014352053
-11.8048727603301 28.3859683529661 -7.21698544908525
-14.9940072424688 30.7926402023797 -7.36243461947037
-15.2956664974423 30.7214695438902 -3.07756552658191
-16.2617437373207 31.7807388858311 -1.07853460093094
-18.0004403755523 28.1254911057304 -7.14370207664781
-23.5174339618561 28.656972261594 -5.10592307424374
-33.2652841628158 28.5570165663308 -2.82646408632313
-16.0598857163527 30.61124076037 -2.24422194803839
-16.3631186423445 37.9713590011797 -6.25375961050071
-20.1707110201944 43.6451779745755 -1.16052394636225
-31.491218282733 43.0408799204044 -2.01422926162275
-23.9080570811564 28.8631003891875 -1.81779204651104
-30.1426287589553 28.8566416979118 0.364037579942291
-32.2034409247523 29.9513987911419 1.04441944626041
-29.4610343087256 28.3259464718723 -0.828869859109684
-15.9856662121346 31.6021278931077 -0.153716730799658
-29.4520954182326 36.2782905599839 1.09249671425413
-30.1611492319634 38.3533888889379 1.53145750410378
-30.4766070638975 40.1381991325532 1.43082421946911
-29.5442432499717 43.2052827241889 1.8412708868433
-32.0078007655996 41.6984568734038 2.05619571765344
-3.99635711415265 44.7644631578573 -0.480748901398199
-3.36453052720708 46.3446585099866 2.70695955392342
-4.13130826245185 47.3926292278616 1.68575654487752
-3.68406582743777 48.5254935211813 0.200129841701797
-3.23773045291197 52.5336594425485 1.21131958585074
-3.35043297134315 50.7319094661811 0.973256555656008
-4.12459951739227 51.2815461068271 2.92770430153492
-4.52148647330718 51.0908789270945 2.33532773435033
-3.3744640919051 50.2608512790107 3.59167880775621
-3.98777819837198 48.0990692918036 3.21518547408226
-3.84683832721292 52.0428491733926 4.28395917115486
-29.5113886322664 43.8491194286579 -0.232534598666563
-30.2104253835043 43.7795384354902 2.06763226172333
-33.6185801627712 46.5847842431593 -0.267224095464819
-33.3114137722217 45.8354633343592 2.75497683611818
-29.6330349597201 46.7812138750203 2.34423652646151
-29.3170621746686 47.285388812742 0.776313418038555
-29.4284125677027 47.81622300577 0.804235820288554
-33.9318544830647 48.6029085029403 0.204996050713333
-29.6896322446086 47.5753666694722 2.67763448310584
-31.393869391667 52.7925194811627 1.16593696203762
-29.2220020154609 51.1542757343881 2.86947563894613
-29.6126515648199 51.3751306510011 3.62925552655363
-29.2981307640938 28.4035325929869 -4.86445120863189
-18.6565733662768 31.0188006299515 -2.01845147807894
-22.4814563396239 31.7428400304088 -0.976243693563731
-29.518677653975 31.2588614912079 -7.53422516721612
-23.0348169206626 30.1065462408274 -2.51598959287242
-25.7996581520959 31.510579489813 -1.00603741141453
-28.7504941193702 38.5372996438199 -5.24897213429523
-25.1266593222811 31.3708264908267 0.157609059171378
-32.8012209631294 34.1025723163596 1.20921625525878
-29.2291646093759 35.8499317475426 0.328034069316958
-29.7702007152502 39.6905506934029 0.192629345039453
-30.9192900717139 28.3503246312297 -7.13754464456448
-25.9705347229848 30.4016887037518 -2.33596153347863
-28.263019071978 32.3165603490509 -2.33567115225886
-32.7265285356924 28.8175144171939 -5.02106489144575
-31.9281580123286 30.7009988771256 -6.73012290045068
-32.2274825669416 31.6564374817587 -4.90919048982692
-31.8120707404176 29.4773558907774 -2.40201281601832
-30.4734904790058 34.5315754949054 -2.19187859592622
-30.2146378839825 37.3150538961635 -5.03349495576909
-34.1435525357439 36.3025219792651 -5.25121118663719
-31.9835393678769 34.6198638807326 -7.07383288179443
-32.4965159710664 38.4245818611728 -1.99274651415002
-32.3424101217698 40.7111362207045 -2.80799111291863
-29.5792501834531 31.697904080729 -0.1653650169924
-30.3465703041108 31.181140276932 -2.08249531175554
-32.0512643080324 32.4361800785199 0.901785642385029
-33.6224226724649 35.1220124533383 -1.97980177388612
-33.5656112782032 37.5103044981791 1.53664157867451
-34.2080462307402 38.8749535785857 1.28280246751828
-33.3161917846103 44.7025017953508 -0.497374182675884
-30.0116275965532 50.6786008200127 0.811740807758639
-33.8704012000642 48.0979249216444 3.2392687439176
-64.5251924468998 54.8946850117524 3.33810482684856
-33.5781682397273 53.3458422052344 4.67479837842111
-64.3801248790359 54.5036584371672 1.86758087902984
-32.6187240770222 49.7603718573049 3.65540930663326
-62.3199570191818 13.5921225079159 -83.8921904519876
-33.6509066595542 5.4358406825226 -72.1298079077831
-42.3049138922667 5.55448176478595 -72.7800346019786
-60.3095771707746 5.00715269873204 -82.2738669754517
-59.3777519099324 6.22507190535372 -75.2158158787907
-34.5827931065495 15.2399834138852 -83.7133101343011
-34.3982251536673 13.8992661302721 -83.5622324994043
-35.2542480156218 14.746527944712 -82.1381622970647
-34.0487308639382 17.3773035224845 -83.8190771620807
-34.1873626738734 19.2839426515534 -83.9133267143284
-35.1515492938219 18.4560034604783 -82.1491560788252
-44.7851035243692 18.4515589256219 -82.2950889436096
-34.6790447939098 22.9952438942146 -84.1955786787334
-35.200097080226 22.365402927214 -82.9160045285217
-34.8602053307364 26.3242514105329 -83.6509563740481
-34.7508393204223 26.6198951301624 -82.6384636090587
-42.8937347844096 22.3638366537272 -82.5970342791472
-60.5089490796244 19.2297367978508 -83.7450318120445
-60.4959319012629 14.7349957575562 -82.082805181071
-60.2703417767108 22.2805359686452 -83.471184709709
-64.2328546748868 25.1442663628559 -84.4934660158183
-61.1652205035691 23.0902820088627 -84.2489872890897
-60.3244307535965 25.8223198836524 -84.103038014075
-63.4268418069204 20.6648390489838 -84.2867895083902
-52.6788730863703 22.3531118103653 -82.5607787097093
-62.7407301452937 27.6870616189917 -81.7533312224133
-60.2555209153916 5.58851584019801 -72.9404092521481
-62.0949992708727 -0.982425738957728 -81.9289127514134
-61.5140562882895 2.03992038719872 -82.960671014823
-64.349784742021 -0.0466645104860106 -83.6737811185981
-64.204025290318 -0.0591076453767272 -80.8346689197571
-61.7348616508939 3.70601439057657 -80.9282267805714
-64.2823402748159 5.22825415642695 -80.7642300006319
-64.5586399535333 18.8954450189435 -83.4767927654529
-61.8911772713765 5.06489200239432 -79.403947401588
-63.2842451912773 12.410215613533 -80.1987239051348
-64.833012334983 11.0869817067213 -81.497052858166
-60.647856819279 17.8349260031004 -83.4720998743836
-60.8843491519592 15.4268316574094 -83.8544230776588
-59.4407570173809 18.4892412641608 -82.219168747656
-60.1491778549883 26.4835107942553 -82.4923961602337
-63.2960466930525 26.8879651754887 -81.0167759345537
-64.8741364931782 24.872307507409 -82.167410890443
-60.8775879248254 26.9257488691794 -84.5664912058849
-63.2784465394568 12.4097357176329 -35.3450581390346
-59.4001629478241 6.21908616924464 -44.9939097989443
-33.2198058687326 0.0851360687795903 -41.3734812897062
-33.704994627884 5.59454591255487 -40.9926224134009
-42.4729887022083 5.50258276608813 -42.3702555771293
-59.381685611721 6.21999964117973 -70.0756694187386
-61.6052371126847 5.07261077561199 -41.6955501016084
-63.2510234825373 27.5538028885828 -35.3193616371188
-59.9092992524781 5.52681130612425 -42.405194256741
-64.3106985165542 5.27867673286388 -2.24873155094607
-64.9081782694517 6.67822781748617 -82.2101161713559
-64.9044409433988 6.56682907572093 -0.524314542922625
-64.8545459060653 10.8499177422229 -33.306657711271
-34.6499266356606 30.0419828329794 -84.4232203737685
-34.6155141066246 30.8193428898986 -82.7186115491128
-34.7900918857948 29.8561026180603 -82.4230046843176
-58.2861262168856 34.8259974196785 -85.5817300993307
-58.771894763916 33.4212632882773 -82.8248570672208
-60.2071971365137 30.243765157846 -83.5439670020373
-34.6842464047856 37.2775518448399 -85.9704978018755
-34.518067383703 37.9097358340832 -86.6647979503506
-35.0461924722977 38.001233780789 -84.7244510459185
-34.7795299188714 37.5613851913543 -84.421687135423
-60.9034794133937 31.010755586965 -82.6043965425424
-60.7162634449275 30.3227772876903 -84.7544321607377
-62.9190474944554 28.7218362845001 -85.2694750599902
-60.168034441025 29.7623922306107 -84.6748883234382
-64.3245503623872 32.3215177060317 -82.5632348828906
-63.3910974392561 39.5104429779448 -87.6413380230383
-60.3410521630462 37.6461100634343 -85.4205862875871
-61.3810785841631 36.0444327770333 -86.6140580025532
-60.4783184366826 38.0725477388122 -86.8942485465542
-61.6395979271964 37.3683687163509 -83.8189478084615
-61.4065966401733 38.7835393798187 -84.1598764012148
-60.0546230104944 29.500702085385 -82.1634449097364
-61.7813155272407 32.3764611417481 -85.9609428671325
-64.892763987522 33.0121990109739 -85.0094273866095
-61.8069542552454 28.6484619114705 -35.2226115781677
-42.425419886277 5.51897286720003 -11.4475191275645
-43.8325005825746 6.22159352708989 -7.85295994101941
-59.3991746055672 6.21949282181982 -39.2282748618914
-59.3705000904548 6.21631589378128 -14.0736208802838
-64.1416083044444 12.8877832757428 -33.2242730939561
-64.1191421004967 28.4381903608047 -33.4590292196298
-64.1880816583303 11.8567137582624 -21.2936688803604
-64.0836588573744 28.4048598949989 -21.1090183006923
-60.571538291794 5.45296760780146 -11.6323576342268
-61.501676217516 5.02476311304436 -2.74093372810368
-63.2193184132752 12.4213122313415 -19.1327426481554
-63.1529243769264 12.4227594563796 -2.69466003379772
-63.1089817448959 17.6113265590953 -19.0048270451375
-62.9473077840266 28.1275536842088 -19.0973632965429
-63.0790685735241 17.6020791600753 -3.83713944691717
-63.0709316790146 27.3088709401237 -4.56672551610566
-60.2682204993508 8.34469630226015 -1.11749515391051
-59.3588602747341 6.22354609145185 -8.32872616893241
-61.2505158742666 2.81628246325931 -1.27293136582596
-62.5748019665593 12.46415165545 -2.36354068676178
-61.8716320078928 -0.751164326830519 0.242749503972722
-63.3496138813817 0.759605387125341 -2.42359974509357
-64.7883545261253 -0.776711468273124 -0.875772771778982
-61.7242741982398 4.00795053099648 0.818611688782427
-64.3773823520943 -0.0542366212233532 0.584668018416181
-60.3353404698803 27.388187726916 0.80347782339441
-62.5747500291303 27.9990364630321 -2.39668684267987
-64.5085855480513 32.1169794521455 0.6006912189643
-64.3800851541341 32.2284519045556 -1.95204959071958
-64.8674769048136 10.9478693341974 -0.943692516856535
-64.9078972848884 38.6074520057437 -0.363096318706898
-62.7132005332202 29.3838170350096 -21.2880115415004
-47.095651110911 28.3621187775305 -18.9791323530637
-35.5971343648176 32.0506758463125 -17.1951240682943
-32.4619598271648 32.4393285655646 -12.1514623327074
-35.5755289861336 36.0219698136268 -11.4710417638845
-35.686119565882 28.6025198228626 -11.3412874229412
-42.6374451926321 28.3121791268095 -7.25008012074727
-35.2157231933112 31.5387565208355 -8.19746945468939
-43.3603237322441 34.5265261656602 -13.9769620170057
-44.1893391008744 28.6389531735735 -10.5810877953881
-41.747870437424 31.2321206272002 -8.05934680144941
-52.8642386426329 32.8913913813815 -16.0730489812287
-52.3878818404377 34.1723835090165 -14.4766158373599
-51.9319553776018 28.7939913750058 -10.5880333901405
-46.286775355205 37.7029184833726 -6.42175367231607
-56.5892424950721 28.3286337234327 -18.615879559291
-53.9202986518434 28.5499007053451 -12.2295947843603
-55.2221235575963 31.3785649581289 -8.15452516657956
-57.933775254462 29.49124515174 -16.4489342910809
-58.6357770861928 28.5629234630042 -15.7098550871979
-57.4328397126752 33.6795772472485 -11.1321481398261
-55.6003180587479 28.4249967383603 -7.45236293113081
-57.3154525057723 31.0893883250061 -11.8289725775772
-61.5019701114267 28.5393355766522 -3.22643705232717
-37.9172864437217 28.0144818666506 -7.13952083744471
-34.3533675079581 32.5286916236244 -7.14256010722065
-34.0131270984944 34.3820151348631 -5.85826601789406
-36.0354925372186 31.5187899600932 -2.21542909952429
-32.8607992581764 35.7545326558323 -3.02766906965892
-34.6624098072697 31.6169772696399 -1.43803253746997
-41.5465426186637 30.3392620406383 -7.35828405319929
-41.2819827890796 31.698066320008 -1.74162828299983
-35.0301487148006 37.7807697425215 -6.32743901275875
-35.8916277014308 39.6994467376001 -4.98998015821803
-36.4692554885058 35.8052913376448 -0.317466263187356
-44.0623606450588 43.5645601216212 -1.17778149183179
-35.0619358963321 28.8800116592682 -1.73502103178244
-34.8847056008519 28.3130210318263 -0.53122935294703
-34.6263216357057 28.879655779091 0.389092949800641
-34.9585602610441 31.7884404610453 -0.175343639356715
-34.8130327732454 35.8386796426988 0.595224474157343
-38.2820537780573 35.315238928747 0.785890559356758
-41.8592522570091 30.5955917212653 -2.24595648894448
-41.9088626213544 31.6265741790643 -0.164171287686216
-62.0567549071498 29.9243239521469 0.991518673809096
-35.1461794336955 39.6486765791477 0.738111040825444
-35.125203206266 43.6166519889226 0.157092132361578
-35.3154039498878 43.2503219547834 1.76552131294343
-34.4276685228637 44.0814875667408 2.29916382939728
-52.650998710342 28.4363962398985 -5.03723797162831
-44.9690307109046 30.8902675292505 -2.10558651039931
-46.0988881847289 31.3582999037442 -1.07251912714314
-52.0032983642062 28.207382005358 -7.1251767666582
-51.385498102099 29.9033786512747 -2.45256971944696
-49.4841465071364 31.9617167427931 -0.126359863103502
-57.7673223958264 37.5766707935701 -6.4372594400719
-55.7385291589871 38.2394559665664 -5.48012777294517
-60.4297762163632 28.4473190734847 -1.40278653872323
-52.0221594548536 28.4364489260923 -1.31975025639202
-51.6539742677884 31.6395119778791 -0.209061517025511
-60.9288330379137 28.8497445212566 0.362915619014331
-63.1702881105644 32.8396720038533 1.06773085756906
-60.4983469775009 35.3003676976369 0.820357285047322
-60.1682553546908 43.4805713071372 1.64656058929994
-58.197670133819 39.6417352756464 -0.172417019729096
-60.4331684885948 39.9533818238898 1.09422623786544
-35.0102347293198 47.3579422984653 1.80683267543994
-34.1425148946521 50.7325730379327 0.971764025507525
-34.9580034154326 51.0249927366516 2.81967024455387
-35.0070532781905 51.8366120138098 1.71934518415203
-35.0569549776211 51.3634620027546 3.58001466308354
-61.2717293234263 52.502808111641 1.25925626252918
-60.2637243413105 43.8976993756548 -0.24877036675942
-62.851914450522 44.198095125879 2.38435552389415
-64.1538202792171 46.1206471873562 -0.388607991810591
-61.3365035191139 46.3254318508353 2.76064887007248
-63.7188888178973 49.0061648717047 0.239736533343283
-60.853447839525 50.5204602442867 3.41207908166832
-60.1733046622417 47.2854169948535 0.776345029285714
-60.3200232510456 47.8544222209005 0.745023511028805
-60.5661383050844 47.5875889085911 2.71950349550274
-61.4809509410986 51.9931884355407 4.25862943513761
-60.3674104896588 51.2114233353788 2.77093991981333
-56.8856271162983 30.4483027240949 -7.37564577775698
-54.7480356356624 29.5001473305555 -3.75748277408465
-53.1324864680722 31.3020915076301 -1.99268293929261
-57.3982554566494 34.7549275001859 -5.85246918730579
-54.7502290457184 32.137366929912 -1.47117484751496
-56.9945417601237 34.4982424108233 -2.40948861399978
-58.6811229282142 43.1615697901255 -1.8686853119971
-57.4260611411232 35.6984656576151 -0.801388654256641
-60.2517082886615 39.3512667248708 0.904447395399878
-60.4806568624101 36.0696024997228 0.877265655798297
-64.2743072040773 41.2961527791546 1.92178711238029
-61.5887492615016 37.5346348913929 1.55138585469576
-59.0718353375474 28.8858638634902 -6.02772145431114
-58.3301041906986 33.4560648862508 -5.29057879119304
-58.2695251384017 36.070969150611 -1.55461411359343
-58.9131307172207 39.2413095715479 -2.33704063560492
-61.1271076165011 30.6835482293953 -2.23052183263839
-60.4083108935235 31.8089229198821 -0.228318783541656
-61.285501735579 32.9716752908931 -2.16871116182653
-60.5262218387274 35.6431264342113 -1.44577110718422
-60.7914870337696 39.3402931074751 -1.11461494067848
-60.2305652560162 41.5820874580053 -1.23735543921217
-63.8820238095005 39.7335746514467 -1.49171577891877
-60.3863760204567 50.6403235222151 0.877224578002981
-62.7718183295581 49.3918748237308 3.6602271976741
-64.247447271757 54.1865620445955 4.54423647137908
-64.7699510316294 48.8424559018031 3.00069601129385
-64.9192851484252 49.5606688189888 1.3981741423529
3 0 1 2
3 0 3 1
3 3 4 1
3 0 6 3
3 0 5 6
3 5 8 6
3 6 8 7
3 5 10 8
3 5 12 10
3 3 6 13
3 4 3 14
3 3 13 15
3 0 2 17
3 17 2 16
3 1 16 2
3 1 4 16
3 0 17 18
3 17 16 19
3 5 0 21
3 0 18 21
3 19 16 20
3 16 23 20
3 4 23 16
3 23 24 20
3 18 26 21
3 17 27 18
3 20 24 28
3 20 28 29
3 24 25 28
3 21 31 30
3 21 30 9
3 5 21 9
3 8 11 7
3 9 33 32
3 9 34 5
3 9 32 34
3 5 34 36
3 5 36 12
3 12 36 37
3 11 38 39
3 34 35 36
3 40 39 37
3 36 40 37
3 11 39 42
3 22 43 21
3 21 43 31
3 9 44 33
3 35 41 46
3 36 48 40
3 36 47 48
3 34 32 49
3 34 50 35
3 45 50 34
3 33 49 32
3 35 50 41
3 40 48 39
3 35 47 36
3 35 52 47
3 35 46 52
3 39 53 42
3 39 51 53
3 19 20 29
3 27 26 18
3 29 28 55
3 28 54 55
3 54 56 55
3 30 31 43
3 30 58 9
3 30 43 58
3 50 46 41
3 48 51 39
3 34 49 45
3 33 44 59
3 33 59 49
3 9 49 44
3 58 49 9
3 49 59 44
3 22 58 43
3 58 45 49
3 58 22 45
3 50 52 46
3 50 45 47
3 52 50 47
3 48 47 51
3 47 60 51
3 47 61 60
3 4 62 23
3 24 23 25
3 23 63 25
3 6 7 64
3 6 64 13
3 25 63 54
3 25 54 28
3 54 63 66
3 7 11 68
3 23 62 63
3 62 65 63
3 4 69 62
3 62 70 65
3 63 65 71
3 65 70 71
3 71 70 72
3 7 68 64
3 66 63 67
3 67 63 73
3 74 76 75
3 74 77 76
3 74 75 77
3 54 66 56
3 77 75 56
3 56 75 57
3 77 56 78
3 56 66 78
3 63 71 73
3 79 80 81
3 71 72 73
3 73 72 82
3 83 84 82
3 83 81 84
3 82 84 85
3 8 86 11
3 10 86 8
3 10 87 86
3 12 88 10
3 88 89 10
3 10 89 87
3 89 90 87
3 11 86 38
3 38 86 93
3 12 94 92
3 94 95 92
3 38 93 96
3 95 96 93
3 12 92 91
3 91 98 97
3 88 12 99
3 12 91 100
3 12 100 99
3 101 102 99
3 100 101 99
3 87 90 103
3 102 101 104
3 87 102 104
3 87 103 102
3 91 97 100
3 92 95 107
3 92 107 91
3 86 106 93
3 93 106 108
3 95 93 108
3 37 39 60
3 37 109 12
3 12 109 94
3 39 38 110
3 60 39 110
3 86 87 106
3 107 95 111
3 95 108 111
3 88 113 89
3 90 112 103
3 97 98 100
3 112 90 114
3 89 114 90
3 42 115 105
3 94 116 95
3 109 111 94
3 38 96 110
3 95 116 96
3 94 111 116
3 110 96 116
3 109 37 61
3 60 61 37
3 107 117 91
3 91 117 98
3 100 118 101
3 118 119 101
3 99 102 119
3 99 120 88
3 88 120 113
3 101 121 104
3 104 121 87
3 101 119 121
3 102 122 121
3 102 103 122
3 102 121 119
3 112 122 103
3 99 119 123
3 98 118 100
3 99 123 120
3 121 124 87
3 106 87 124
3 42 125 115
3 53 125 42
3 98 117 118
3 111 108 116
3 60 110 51
3 111 109 107
3 51 110 53
3 116 106 110
3 116 108 106
3 118 117 126
3 118 123 119
3 118 120 123
3 118 126 120
3 121 122 124
3 42 105 128
3 11 42 68
3 42 128 68
3 105 129 128
3 115 127 105
3 105 127 129
3 13 64 130
3 13 130 131
3 15 13 131
3 14 3 15
3 15 131 132
3 133 134 135
3 133 14 15
3 133 15 134
3 15 132 134
3 137 138 132
3 132 138 134
3 134 139 136
3 138 139 134
3 62 140 70
3 62 69 140
3 70 140 72
3 72 140 142
3 141 143 140
3 64 68 130
3 68 144 130
3 130 146 145
3 130 144 146
3 69 141 140
3 4 14 69
3 69 148 141
3 131 147 132
3 14 149 69
3 69 149 148
3 132 147 150
3 141 148 151
3 141 151 143
3 130 145 131
3 131 145 147
3 145 152 147
3 145 153 152
3 145 146 153
3 147 152 154
3 152 153 155
3 152 155 154
3 140 143 142
3 72 142 82
3 83 156 81
3 82 142 83
3 157 159 158
3 143 151 160
3 151 161 160
3 143 160 162
3 160 163 162
3 159 160 164
3 163 160 159
3 160 161 164
3 148 166 165
3 149 166 148
3 149 167 166
3 133 135 168
3 134 136 135
3 133 149 14
3 133 168 149
3 168 135 169
3 136 169 135
3 136 170 169
3 169 167 149
3 168 169 149
3 148 161 151
3 148 165 161
3 165 171 161
3 165 166 171
3 147 154 150
3 150 154 172
3 154 174 172
3 154 155 174
3 132 150 172
3 170 175 169
3 167 169 175
3 167 175 173
3 132 172 137
3 137 172 174
3 136 139 170
3 176 170 178
3 167 173 179
3 175 170 176
3 175 177 180
3 173 175 180
3 173 180 179
3 137 182 138
3 137 181 182
3 138 183 139
3 182 184 138
3 138 184 183
3 182 185 184
3 184 186 183
3 186 184 188
3 185 189 184
3 185 187 189
3 189 190 184
3 184 190 188
3 68 191 144
3 68 128 191
3 128 129 191
3 129 192 191
3 144 193 146
3 144 191 193
3 191 194 193
3 153 193 195
3 153 146 193
3 195 197 196
3 153 195 174
3 153 174 155
3 195 196 174
3 196 198 200
3 196 197 201
3 196 201 198
3 196 200 199
3 199 202 203
3 200 204 199
3 200 198 206
3 200 206 204
3 198 205 207
3 205 208 207
3 195 193 209
3 195 209 197
3 198 201 205
3 201 210 205
3 197 211 201
3 201 211 212
3 201 212 210
3 199 213 202
3 199 204 213
3 129 127 192
3 197 209 214
3 214 211 197
3 213 215 202
3 213 217 216
3 213 216 215
3 212 218 210
3 209 193 219
3 219 214 209
3 216 221 215
3 216 217 221
3 211 222 212
3 211 223 222
3 214 223 211
3 219 220 214
3 224 221 225
3 214 225 223
3 221 217 225
3 212 222 218
3 225 222 223
3 225 226 222
3 217 226 225
3 174 196 227
3 196 203 227
3 227 203 228
3 196 199 203
3 203 229 228
3 229 203 230
3 206 198 207
3 206 231 204
3 229 230 232
3 231 232 230
3 228 229 232
3 228 234 233
3 228 232 234
3 235 232 231
3 232 236 234
3 206 207 235
3 231 206 235
3 207 208 235
3 235 236 232
3 236 235 237
3 240 236 241
3 236 239 241
3 236 237 239
3 137 174 181
3 139 243 170
3 174 244 181
3 181 244 245
3 174 227 244
3 170 243 246
3 227 247 246
3 246 247 170
3 244 248 245
3 243 139 248
3 245 248 233
3 245 234 181
3 181 238 250
3 245 233 234
3 181 234 238
3 250 238 249
3 139 249 251
3 139 253 249
3 139 183 253
3 181 240 241
3 181 250 240
3 181 241 182
3 182 241 252
3 252 241 254
3 252 254 255
3 250 249 256
3 182 257 185
3 182 252 257
3 252 255 258
3 253 183 255
3 255 183 258
3 249 253 256
3 236 240 238
3 250 256 240
3 258 239 252
3 258 254 239
3 252 242 259
3 252 239 242
3 241 239 254
3 203 262 230
3 203 202 262
3 262 263 230
3 204 231 230
3 228 233 264
3 233 265 264
3 202 266 262
3 266 263 262
3 228 264 267
3 228 268 227
3 264 265 269
3 208 237 235
3 208 270 237
3 237 242 239
3 236 238 234
3 208 205 210
3 270 272 237
3 237 272 242
3 227 273 244
3 227 246 273
3 246 275 274
3 246 243 275
3 273 246 276
3 244 277 248
3 246 274 276
3 275 243 277
3 248 277 243
3 273 269 244
3 244 269 277
3 248 139 251
3 233 248 251
3 233 251 265
3 170 247 178
3 265 277 269
3 238 240 256
3 242 271 259
3 256 279 278
3 256 253 279
3 259 271 260
3 254 258 280
3 271 281 260
3 183 260 282
3 257 252 283
3 183 284 261
3 183 186 284
3 252 259 283
3 183 261 260
3 185 257 287
3 185 287 187
3 287 286 288
3 257 286 287
3 257 285 286
3 288 290 289
3 284 186 292
3 186 291 292
3 186 188 291
3 284 292 285
3 289 290 291
3 288 289 287
3 188 293 291
3 291 293 289
3 259 294 283
3 260 261 295
3 283 296 257
3 261 284 297
3 284 298 297
3 285 298 284
3 259 260 294
3 257 299 285
3 285 299 298
3 286 285 300
3 285 292 302
3 287 289 304
3 287 303 187
3 289 293 305
3 204 230 217
3 213 204 217
3 267 306 228
3 228 306 268
3 264 307 267
3 264 269 307
3 202 215 266
3 263 266 215
3 217 230 309
3 230 263 309
3 268 276 227
3 267 307 310
3 210 270 208
3 242 272 271
3 210 218 270
3 270 312 272
3 273 310 269
3 265 308 277
3 307 269 310
3 275 277 313
3 251 249 314
3 265 251 308
3 227 276 247
3 277 308 313
3 247 276 178
3 308 311 313
3 314 249 315
3 238 315 249
3 255 279 253
3 254 316 255
3 255 316 279
3 238 256 315
3 282 260 281
3 263 215 309
3 215 317 309
3 267 310 306
3 310 318 306
3 311 319 318
3 318 319 306
3 317 321 309
3 217 309 226
3 306 319 322
3 268 323 276
3 320 306 322
3 321 322 226
3 309 321 226
3 319 324 322
3 218 312 270
3 218 325 312
3 222 226 327
3 226 325 326
3 322 328 226
3 324 328 322
3 312 325 329
3 226 328 329
3 325 226 329
3 312 329 272
3 273 318 310
3 273 323 318
3 273 276 323
3 311 331 330
3 318 331 311
3 318 323 331
3 311 330 313
3 308 251 332
3 311 308 319
3 308 332 330
3 319 308 330
3 275 313 330
3 178 274 275
3 276 274 178
3 319 330 331
3 319 331 324
3 330 332 275
3 331 333 324
3 251 314 332
3 314 315 334
3 315 256 278
3 254 280 316
3 272 294 271
3 258 183 280
3 183 282 280
3 271 294 281
3 278 279 334
3 324 333 328
3 315 278 334
3 334 279 335
3 272 336 294
3 316 280 279
3 279 280 335
3 294 296 283
3 296 299 257
3 300 285 302
3 261 297 295
3 294 260 295
3 286 300 301
3 286 337 288
3 301 337 286
3 288 304 290
3 288 337 304
3 302 292 338
3 292 291 338
3 290 304 291
3 304 289 305
3 293 188 340
3 188 190 340
3 189 339 190
3 287 304 303
3 189 341 339
3 187 341 189
3 305 293 340
3 338 291 342
3 291 304 342
3 294 336 296
3 281 295 282
3 281 294 295
3 295 297 282
3 296 301 299
3 297 298 338
3 300 299 301
3 299 302 298
3 299 300 302
3 298 302 338
3 303 304 337
3 337 301 303
3 304 305 342
3 305 340 342
3 26 343 21
3 21 343 22
3 56 57 55
3 55 57 344
3 55 344 345
3 17 19 346
3 27 17 346
3 346 19 29
3 29 55 347
3 22 349 348
3 349 350 348
3 22 348 351
3 22 352 45
3 22 351 352
3 351 353 352
3 351 354 353
3 45 356 355
3 45 355 47
3 358 357 53
3 352 353 354
3 355 356 359
3 22 343 349
3 343 361 349
3 349 361 350
3 45 362 356
3 356 362 359
3 355 363 47
3 355 364 363
3 47 363 357
3 363 365 357
3 352 366 45
3 45 366 362
3 355 359 367
3 357 365 53
3 355 367 364
3 55 369 347
3 55 345 369
3 370 372 371
3 370 374 373
3 371 372 26
3 370 371 374
3 373 374 375
3 346 371 26
3 346 374 371
3 27 346 26
3 26 372 376
3 26 376 343
3 346 29 377
3 346 377 374
3 374 377 375
3 29 347 369
3 377 29 369
3 348 350 361
3 351 380 354
3 348 361 381
3 348 381 351
3 380 382 354
3 351 381 380
3 362 367 359
3 365 383 53
3 352 354 382
3 352 360 366
3 352 382 360
3 364 367 362
3 53 383 368
3 343 381 361
3 381 366 380
3 380 366 360
3 378 384 379
3 381 343 366
3 343 376 366
3 362 366 364
3 360 382 380
3 366 363 364
3 365 386 383
3 365 363 386
3 384 368 385
3 368 384 125
3 378 387 384
3 75 76 78
3 77 78 76
3 75 78 57
3 57 78 344
3 78 66 344
3 344 66 67
3 344 67 345
3 67 73 388
3 80 79 389
3 80 389 84
3 80 84 81
3 79 81 389
3 84 389 156
3 81 156 389
3 84 156 85
3 85 156 390
3 82 85 73
3 73 85 391
3 85 390 391
3 345 392 369
3 345 67 392
3 67 388 392
3 369 392 393
3 369 393 377
3 392 388 393
3 377 393 375
3 387 394 384
3 73 391 388
3 388 391 395
3 378 379 387
3 393 388 395
3 393 396 375
3 370 373 372
3 372 373 397
3 397 373 375
3 372 397 376
3 376 397 379
3 376 379 385
3 379 384 385
3 366 376 363
3 376 385 363
3 375 396 397
3 396 398 397
3 397 398 379
3 379 399 387
3 398 399 379
3 47 357 61
3 109 400 107
3 400 402 401
3 53 110 358
3 110 106 402
3 402 106 401
3 126 117 403
3 357 386 61
3 400 401 405
3 106 124 404
3 126 407 120
3 126 406 407
3 407 406 408
3 122 409 124
3 406 409 408
3 122 408 409
3 401 106 410
3 405 401 410
3 107 400 411
3 400 405 411
3 358 110 368
3 61 412 109
3 61 386 412
3 357 358 383
3 357 383 386
3 400 413 402
3 413 405 402
3 358 368 383
3 110 402 368
3 410 106 414
3 404 414 106
3 113 114 89
3 120 415 113
3 406 417 416
3 126 417 406
3 407 418 120
3 406 416 409
3 404 124 419
3 408 122 420
3 112 420 122
3 53 368 125
3 368 402 421
3 109 413 400
3 411 422 107
3 107 422 117
3 117 422 403
3 405 421 402
3 418 415 120
3 407 408 416
3 403 417 126
3 418 407 416
3 416 419 409
3 409 419 124
3 416 408 420
3 109 412 413
3 403 422 417
3 422 113 417
3 422 423 113
3 422 412 423
3 386 363 412
3 413 411 405
3 413 422 411
3 413 412 422
3 421 410 414
3 405 410 421
3 368 421 414
3 417 418 416
3 417 415 418
3 417 113 415
3 404 419 414
3 416 420 419
3 419 420 414
3 414 420 112
3 115 424 127
3 384 394 125
3 115 125 424
3 424 125 394
3 363 423 412
3 363 414 423
3 363 385 414
3 368 414 385
3 423 414 112
3 423 112 113
3 114 113 112
3 156 83 390
3 83 142 390
3 390 142 391
3 157 163 159
3 157 158 163
3 158 159 162
3 163 158 162
3 162 159 164
3 162 425 143
3 162 164 425
3 164 426 425
3 391 142 427
3 395 391 427
3 395 427 393
3 142 428 427
3 387 399 429
3 387 429 430
3 387 430 394
3 429 431 430
3 142 143 428
3 143 425 428
3 425 433 428
3 427 428 393
3 393 428 433
3 393 434 396
3 393 433 434
3 435 431 436
3 399 431 429
3 430 431 432
3 435 438 432
3 435 437 438
3 431 435 432
3 435 436 437
3 437 436 439
3 437 440 438
3 437 439 440
3 164 161 426
3 161 171 426
3 166 167 441
3 166 441 171
3 167 179 441
3 425 426 442
3 426 171 442
3 425 442 433
3 433 442 434
3 442 171 434
3 445 447 446
3 445 446 443
3 447 445 449
3 443 446 396
3 445 443 448
3 434 441 443
3 434 171 441
3 443 441 448
3 443 396 434
3 445 448 449
3 441 179 448
3 177 176 450
3 175 176 177
3 444 439 436
3 444 451 439
3 439 451 440
3 448 180 177
3 179 180 448
3 448 177 449
3 177 452 449
3 444 436 453
3 444 453 451
3 398 454 399
3 399 454 431
3 431 454 436
3 446 447 396
3 396 447 398
3 447 449 398
3 398 449 454
3 436 454 453
3 454 449 452
3 454 455 453
3 454 452 455
3 127 194 192
3 192 194 191
3 193 194 456
3 219 193 456
3 219 456 457
3 220 458 214
3 225 459 224
3 225 214 459
3 458 459 214
3 459 458 460
3 221 224 462
3 224 461 462
3 224 459 327
3 224 463 461
3 458 464 460
3 461 463 466
3 461 466 465
3 219 457 220
3 220 467 458
3 458 467 464
3 467 468 464
3 464 470 460
3 464 468 470
3 127 424 194
3 424 430 194
3 424 394 430
3 194 432 456
3 194 430 432
3 457 456 471
3 457 471 220
3 471 467 220
3 467 471 474
3 467 474 476
3 467 476 468
3 469 472 477
3 469 478 472
3 478 469 473
3 471 456 438
3 471 438 475
3 438 456 432
3 471 475 474
3 475 478 474
3 474 478 476
3 475 472 478
3 475 479 472
3 472 479 477
3 475 438 479
3 479 438 440
3 221 462 215
3 215 462 317
3 462 480 317
3 463 317 480
3 317 463 321
3 327 481 463
3 224 327 463
3 459 222 327
3 459 218 222
3 321 481 322
3 327 482 481
3 463 481 321
3 481 482 322
3 320 322 483
3 322 484 483
3 322 482 484
3 483 484 333
3 483 333 485
3 480 486 463
3 461 465 462
3 486 466 463
3 320 483 487
3 459 460 218
3 460 488 218
3 327 226 326
3 327 326 482
3 326 325 488
3 218 488 325
3 484 482 489
3 484 329 328
3 484 489 329
3 484 328 333
3 482 326 489
3 326 488 489
3 329 489 272
3 460 470 488
3 488 470 489
3 489 491 272
3 178 275 176
3 268 493 492
3 268 492 323
3 493 176 494
3 275 494 176
3 331 323 333
3 323 485 333
3 275 332 495
3 314 334 496
3 485 495 483
3 314 496 497
3 492 498 323
3 485 499 495
3 485 498 499
3 323 498 485
3 494 275 500
3 275 495 500
3 500 495 499
3 490 497 496
3 483 495 487
3 280 282 335
3 335 282 501
3 502 503 504
3 272 491 502
3 502 491 503
3 480 462 486
3 306 479 268
3 306 320 505
3 320 487 505
3 487 506 505
3 487 498 506
3 465 477 462
3 477 508 462
3 306 505 479
3 505 506 509
3 470 511 512
3 470 512 489
3 268 513 493
3 487 499 498
3 487 507 499
3 492 509 498
3 492 514 509
3 492 493 514
3 506 498 509
3 507 515 499
3 494 500 516
3 493 494 516
3 507 510 515
3 493 516 514
3 500 499 515
3 487 510 507
3 487 495 510
3 332 314 517
3 495 517 510
3 495 332 517
3 314 497 518
3 282 503 519
3 272 502 336
3 282 297 504
3 282 504 503
3 296 522 301
3 297 338 522
3 301 523 303
3 523 524 525
3 523 525 303
3 524 342 526
3 524 526 525
3 342 340 526
3 525 527 303
3 502 528 336
3 502 504 529
3 336 530 296
3 504 531 529
3 504 297 531
3 297 522 531
3 301 532 523
3 342 524 533
3 296 534 522
3 522 534 531
3 301 522 535
3 522 338 536
3 526 340 537
3 303 341 187
3 527 341 303
3 525 526 538
3 526 537 538
3 465 469 477
3 462 508 486
3 486 508 539
3 465 466 469
3 469 466 473
3 486 473 466
3 486 539 473
3 505 509 540
3 539 508 477
3 509 541 540
3 541 543 544
3 470 468 511
3 489 545 491
3 512 545 489
3 268 479 513
3 176 493 450
3 513 450 493
3 490 546 497
3 515 510 541
3 546 518 497
3 541 510 543
3 314 518 517
3 520 547 501
3 490 496 546
3 501 547 335
3 496 334 548
3 546 496 548
3 501 521 520
3 491 519 503
3 282 519 549
3 334 335 547
3 334 547 550
3 548 334 550
3 491 545 519
3 501 282 549
3 501 549 521
3 477 551 539
3 477 479 551
3 539 551 552
3 473 542 478
3 539 552 473
3 542 473 552
3 551 479 505
3 505 540 551
3 540 544 551
3 540 541 544
3 544 552 551
3 479 440 451
3 479 451 513
3 476 511 468
3 512 511 542
3 478 542 476
3 476 542 511
3 552 544 553
3 544 546 553
3 552 554 542
3 552 553 554
3 542 554 512
3 512 554 545
3 514 516 513
3 514 555 509
3 509 555 541
3 514 513 555
3 541 556 515
3 541 555 556
3 500 515 556
3 510 517 556
3 543 510 556
3 543 557 544
3 543 556 557
3 546 544 558
3 544 557 558
3 546 558 518
3 450 516 500
3 513 516 450
3 513 451 555
3 500 556 517
3 450 517 177
3 450 500 517
3 177 517 452
3 555 557 556
3 517 518 550
3 555 451 557
3 451 453 557
3 546 548 553
3 553 548 558
3 520 554 559
3 520 559 547
3 553 559 554
3 553 558 559
3 554 520 560
3 520 521 560
3 560 521 547
3 554 560 545
3 545 560 519
3 558 561 559
3 518 548 550
3 518 558 548
3 550 547 549
3 557 561 558
3 557 453 561
3 550 549 517
3 547 559 560
3 559 561 560
3 560 528 519
3 547 521 549
3 528 530 336
3 502 519 528
3 502 529 519
3 530 534 296
3 535 532 301
3 535 522 536
3 532 562 523
3 523 538 524
3 523 562 538
3 536 338 563
3 338 342 563
3 342 533 563
3 524 538 533
3 527 525 538
3 340 190 564
3 339 564 190
3 537 340 564
3 519 529 549
3 560 530 528
3 560 561 530
3 529 531 565
3 535 534 532
3 534 530 532
3 534 536 531
3 534 535 536
3 562 527 538
3 532 341 562
3 536 563 531
3 531 563 565
3 562 341 527
3 533 538 537
3 533 537 563
3 563 537 564
3 453 455 561
3 452 549 455
3 517 549 452
3 561 455 530
3 455 549 566
3 455 566 530
3 566 549 565
3 529 565 549
3 532 530 566
3 532 566 341
3 563 564 565
3 566 339 341
3 566 565 339
3 565 564 339
